<?xml version="1.0" standalone="no"?>
<!DOCTYPE svg PUBLIC "-//W3C//DTD SVG 1.1//EN" "http://www.w3.org/Graphics/SVG/1.1/DTD/svg11.dtd" >
<svg xmlns="http://www.w3.org/2000/svg" xmlns:xlink="http://www.w3.org/1999/xlink" version="1.1">
<metadata>
Created by FontForge 20170731 at Thu Dec  7 09:59:56 2023
 By Aleksey,,,
</metadata>
<defs>
<font id="SofiaPro-SemiBold" horiz-adv-x="567" >
  <font-face 
    font-family="Sofia Pro Semi Bold"
    font-weight="600"
    font-stretch="normal"
    units-per-em="1000"
    panose-1="2 11 0 0 0 0 0 0 0 0"
    ascent="800"
    descent="-200"
    x-height="467"
    cap-height="689"
    bbox="-177 -274 1128 1110"
    underline-thickness="50"
    underline-position="-150"
    unicode-range="U+000D-FB04"
  />
<missing-glyph horiz-adv-x="635" 
d="M555 0h-475v665h475v-665zM185 431h62q0 37 21 60t53 23q33 0 56.5 -20.5t23.5 -52.5q0 -31 -24 -50q-15 -17 -33 -21q-47 -13 -70 -38.5t-23 -71.5v-38h62v38q0 21 12 32t38 18q44 13 71.5 48.5t27.5 82.5q0 59 -42 97q-41 38 -99 38q-57 0 -97 -40q-39 -40 -39 -105z
M283 88q18 0 31.5 12.5t13.5 30.5t-13.5 30.5t-31.5 12.5q-19 0 -32.5 -12.5t-13.5 -30.5t13.5 -30.5t32.5 -12.5z" />
    <glyph glyph-name="f_f" unicode="ff" horiz-adv-x="740" 
d="M694 721h51v-117h-51q-76 0 -76 -100v-37h99v-98h-99v-369h-123v369h-260v-369h-123v369h-89v98h89v37q0 103 51.5 160t147.5 57h51v-117h-51q-76 0 -76 -100v-37h260v37q0 103 51.5 160t147.5 57z" />
    <glyph glyph-name="fi" unicode="fi" horiz-adv-x="658" 
d="M235 467h355v-467h-121v369h-234v-369h-123v369h-89v98h89v37q0 103 51.5 160t147.5 57h51v-117h-51q-76 0 -76 -100v-37zM530 574q-33 0 -56 21.5t-23 52.5t23.5 52t55.5 21t54.5 -21t22.5 -52t-22.5 -52.5t-54.5 -21.5z" />
    <glyph glyph-name="fl" unicode="fl" horiz-adv-x="665" 
d="M311 721h285v-721h-122v604h-163q-76 0 -76 -100v-37h99v-98h-99v-369h-123v369h-89v98h89v37q0 103 51.5 160t147.5 57z" />
    <glyph glyph-name="f_f_i" unicode="ffi" horiz-adv-x="1041" 
d="M618 467h355v-467h-121v369h-234v-369h-123v369h-260v-369h-123v369h-89v98h89v37q0 103 51.5 160t147.5 57h51v-117h-51q-76 0 -76 -100v-37h260v37q0 103 51.5 160t147.5 57h51v-117h-51q-76 0 -76 -100v-37zM913 574q-33 0 -56 21.5t-23 52.5t23.5 52t55.5 21
t54.5 -21t22.5 -52t-22.5 -52.5t-54.5 -21.5z" />
    <glyph glyph-name="f_f_l" unicode="ffl" horiz-adv-x="1048" 
d="M979 0h-122v604h-163q-76 0 -76 -100v-37h99v-98h-99v-369h-123v369h-260v-369h-123v369h-89v98h89v37q0 103 51.5 160t147.5 57h51v-117h-51q-76 0 -76 -100v-37h260v37q0 103 51.5 160t147.5 57h285v-721z" />
    <glyph glyph-name="f_f_j" unicode="ffj" horiz-adv-x="1029" 
d="M787 -233h-77v112h59q70 0 69 88v402h-220v-369h-123v369h-260v-369h-123v369h-89v98h89v37q0 103 51.5 160t147.5 57h51v-117h-51q-76 0 -76 -100v-37h260v37q0 103 51.5 160t147.5 57h51v-117h-51q-76 0 -76 -100v-37h343v-498q0 -202 -174 -202zM821 648q0 30 23 51.5
t55 21.5q33 0 55.5 -21t22.5 -52t-22.5 -52.5t-55.5 -21.5q-32 0 -55 21.5t-23 52.5z" />
    <glyph glyph-name="f_j" unicode="fj" horiz-adv-x="646" 
d="M404 -233h-77v112h59q70 0 69 88v402h-220v-369h-123v369h-89v98h89v37q0 103 51.5 160t147.5 57h51v-117h-51q-76 0 -76 -100v-37h343v-498q0 -202 -174 -202zM438 648q0 30 23 51.5t55 21.5q33 0 55.5 -21t22.5 -52t-22.5 -52.5t-55.5 -21.5q-32 0 -55 21.5t-23 52.5z
" />
    <glyph glyph-name=".notdef" horiz-adv-x="635" 
d="M555 0h-475v665h475v-665zM185 431h62q0 37 21 60t53 23q33 0 56.5 -20.5t23.5 -52.5q0 -31 -24 -50q-15 -17 -33 -21q-47 -13 -70 -38.5t-23 -71.5v-38h62v38q0 21 12 32t38 18q44 13 71.5 48.5t27.5 82.5q0 59 -42 97q-41 38 -99 38q-57 0 -97 -40q-39 -40 -39 -105z
M283 88q18 0 31.5 12.5t13.5 30.5t-13.5 30.5t-31.5 12.5q-19 0 -32.5 -12.5t-13.5 -30.5t13.5 -30.5t32.5 -12.5z" />
    <glyph glyph-name=".null" horiz-adv-x="0" 
 />
    <glyph glyph-name=".null" horiz-adv-x="0" 
 />
    <glyph glyph-name="nonmarkingreturn" unicode="&#xd;" horiz-adv-x="333" 
 />
    <glyph glyph-name="glyph10" horiz-adv-x="635" 
d="M555 0h-475v665h475v-665zM185 431h62q0 37 21 60t53 23q33 0 56.5 -20.5t23.5 -52.5q0 -31 -24 -50q-15 -17 -33 -21q-47 -13 -70 -38.5t-23 -71.5v-38h62v38q0 21 12 32t38 18q44 13 71.5 48.5t27.5 82.5q0 59 -42 97q-41 38 -99 38q-57 0 -97 -40q-39 -40 -39 -105z
M283 88q18 0 31.5 12.5t13.5 30.5t-13.5 30.5t-31.5 12.5q-19 0 -32.5 -12.5t-13.5 -30.5t13.5 -30.5t32.5 -12.5z" />
    <glyph glyph-name="space" unicode=" " horiz-adv-x="248" 
 />
    <glyph glyph-name="exclam" unicode="!" horiz-adv-x="280" 
d="M88 201l-19 488h143l-19 -488h-105zM139 142q33 0 56.5 -21.5t23.5 -54.5t-23.5 -54.5t-56.5 -21.5q-32 0 -55 22t-23 54t23 54t55 22z" />
    <glyph glyph-name="quotedbl" unicode="&#x22;" horiz-adv-x="353" 
d="M144 395h-69l-10 294h89zM278 395h-69l-10 294h89z" />
    <glyph glyph-name="numbersign" unicode="#" horiz-adv-x="699" 
d="M604 689l-51 -174h111l-25 -90h-112l-50 -170h111l-25 -90h-111l-52 -165h-101l50 165h-103l-51 -165h-100l50 165h-110l25 90h110l49 170h-108l24 90h110l51 174h102l-50 -174h103l51 174h102zM425 425h-104l-50 -170h103z" />
    <glyph glyph-name="dollar" unicode="$" horiz-adv-x="569" 
d="M252 695v105h69v-106q85 -11 137 -66t52 -139h-128q0 41 -27.5 65.5t-75.5 24.5q-45 0 -74 -22.5t-29 -58.5q0 -57 82 -79l85 -25q103 -28 148.5 -82.5t39.5 -127.5q-5 -83 -64 -134q-59 -52 -146 -59v-113h-69v113q-93 10 -152 69q-58 58 -58 141h128q2 -41 34.5 -69
t84.5 -28q50 0 81 23t33 60q2 34 -21.5 57t-73.5 37l-85 22q-174 51 -174 192q0 82 58 137q59 56 145 63z" />
    <glyph glyph-name="percent" unicode="%" horiz-adv-x="688" 
d="M536 661l-325 -661h-68l325 661h68zM169 666q55 0 94 -39q40 -39 40 -95t-39 -95q-40 -38 -95 -38t-95 38q-38 40 -38 95t38 95q39 39 95 39zM226 532q0 23 -17 40t-40 17q-36 3 -51.5 -35t11.5 -62q24 -27 62 -11.5t35 51.5zM652 123q0 -56 -39 -95q-40 -38 -95 -38
t-95 38q-38 40 -38 95t38 95q39 39 95 39t95 -40q39 -39 39 -94zM575 123q0 23 -17 40t-40 17q-36 3 -51.5 -35t11.5 -62q24 -27 62 -11.5t35 51.5z" />
    <glyph glyph-name="ampersand" unicode="&#x26;" horiz-adv-x="682" 
d="M422 319h-125q-61 0 -91 -37q-29 -39 -25 -77q5 -45 35.5 -70.5t80.5 -25.5q53 0 89 37.5t36 103.5v69zM283 -10q-99 0 -166 59q-65 59 -65 149q0 62 28.5 108.5t81.5 69.5q-33 16 -53.5 52t-20.5 81q0 74 55 128t138 57q119 5 187 -92l-103 -63q-28 37 -69 37
q-35 0 -56.5 -21.5t-21.5 -52.5q0 -13 5 -31q7 -20 27.5 -36.5t50.5 -16.5h121v82h114v-82h83v-99h-83v-114q0 -62 19 -84q20 -23 78 -23v-108q-79 1 -121.5 19t-59.5 63q-21 -38 -70 -60q-48 -22 -99 -22z" />
    <glyph glyph-name="quotesingle" unicode="'" horiz-adv-x="219" 
d="M144 395h-69l-10 294h89z" />
    <glyph glyph-name="parenleft" unicode="(" horiz-adv-x="378" 
d="M42 229q0 207 85 337q86 131 217 131v-102q-80 0 -138 -108q-58 -107 -58 -258q0 -149 58 -255t138 -106v-101q-131 0 -217 128q-85 127 -85 334z" />
    <glyph glyph-name="parenright" unicode=")" horiz-adv-x="378" 
d="M336 229q0 -207 -85 -334q-86 -128 -217 -128v101q79 0 137 106q59 107 59 255q0 149 -59 258q-58 108 -137 108v102q131 0 217 -131q85 -130 85 -337z" />
    <glyph glyph-name="asterisk" unicode="*" horiz-adv-x="474" 
d="M163 327l-71 54l83 102l-128 36l29 86l123 -48l-8 132h92l-9 -131l125 47l27 -86l-127 -34l84 -105l-72 -51l-72 109z" />
    <glyph glyph-name="plus" unicode="+" horiz-adv-x="511" 
d="M461 213h-157v-158h-97v158h-157v97h157v156h97v-156h157v-97z" />
    <glyph glyph-name="comma" unicode="," horiz-adv-x="271" 
d="M86 -132l-81 30q76 106 74 245h126q-3 -97 -39 -168t-80 -107z" />
    <glyph glyph-name="hyphen" unicode="-" horiz-adv-x="477" 
d="M414 191h-351v102h351v-102z" />
    <glyph glyph-name="period" unicode="." horiz-adv-x="272" 
d="M135 142q33 0 56.5 -21.5t23.5 -54.5t-23.5 -54.5t-56.5 -21.5q-32 0 -55 22t-23 54t23 54t55 22z" />
    <glyph glyph-name="slash" unicode="/" horiz-adv-x="501" 
d="M30 0l334 689h107l-334 -689h-107z" />
    <glyph glyph-name="zero" unicode="0" horiz-adv-x="603" 
d="M60 327q0 339 243 339q137 0 192 -100q48 -88 48 -239q0 -75 -11.5 -132.5t-37.5 -105.5t-74 -73.5t-117 -25.5q-243 0 -243 337zM183 327q0 -217 120 -217q118 0 118 217q0 219 -118 219q-120 0 -120 -219z" />
    <glyph glyph-name="one" unicode="1" horiz-adv-x="362" 
d="M39 449v110l233 103v-662h-123v493z" />
    <glyph glyph-name="two" unicode="2" horiz-adv-x="541" 
d="M473 117v-117h-418v63l267 320q40 46 40 86q0 33 -26.5 55.5t-67.5 22.5q-40 0 -68 -26.5t-34 -68.5l-114 21q13 88 74 141q59 52 147 52q87 0 149 -56t62 -141q0 -88 -70 -167l-162 -185h221z" />
    <glyph glyph-name="three" unicode="3" horiz-adv-x="546" 
d="M258 291h-70v109h70q40 -2 57 24t17 48q0 26 -14.5 47t-43.5 27q-64 8 -101 -40l-96 63q28 48 81.5 74.5t116.5 22.5q84 -5 136 -57q53 -53 53 -126q0 -39 -22 -73t-59 -55q50 -19 82 -72t27 -106q-9 -89 -82 -141t-170 -45q-66 4 -121 41.5t-82 96.5l53 26l54 28
q15 -31 44.5 -52t61.5 -21q47 0 78.5 27.5t31.5 69.5q0 9 -4 21t-13.5 28t-31.5 26t-53 9z" />
    <glyph glyph-name="four" unicode="4" horiz-adv-x="599" 
d="M345 477l-145 -228h145v228zM554 249v-107h-87v-142h-122v142h-323l326 512h119v-405h87z" />
    <glyph glyph-name="five" unicode="5" horiz-adv-x="582" 
d="M411 224q0 53 -35 83t-91 30q-89 0 -150 -66l-70 42l55 341h372v-113h-274l-23 -134q41 35 121 35q94 0 155 -58q62 -57 62 -160q0 -104 -72 -169q-71 -65 -189 -65q-68 0 -130 38t-97 100q3 1 51 32q47 30 52 32q20 -36 54 -58.5t70 -22.5q62 0 100.5 32.5t38.5 80.5z
" />
    <glyph glyph-name="six" unicode="6" horiz-adv-x="573" 
d="M393 207q1 41 -27 70.5t-69 30.5q-40 1 -71 -28q-29 -28 -31 -70q0 -42 28.5 -71.5t69.5 -29.5q41 -1 70 27.5t30 70.5zM317 422q82 0 142 -61q61 -61 60 -161q-1 -93 -67 -152t-165 -58q-91 1 -154 63t-71 164q-3 62 -2.5 125.5t17 122.5t43.5 104.5t77.5 72t118.5 24.5
q70 -3 118 -32t79 -95l-113 -48q-29 60 -88 60q-67 0 -100 -60q-32 -59 -27 -143q10 29 48 51.5t84 22.5z" />
    <glyph glyph-name="seven" unicode="7" horiz-adv-x="541" 
d="M48 539v115h479l-313 -654h-140l259 539h-285z" />
    <glyph glyph-name="eight" unicode="8" horiz-adv-x="584" 
d="M218 484q0 -30 21 -50.5t54 -20.5q32 0 52 20.5t20 50.5q0 28 -20.5 48t-52.5 20t-53 -20t-21 -48zM173 216q0 -45 35 -78q35 -32 84 -32q48 0 83 32q35 33 35 78q0 44 -33 75q-33 33 -78 33h-18q-45 0 -77 -33q-31 -32 -31 -75zM99 488q0 73 56 126q55 52 137 52
q81 0 136 -52q57 -52 57 -126q0 -66 -49 -112q45 -26 70.5 -69.5t25.5 -94.5q0 -93 -70 -157q-71 -65 -170 -65q-100 0 -171 65q-70 64 -70 157q0 108 96 164q-48 46 -48 112z" />
    <glyph glyph-name="nine" unicode="9" horiz-adv-x="574" 
d="M380 445q0 42 -28.5 71.5t-69.5 30.5t-70 -28t-30 -70t27 -70.5t69 -30.5q41 -2 71 27q29 28 31 70zM257 234q-81 0 -142 61q-60 62 -59 161q1 92 66 151q66 59 165 58q93 -2 154 -63q63 -62 72 -163q3 -62 2.5 -125.5t-17 -123t-43.5 -105t-77.5 -72t-118.5 -23.5
q-70 3 -118 32t-79 95l113 48q28 -60 88 -60q67 0 99 59q33 58 28 144q-10 -29 -48 -51.5t-85 -22.5z" />
    <glyph glyph-name="colon" unicode=":" horiz-adv-x="284" 
d="M86 11q-23 22 -23 55t23 54q23 22 56 22t56 -22q23 -21 23 -54t-23 -55q-23 -21 -56 -21t-56 21zM86 346q-23 22 -23 55t23 54q23 22 56 22t56 -22q23 -21 23 -54t-23 -55q-23 -21 -56 -21t-56 21z" />
    <glyph glyph-name="semicolon" unicode=";" horiz-adv-x="291" 
d="M94 -132l-83 30q76 103 75 245h127q-3 -97 -39 -168t-80 -107zM96 346q-23 22 -23 55t23 54q23 22 56 22t56 -22q23 -21 23 -54t-23 -55q-23 -21 -56 -21t-56 21z" />
    <glyph glyph-name="less" unicode="&#x3c;" horiz-adv-x="628" 
d="M550 150v-105l-504 192v104l504 192v-105l-369 -139z" />
    <glyph glyph-name="equal" unicode="=" horiz-adv-x="600" 
d="M530 428v-94h-460v94h460zM70 135v94h460v-94h-460z" />
    <glyph glyph-name="greater" unicode="&#x3e;" horiz-adv-x="628" 
d="M582 341v-104l-504 -192v105l369 139l-369 139v105z" />
    <glyph glyph-name="question" unicode="?" horiz-adv-x="491" 
d="M258 233l-2 -33h-119l-2 33q0 66 24 112q9 19 34 36q25 19 42 27l59 30q38 17 38 65q0 31 -25.5 51.5t-61.5 20.5q-37 0 -61 -24t-24 -63h-121q0 95 57 152q58 57 149 57t150 -54q59 -53 59 -141q0 -68 -38 -119t-100 -70q-31 -10 -44.5 -27.5t-13.5 -52.5zM119 67
q0 32 23 54t56 22t56 -22t23 -54q0 -33 -23 -55t-56 -22t-56 22t-23 55z" />
    <glyph glyph-name="at" unicode="@" horiz-adv-x="967" 
d="M590 133v127q0 52 -36 86q-35 35 -85 35q-49 0 -86 -35q-35 -35 -35 -86q0 -49 35 -84q37 -35 86 -35q45 0 86 33v-91q-43 -24 -86 -24q-85 0 -144 58q-59 59 -59 143q0 85 59 144q61 59 144 59q82 0 141 -55q60 -56 63 -138v-143q0 -62 64 -62q63 0 89 75q20 60 20 133
q0 145 -108 242q-107 97 -259 97q-147 0 -248 -104t-101 -253q0 -147 101 -250q101 -102 248 -102h29v-83h-29q-183 0 -307 126q-125 127 -125 309q0 183 125 311q126 129 307 129q118 3 223 -53t167.5 -155t60.5 -214q0 -99 -42 -189q-22 -46 -61.5 -73.5t-89.5 -27.5
q-67 0 -107 37.5t-40 112.5z" />
    <glyph glyph-name="A" unicode="A" horiz-adv-x="654" 
d="M654 0h-135l-63 167h-257l-63 -167h-136l258 689h138zM414 279l-87 263l-85 -263h172z" />
    <glyph glyph-name="B" unicode="B" horiz-adv-x="634" 
d="M554 502q0 -100 -91 -134q59 -15 94 -63q34 -47 34 -98q0 -86 -59 -147q-58 -60 -155 -60h-291v689h270q91 0 144.5 -50.5t53.5 -136.5zM214 575v-163h133q33 0 53.5 23.5t20.5 59.5q0 37 -20.5 58.5t-57.5 21.5h-129zM367 305h-153v-191h156q39 0 63 28t24 67t-25 67.5
t-65 28.5z" />
    <glyph glyph-name="C" unicode="C" horiz-adv-x="693" 
d="M570 204l101 -74q-46 -66 -119.5 -103t-160.5 -37q-147 0 -247 103t-100 250q0 148 100 251t247 103q85 0 158 -36t119 -100l-102 -73q-67 88 -175 88q-93 0 -156 -68t-63 -165t63 -165q63 -67 156 -67q53 0 100.5 25t78.5 68z" />
    <glyph glyph-name="D" unicode="D" horiz-adv-x="714" 
d="M355 572h-141v-455h141q89 0 135 64q48 65 48 162q0 100 -48 164q-47 65 -135 65zM355 0h-269v689h269q144 0 227 -98q84 -98 84 -248q0 -149 -84 -247q-82 -96 -227 -96z" />
    <glyph glyph-name="E" unicode="E" horiz-adv-x="572" 
d="M522 0h-436v689h426v-114h-299v-179h262v-113h-262v-169h309v-114z" />
    <glyph glyph-name="F" unicode="F" horiz-adv-x="534" 
d="M214 0h-128v689h421v-114h-293v-179h232v-114h-232v-282z" />
    <glyph glyph-name="G" unicode="G" horiz-adv-x="756" 
d="M645 592l-94 -82q-64 67 -156 67q-95 0 -159 -69q-64 -67 -64 -165t64 -166q64 -69 159 -69q73 0 128 40q57 41 58 103h-189v105h336q0 -180 -88 -273t-245 -93q-147 0 -249 103t-102 250t102 250q102 104 249 104q153 0 250 -105z" />
    <glyph glyph-name="H" unicode="H" horiz-adv-x="704" 
d="M489 400v289h129v-689h-129v285h-276v-285h-127v689h127v-289h276z" />
    <glyph glyph-name="I" unicode="I" horiz-adv-x="299" 
d="M213 0h-127v689h127v-689z" />
    <glyph glyph-name="J" unicode="J" horiz-adv-x="300" 
d="M-99 -218l12 116q29 -10 80 -10q46 0 69.5 29.5t23.5 79.5v692h128v-692q0 -106 -55.5 -168t-165.5 -62q-32 0 -92 15z" />
    <glyph glyph-name="K" unicode="K" horiz-adv-x="598" 
d="M550 689l-262 -342l324 -347h-167l-230 255v-255h-129v689h129v-251l185 251h150z" />
    <glyph glyph-name="L" unicode="L" horiz-adv-x="506" 
d="M480 0h-394v689h128v-575h266v-114z" />
    <glyph glyph-name="M" unicode="M" horiz-adv-x="919" 
d="M239 689l220 -466l219 466h110l84 -689h-128l-53 459l-180 -381h-102l-181 381l-54 -459h-128l85 689h108z" />
    <glyph glyph-name="N" unicode="N" horiz-adv-x="682" 
d="M468 689h128v-689h-117l-266 453v-453h-127v689h119l263 -448v448z" />
    <glyph glyph-name="O" unicode="O" horiz-adv-x="787" 
d="M235 504q-64 -65 -64 -161t64 -161q65 -66 158 -66t157 66q65 67 65 161t-65 161q-64 67 -157 67q-94 0 -158 -67zM44 343q0 146 101 250t248 104t248 -104q102 -104 102 -250q0 -147 -102 -250t-248 -103t-248 103q-101 104 -101 250z" />
    <glyph glyph-name="P" unicode="P" horiz-adv-x="612" 
d="M364 575h-150v-216h146q44 0 70.5 31.5t26.5 75.5q0 45 -25 77t-68 32zM214 0h-128v689h280q107 0 163 -66q56 -65 56 -157t-56 -157q-55 -64 -163 -64h-152v-245z" />
    <glyph glyph-name="Q" unicode="Q" horiz-adv-x="792" 
d="M593 50l68 -111l-92 -56l-75 121q-51 -14 -99 -14q-147 0 -249 103t-102 250t102 250q102 104 249 104q149 0 251 -103t102 -251q0 -89 -41.5 -166.5t-113.5 -126.5zM365 216l92 55l70 -114q92 66 92 186q0 97 -65 165t-159 68t-159 -68q-64 -67 -64 -165q0 -85 53 -150
q53 -63 135 -75q31 -5 65 -2z" />
    <glyph glyph-name="R" unicode="R" horiz-adv-x="631" 
d="M356 575h-142v-216h138q45 0 71 31t26 76t-25 77t-68 32zM407 250l176 -250h-154l-162 245h-53v-245h-128v689h276q108 0 163 -66q57 -65 57 -157q0 -80 -45 -141q-43 -61 -130 -75z" />
    <glyph glyph-name="S" unicode="S" horiz-adv-x="577" 
d="M46 201h128q2 -41 34.5 -69t84.5 -28q50 0 81 23t33 60q2 34 -21.5 57t-73.5 37l-85 22q-174 51 -174 192q0 90 67 145q68 57 165 57q99 0 164 -57q65 -56 65 -151h-128q0 41 -27.5 65.5t-75.5 24.5q-45 0 -74 -22.5t-29 -58.5q0 -57 82 -79l85 -25q103 -28 148.5 -82.5
t39.5 -127.5q-5 -91 -74 -143q-68 -52 -168 -52q-110 0 -178 61q-69 62 -69 151z" />
    <glyph glyph-name="T" unicode="T" horiz-adv-x="573" 
d="M222 572h-194v117h517v-117h-194v-572h-129v572z" />
    <glyph glyph-name="U" unicode="U" horiz-adv-x="681" 
d="M474 243v446h128v-446q0 -112 -77 -183q-76 -70 -184 -70q-110 0 -186 70t-76 183v446h130v-446q0 -57 39 -95q38 -37 93 -37t93 37q40 37 40 95z" />
    <glyph glyph-name="V" unicode="V" horiz-adv-x="575" 
d="M230 0l-210 689h133l134 -480l134 480h133l-209 -689h-115z" />
    <glyph glyph-name="W" unicode="W" horiz-adv-x="892" 
d="M497 593l104 -384l148 480h139l-234 -689h-103l-106 391l-104 -391h-104l-232 689h138l147 -480l105 384h102z" />
    <glyph glyph-name="X" unicode="X" horiz-adv-x="643" 
d="M460 689h153l-216 -321l240 -368h-152l-164 265l-164 -265h-151l239 368l-216 321h153l139 -219z" />
    <glyph glyph-name="Y" unicode="Y" horiz-adv-x="644" 
d="M387 312v-312h-131v314l-264 375h152l177 -265l179 265h153z" />
    <glyph glyph-name="Z" unicode="Z" horiz-adv-x="587" 
d="M42 0v100l332 474h-319v115h484v-101l-335 -473h335v-115h-497z" />
    <glyph glyph-name="bracketleft" unicode="[" horiz-adv-x="332" 
d="M296 -227h-220v916h220v-95h-112v-725h112v-96z" />
    <glyph glyph-name="backslash" unicode="\" horiz-adv-x="501" 
d="M364 0l-334 689h107l334 -689h-107z" />
    <glyph glyph-name="bracketright" unicode="]" horiz-adv-x="332" 
d="M36 689h220v-916h-220v96h112v725h-112v95z" />
    <glyph glyph-name="underscore" unicode="_" horiz-adv-x="728" 
d="M665 -124h-602v93h602v-93z" />
    <glyph glyph-name="grave" unicode="`" horiz-adv-x="539" 
d="M267 544l-138 163h128l105 -163h-95z" />
    <glyph glyph-name="a" unicode="a" horiz-adv-x="614" 
d="M545 0h-122v60q-20 -32 -62 -50.5t-83 -18.5q-97 0 -167 67q-71 68 -71 176t70 175q71 68 168 68q42 0 82.5 -17.5t62.5 -50.5v58h122v-467zM423 234q0 58 -39 92q-37 34 -89 34t-91 -36q-38 -35 -38 -90t38 -91q27 -27 66 -33t73 6.5t58 44t22 73.5z" />
    <glyph glyph-name="b" unicode="b" horiz-adv-x="606" 
d="M317 107q52 0 87.5 36t35.5 92q0 55 -35 90.5t-88 35.5q-49 0 -87 -35q-37 -34 -37 -91q0 -56 36 -92t88 -36zM191 63v-63h-122v721h122v-316q18 33 57.5 52.5t88.5 19.5q94 0 162 -68q67 -67 67 -176t-67 -176t-162 -67q-48 0 -88 20t-58 53z" />
    <glyph glyph-name="c" unicode="c" horiz-adv-x="520" 
d="M291 477q59 0 110 -24t84 -67l-97 -73q-34 46 -97 46q-52 0 -92 -35q-39 -34 -39 -89q0 -54 39 -92q39 -36 92 -36q62 0 97 47l98 -72q-69 -92 -195 -92q-105 0 -178 69q-74 69 -74 176q0 106 74 174t178 68z" />
    <glyph glyph-name="d" unicode="d" horiz-adv-x="606" 
d="M537 0h-121v63q-19 -33 -59 -53t-88 -20q-95 0 -162 67t-67 176t67 176q68 68 162 68q49 0 88.5 -19.5t58.5 -52.5v316h121v-721zM289 361q-53 0 -88 -35.5t-35 -90.5q0 -56 35 -93q37 -35 88 -35t88 35q37 36 37 93q0 56 -38 91t-87 35z" />
    <glyph glyph-name="e" unicode="e" horiz-adv-x="553" 
d="M519 235q0 -12 -2 -42h-356q6 -45 41.5 -72.5t87.5 -27.5q38 0 70 16t47 44l93 -50q-29 -55 -87.5 -84t-130.5 -29q-101 0 -172 68q-70 69 -70 177t70 175t172 67t169 -67q68 -68 68 -175zM160 276h240q-7 46 -38.5 72.5t-78.5 26.5q-49 0 -82.5 -27t-40.5 -72z" />
    <glyph glyph-name="f" unicode="f" horiz-adv-x="357" 
d="M311 721h51v-117h-51q-76 0 -76 -100v-37h99v-98h-99v-369h-123v369h-89v98h89v37q0 103 51.5 160t147.5 57z" />
    <glyph glyph-name="g" unicode="g" horiz-adv-x="611" 
d="M420 234q0 57 -36.5 91.5t-90.5 34.5q-52 0 -89 -36t-37 -90q0 -56 36 -92t90 -36q50 0 88 35q39 36 39 93zM58 -95l99 50q15 -34 50 -55.5t74 -21.5q79 0 113.5 50t28.5 136q-17 -33 -58.5 -53.5t-90.5 -20.5q-95 0 -165 67q-69 67 -69 175q0 110 69 177q71 68 165 68
q48 0 89.5 -20t59.5 -53v63h119v-400q0 -150 -67 -225t-194 -75q-73 0 -132.5 37t-90.5 101z" />
    <glyph glyph-name="h" unicode="h" horiz-adv-x="587" 
d="M191 249v-249h-122v721h122v-326q15 39 59 60q44 22 86 22q90 0 139 -57t49 -160v-260h-122v254q0 47 -29 75.5t-70 28.5q-48 0 -80 -28t-32 -81z" />
    <glyph glyph-name="i" unicode="i" horiz-adv-x="259" 
d="M69 467h121v-467h-121v467zM130 574q-33 0 -56 21.5t-23 52.5t23.5 52t55.5 21t54.5 -21t22.5 -52t-22.5 -52.5t-54.5 -21.5z" />
    <glyph glyph-name="j" unicode="j" horiz-adv-x="261" 
d="M18 -233h-77v112h59q70 0 69 88v500h123v-498q0 -202 -174 -202zM52 648q0 30 23 51.5t55 21.5q33 0 55.5 -21t22.5 -52t-22.5 -52.5t-55.5 -21.5q-32 0 -55 21.5t-23 52.5z" />
    <glyph glyph-name="k" unicode="k" horiz-adv-x="519" 
d="M519 0h-153l-176 200v-200h-121v721h121v-394l129 140h158l-196 -205z" />
    <glyph glyph-name="l" unicode="l" horiz-adv-x="260" 
d="M191 0h-122v721h122v-721z" />
    <glyph glyph-name="m" unicode="m" horiz-adv-x="864" 
d="M592 358q-43 0 -69 -29t-26 -80v-249h-122v257q-1 46 -25 73.5t-61 27.5q-44 0 -71 -27.5t-27 -81.5v-249h-122v467h122v-69q17 37 55 57.5t79 20.5q111 -6 149 -87q49 88 147 88q87 0 133.5 -54t46.5 -156v-267h-121v254q0 48 -24 76t-64 28z" />
    <glyph glyph-name="n" unicode="n" 
d="M191 249v-249h-122v467h122v-69q18 36 57 57.5t82 21.5q84 0 129 -51.5t45 -149.5v-276h-122v254q0 50 -23.5 77t-65.5 27q-47 0 -74.5 -27t-27.5 -82z" />
    <glyph glyph-name="o" unicode="o" horiz-adv-x="566" 
d="M405 235q0 53 -35 87.5t-87 34.5t-87 -34.5t-35 -87.5q0 -55 34.5 -90t87.5 -35t87.5 35t34.5 90zM455 59q-71 -68 -172 -68q-102 0 -173 68q-70 67 -70 176q0 108 70 175t173 67q102 0 172 -67q71 -68 71 -175q0 -108 -71 -176z" />
    <glyph glyph-name="p" unicode="p" horiz-adv-x="605" 
d="M69 467h122v-63q18 33 58 53t88 20q93 0 161 -68q67 -67 67 -175q0 -110 -67 -177q-66 -67 -161 -67q-48 0 -88 19.5t-58 52.5v-289h-122v694zM193 232q0 -56 36 -91t88 -35q53 0 88 35t35 91t-36 92t-87 36q-53 0 -88.5 -36t-35.5 -92z" />
    <glyph glyph-name="q" unicode="q" horiz-adv-x="605" 
d="M412 232q0 56 -35.5 92t-88.5 36q-52 0 -87 -36t-35 -92q0 -55 35 -90.5t87 -35.5q50 0 87 34t37 92zM414 404v63h122v-694h-122v289q-18 -33 -58 -52.5t-88 -19.5q-95 0 -162 67q-66 67 -66 177q0 108 67 175q68 68 161 68q48 0 88 -20t58 -53z" />
    <glyph glyph-name="r" unicode="r" horiz-adv-x="411" 
d="M191 165v-165h-122v467h122v-110q17 58 52.5 89t79.5 31q45 0 77 -17l-21 -110q-27 13 -71 13q-117 0 -117 -198z" />
    <glyph glyph-name="s" unicode="s" horiz-adv-x="454" 
d="M246 179l-64 16q-81 23 -106.5 57.5t-25.5 85.5q0 56 51 97q51 42 121 42q74 0 126 -36q53 -36 56 -111h-116q-1 23 -19 35.5t-44 12.5q-59 0 -59 -46q0 -26 49 -39l78 -19q38 -10 64 -28t37.5 -39.5t16 -38.5t4.5 -34q0 -68 -57 -106q-56 -38 -134 -38q-74 0 -131 42
q-56 44 -57 115h114q2 -25 27.5 -42.5t58.5 -16.5q26 1 43.5 14t17.5 33q1 17 -11.5 27.5t-39.5 16.5z" />
    <glyph glyph-name="t" unicode="t" horiz-adv-x="351" 
d="M108 645h121v-178h99v-98h-99v-369h-121v369h-85v98h85v178z" />
    <glyph glyph-name="u" unicode="u" 
d="M376 218v249h122v-467h-122v66q-18 -35 -54.5 -55.5t-74.5 -20.5q-86 0 -135 52.5t-49 148.5v276h123v-254q0 -51 25 -77.5t64 -26.5q45 0 73 27.5t28 81.5z" />
    <glyph glyph-name="v" unicode="v" horiz-adv-x="518" 
d="M313 0h-108l-196 467h130l120 -311l120 311h131z" />
    <glyph glyph-name="w" unicode="w" horiz-adv-x="774" 
d="M629 467h130l-167 -467h-102l-104 313l-101 -313h-101l-172 467h130l95 -295l94 295h108l95 -295z" />
    <glyph glyph-name="x" unicode="x" horiz-adv-x="520" 
d="M7 0l184 254l-153 213h143l80 -115l78 115h143l-153 -213l183 -254h-142l-110 156l-111 -156h-142z" />
    <glyph glyph-name="y" unicode="y" horiz-adv-x="511" 
d="M372 467h130l-289 -695h-129l107 264l-182 431h130l116 -291z" />
    <glyph glyph-name="z" unicode="z" horiz-adv-x="508" 
d="M56 353v114h403v-94l-245 -259h245v-114h-418v93l241 260h-226z" />
    <glyph glyph-name="braceleft" unicode="{" horiz-adv-x="407" 
d="M34 190v83q24 0 42.5 16t18.5 40v162q0 89 57 143q58 55 143 55h78v-94h-81q-38 0 -64.5 -27.5t-26.5 -68.5v-153q0 -41 -19 -72t-49 -43q30 -12 49 -43t19 -71v-147q0 -41 27 -71t64 -30h81v-96h-78q-85 0 -143 55q-57 54 -57 143v164q0 23 -18 39t-43 16z" />
    <glyph glyph-name="bar" unicode="|" horiz-adv-x="221" 
d="M76 -122v922h69v-922h-69z" />
    <glyph glyph-name="braceright" unicode="}" horiz-adv-x="407" 
d="M373 273v-83q-25 0 -43 -16t-18 -39v-164q0 -89 -58 -143q-56 -55 -142 -55h-78v96h81q37 0 64 30t27 71v147q0 40 19 71t49 43q-30 12 -49 43t-19 72v153q0 41 -26.5 68.5t-64.5 27.5h-81v94h78q86 0 142 -55q58 -54 58 -143v-162q0 -24 18 -40t43 -16z" />
    <glyph glyph-name="exclamdown" unicode="&#xa1;" horiz-adv-x="265" 
d="M185 266l19 -493h-143l19 493h105zM131 477q33 0 56.5 -21.5t23.5 -54.5t-23.5 -54.5t-56.5 -21.5q-32 0 -55 22t-23 54t23 54t55 22z" />
    <glyph glyph-name="cent" unicode="&#xa2;" horiz-adv-x="535" 
d="M248 580h69v-104q111 -9 172 -90l-97 -73q-34 46 -97 46q-52 0 -92 -35q-39 -34 -39 -89q0 -54 39 -92q39 -36 92 -36q62 0 97 47l98 -72q-63 -82 -173 -91v-113h-69v116q-88 16 -147 81q-58 64 -58 160q0 94 58 158q57 63 147 80v107z" />
    <glyph glyph-name="sterling" unicode="&#xa3;" horiz-adv-x="663" 
d="M395 344v-62h-128v-170h190q40 0 40 31v39h121v-54q0 -55 -32.5 -91.5t-83.5 -36.5h-459v112h102v170h-81v62h81v126q0 104 57 165q59 62 153 62q93 0 154 -57q62 -57 62 -163h-125q0 47 -26 70.5t-67 21.5q-37 -1 -61.5 -24.5t-24.5 -61.5v-139h128z" />
    <glyph glyph-name="currency" unicode="&#xa4;" horiz-adv-x="618" 
d="M202 169l-71 -72l-64 64l71 72q-31 46 -31 106t32 107l-72 72l64 64l72 -72q49 31 106 31q61 0 107 -31l71 72l64 -64l-71 -72q31 -52 31 -107q0 -63 -31 -106l71 -72l-64 -64l-71 72q-47 -32 -107 -32t-107 32zM217 339q0 -38 27 -65t65 -27q39 0 66 27t27 65
q0 39 -27 66t-66 27q-38 0 -65 -27t-27 -66z" />
    <glyph glyph-name="yen" unicode="&#xa5;" horiz-adv-x="723" 
d="M692 689l-260 -367h159v-67h-165v-88h165v-66h-165v-101h-131v101h-164v66h164v88h-164v67h158l-258 367h152l177 -265l179 265h153z" />
    <glyph glyph-name="brokenbar" unicode="&#xa6;" horiz-adv-x="225" 
d="M78 -122v385h69v-385h-69zM78 800h69v-385h-69v385z" />
    <glyph glyph-name="section" unicode="&#xa7;" horiz-adv-x="532" 
d="M316 213v-110q-27 -7 -48 -7q-86 0 -147 56q-60 57 -60 148v188q0 92 60 147q60 57 147 57q71 0 127 -40q58 -40 76 -114l-105 -32q-12 37 -38 56.5t-60 19.5q-40 0 -68 -26.5t-28 -67.5v-188q0 -43 28 -68t72 -25q20 0 44 6zM216 302v110q27 7 48 7q87 0 147 -57
q60 -56 60 -147v-188q0 -91 -60 -147q-60 -57 -147 -57q-70 0 -128 40q-57 41 -75 114l105 32q12 -37 38 -56.5t60 -19.5q40 0 68 26.5t28 67.5v188q0 43 -28 68t-72 25q-20 0 -44 -6z" />
    <glyph glyph-name="dieresis" unicode="&#xa8;" horiz-adv-x="551" 
d="M189 697q28 0 48 -19t20 -46t-20 -46t-48 -19q-29 0 -49 18.5t-20 46.5t20 46.5t49 18.5zM314 585q-20 19 -20 47t20 46q20 19 49 19t48 -19q20 -18 20 -46t-20 -47q-19 -18 -48 -18t-49 18z" />
    <glyph glyph-name="copyright" unicode="&#xa9;" horiz-adv-x="801" 
d="M541 222q-62 -65 -138 -65q-75 0 -128 53q-52 52 -52 128q0 75 52 127q53 53 128 53q74 0 137 -66l-46 -47q-46 46 -91 46q-47 0 -79.5 -33t-32.5 -80q0 -46 32 -81q33 -33 80 -33q45 0 93 48zM152 93q-101 104 -101 250t101 250q102 104 248 104t248 -104t102 -250
q0 -147 -102 -250t-248 -103t-248 103zM196 549q-84 -86 -84 -206q0 -121 84 -206t204 -85t204 85t84 206q0 120 -84 206t-204 86t-204 -86z" />
    <glyph glyph-name="ordfeminine" unicode="&#xaa;" horiz-adv-x="477" 
d="M398 324h-71v46q-17 -24 -46.5 -38.5t-60.5 -14.5q-69 0 -119 47q-49 48 -49 125q0 78 49 124q49 48 119 48q71 0 107 -52v45h71v-330zM327 490q0 44 -30.5 72t-71.5 28q-42 0 -70.5 -28t-28.5 -72t28.5 -73t70.5 -29q44 0 73 28t29 74zM396 203h-315v62h315v-62z" />
    <glyph glyph-name="guillemotleft" unicode="&#xab;" horiz-adv-x="499" 
d="M179 26l-138 207l138 207h98l-138 -207l138 -207h-98zM356 26l-138 207l138 207h98l-138 -207l138 -207h-98z" />
    <glyph glyph-name="logicalnot" unicode="&#xac;" horiz-adv-x="633" 
d="M70 260v108h487v-259h-109v151h-378z" />
    <glyph glyph-name="registered" unicode="&#xae;" horiz-adv-x="801" 
d="M544 165h-84l-88 122h-23v-122h-69v353h137q52 0 83 -33.5t31 -82.5q0 -40 -20 -70.5t-57 -39.5zM349 450v-95h66q21 0 34.5 14t13.5 33q0 21 -12.5 34.5t-33.5 13.5h-68zM152 93q-101 104 -101 250t101 250q102 104 248 104t248 -104t102 -250q0 -147 -102 -250
t-248 -103t-248 103zM196 549q-84 -86 -84 -206q0 -121 84 -206t204 -85t204 85t84 206q0 120 -84 206t-204 86t-204 -86z" />
    <glyph glyph-name="overscore" unicode="&#xaf;" horiz-adv-x="509" 
d="M389 585h-269v83h269v-83z" />
    <glyph glyph-name="degree" unicode="&#xb0;" horiz-adv-x="373" 
d="M47 558q0 57 41 98t98 41q58 0 99 -41t41 -98q0 -58 -41 -99t-99 -41q-57 0 -98 41t-41 99zM118 558q0 -29 20 -49t48 -20q29 0 49 20t20 49t-20 48.5t-49 19.5q-28 0 -48 -20t-20 -48z" />
    <glyph glyph-name="plusminus" unicode="&#xb1;" horiz-adv-x="546" 
d="M477 287h-156v-144h-97v144h-155v96h155v142h97v-142h156v-96zM477 94v-95h-408v95h408z" />
    <glyph glyph-name="twosuperior" unicode="&#xb2;" horiz-adv-x="317" 
d="M31 433v37l157 187q22 26 22 50q0 20 -14.5 33t-39.5 13q-23 0 -39.5 -15.5t-20.5 -41.5l-67 14q9 52 44 82.5t86 30.5q52 0 88 -33t36 -83q0 -51 -41 -98l-93 -106h128v-70h-246z" />
    <glyph glyph-name="threesuperior" unicode="&#xb3;" horiz-adv-x="320" 
d="M99 730l-28 18q-23 15 -27 19q18 27 49 42.5t67 13.5q48 -3 79.5 -34t31.5 -73q0 -49 -48 -76q30 -11 48.5 -41.5t15.5 -61.5q-5 -49 -48 -81q-45 -32 -99 -28q-39 3 -71.5 25t-48.5 55q40 19 62 32q22 -39 63 -43q25 -1 44 13.5t21 35.5q1 24 -14 41.5t-46 16.5h-42v63
h42q23 0 35 16.5t9 33.5q-1 16 -13.5 27.5t-30.5 11.5q-31 1 -51 -26z" />
    <glyph glyph-name="acute" unicode="&#xb4;" horiz-adv-x="539" 
d="M129 544l105 163h128l-138 -163h-95z" />
    <glyph glyph-name="mu" unicode="&#xb5;" 
d="M190 -178h-114v645h122v-256q0 -49 24.5 -75.5t61.5 -26.5q45 0 73 27.5t28 81.5v249h122v-467h-122v62q-18 -33 -53 -52.5t-72 -19.5q-48 0 -79 28l9 -126v-70z" />
    <glyph glyph-name="paragraph" unicode="&#xb6;" horiz-adv-x="692" 
d="M251 689h86v-702q0 -29 -6 -35q-7 -6 -24 -6h-66v309q-85 4 -147 68q-60 63 -60 149q0 90 63 153q63 64 154 64zM521 594h-29v-653q0 -52 -42 -94q-40 -41 -95 -43h-28h-87v86h109q20 0 34.5 13.5t14.5 32.5v753h121q55 0 96 -41t41 -96v-85h-90v79q0 20 -13 34t-32 14z
" />
    <glyph glyph-name="middot" unicode="&#xb7;" horiz-adv-x="278" 
d="M138 389q33 0 56.5 -21.5t23.5 -54.5t-23.5 -54.5t-56.5 -21.5q-32 0 -55 22t-23 54t23 54t55 22z" />
    <glyph glyph-name="cedilla" unicode="&#xb8;" horiz-adv-x="528" 
d="M237 -122q12 -28 43 -20q28 10 17 46l-46 125h59l51 -94q9 -17 9 -46q0 -42 -30.5 -72t-74.5 -30q-43 0 -73 33.5t-29 86.5l69 -4q0 -12 5 -25z" />
    <glyph glyph-name="onesuperior" unicode="&#xb9;" horiz-adv-x="212" 
d="M161 433h-73v284l-66 -30v65l139 70v-389z" />
    <glyph glyph-name="ordmasculine" unicode="&#xba;" horiz-adv-x="464" 
d="M229 317q-73 0 -123 48t-50 126q0 75 50 122q51 48 123 48q73 0 122 -48q51 -47 51 -122q0 -77 -51 -126q-49 -48 -122 -48zM330 491q0 44 -29 71.5t-72 27.5t-72 -27.5t-29 -71.5q0 -45 29 -74t72 -29t72 29t29 74zM394 203h-320v62h320v-62z" />
    <glyph glyph-name="guillemotright" unicode="&#xbb;" horiz-adv-x="499" 
d="M143 440l138 -207l-138 -207h-98l138 207l-138 207h98zM320 440l138 -207l-138 -207h-98l138 207l-138 207h98z" />
    <glyph glyph-name="onequarter" unicode="&#xbc;" horiz-adv-x="777" 
d="M740 83h-51v-83h-73v83h-190l193 302h70v-238h51v-64zM616 277l-82 -130h82v130zM556 669h76l-450 -679h-78zM178 270h-73v284l-66 -30v66l139 69v-389z" />
    <glyph glyph-name="onehalf" unicode="&#xbd;" horiz-adv-x="792" 
d="M495 0v38l157 187q22 26 22 50q0 20 -15 33t-39 13q-23 0 -39.5 -15.5t-20.5 -41.5l-67 13q9 53 44 83.5t86 30.5q52 0 88 -33t36 -83q0 -51 -41 -98l-93 -107h128v-70h-246zM556 669h76l-450 -679h-78zM178 270h-73v284l-66 -30v66l139 69v-389z" />
    <glyph glyph-name="threequarters" unicode="&#xbe;" horiz-adv-x="853" 
d="M115 567l-55 38q18 27 49 42.5t67 13.5q48 -3 79.5 -34t31.5 -73q0 -49 -48 -76q30 -11 48.5 -41.5t15.5 -62.5q-5 -50 -48 -81q-45 -32 -99 -28q-39 3 -71.5 25t-48.5 56l62 32q22 -43 63 -43q25 -1 44 13.5t21 34.5q1 24 -14 42t-46 17h-42v63h42q23 0 35 16.5t9 33.5
q-1 16 -13.5 27.5t-30.5 11.5q-33 2 -51 -27zM816 83h-51v-83h-73v83h-190l193 302h70v-238h51v-64zM692 277l-82 -130h82v130zM632 669h76l-450 -679h-78z" />
    <glyph glyph-name="questiondown" unicode="&#xbf;" horiz-adv-x="482" 
d="M229 231l2 36h119l2 -36q0 -65 -24 -113q-9 -16 -35 -36q-25 -18 -42 -27l-58 -29q-38 -17 -38 -65q0 -31 25.5 -51.5t61.5 -20.5q37 0 61 24t24 63h121q0 -95 -58 -152q-57 -57 -148 -57q-92 0 -150 54q-59 53 -59 141q0 68 38 119t100 70q31 10 44.5 27.5t13.5 52.5z
M368 400q0 -32 -23 -54t-56 -22t-56 22t-23 54q0 33 23 55t56 22t56 -22t23 -55z" />
    <glyph glyph-name="Agrave" unicode="&#xc0;" horiz-adv-x="654" 
d="M654 0h-135l-63 167h-257l-63 -167h-136l258 689h138zM414 279l-87 263l-85 -263h172zM289 766l-138 163h128l105 -163h-95z" />
    <glyph glyph-name="Aacute" unicode="&#xc1;" horiz-adv-x="654" 
d="M456 167h-257l-63 -167h-136l258 689h138l258 -689h-135zM242 279h172l-87 263zM267 766l105 163h128l-138 -163h-95z" />
    <glyph glyph-name="Acircumflex" unicode="&#xc2;" horiz-adv-x="654" 
d="M654 0h-135l-63 167h-257l-63 -167h-136l258 689h138zM414 279l-87 263l-85 -263h172zM156 769l109 163h123l110 -163h-94l-78 88l-76 -88h-94z" />
    <glyph glyph-name="Atilde" unicode="&#xc3;" horiz-adv-x="654" 
d="M654 0h-135l-63 167h-257l-63 -167h-136l258 689h138zM414 279l-87 263l-85 -263h172zM282 829q-9 0 -17 -11.5t-9 -31.5h-70q3 62 30 93.5t66 31.5q24 0 51 -21q28 -20 37 -20t17.5 11t9.5 30h70q-3 -60 -31 -91.5t-66 -31.5q-22 0 -51 20q-29 21 -37 21z" />
    <glyph glyph-name="Adieresis" unicode="&#xc4;" horiz-adv-x="654" 
d="M456 167h-257l-63 -167h-136l258 689h138l258 -689h-135zM242 279h172l-87 263zM240 919q28 0 48 -19t20 -46t-20 -46t-48 -19q-29 0 -49 18.5t-20 46.5t20 46.5t49 18.5zM365 807q-20 19 -20 47t20 46q20 19 49 19t48 -19q20 -18 20 -46t-20 -47q-19 -18 -48 -18t-49 18
z" />
    <glyph glyph-name="Aring" unicode="&#xc5;" horiz-adv-x="654" 
d="M456 167h-257l-63 -167h-136l258 689h138l258 -689h-135zM242 279h172l-87 263zM211 876q0 48 33 83q34 34 81 34q49 0 83 -34q34 -33 34 -83q0 -48 -34 -81t-83 -33q-47 0 -81 33q-33 33 -33 81zM268 876q0 -24 17 -40.5t40 -16.5q25 0 42 16.5t17 40.5q0 25 -17 42
t-42 17q-23 0 -40 -17t-17 -42z" />
    <glyph glyph-name="AE" unicode="&#xc6;" horiz-adv-x="933" 
d="M-14 0l435 689h452v-116h-298v-177h261v-114h-261v-166h308v-116h-435v1l-1 -1v163h-205l-104 -163h-152zM447 286v230l-132 -230h132z" />
    <glyph glyph-name="Ccedilla" unicode="&#xc7;" horiz-adv-x="694" 
d="M327 -122q12 -28 43 -20q28 10 17 46l-33 88q-132 13 -221 114q-88 100 -88 237q0 148 100 251t247 103q85 0 158 -36t119 -100l-102 -73q-67 88 -175 88q-93 0 -156 -68t-63 -165t63 -165q63 -67 156 -67q53 0 100.5 25t78.5 68l101 -74q-42 -60 -108 -96.5t-144 -42.5
l31 -56q9 -17 9 -46q0 -41 -31 -71q-31 -31 -74 -31t-73 33.5t-29 86.5l69 -4q0 -12 5 -25z" />
    <glyph glyph-name="Egrave" unicode="&#xc8;" horiz-adv-x="572" 
d="M522 0h-436v689h426v-114h-299v-179h262v-113h-262v-169h309v-114zM290 766l-138 163h128l105 -163h-95z" />
    <glyph glyph-name="Eacute" unicode="&#xc9;" horiz-adv-x="572" 
d="M86 689h426v-114h-299v-179h262v-113h-262v-169h309v-114h-436v689zM191 766l105 163h128l-138 -163h-95z" />
    <glyph glyph-name="Ecircumflex" unicode="&#xca;" horiz-adv-x="572" 
d="M522 0h-436v689h426v-114h-299v-179h262v-113h-262v-169h309v-114zM113 769l109 163h123l110 -163h-94l-78 88l-76 -88h-94z" />
    <glyph glyph-name="Edieresis" unicode="&#xcb;" horiz-adv-x="572" 
d="M86 689h426v-114h-299v-179h262v-113h-262v-169h309v-114h-436v689zM211 919q28 0 48 -19t20 -46t-20 -46t-48 -19q-29 0 -49 18.5t-20 46.5t20 46.5t49 18.5zM336 807q-20 19 -20 47t20 46q20 19 49 19t48 -19q20 -18 20 -46t-20 -47q-19 -18 -48 -18t-49 18z" />
    <glyph glyph-name="Igrave" unicode="&#xcc;" horiz-adv-x="299" 
d="M117 766l-138 163h128l105 -163h-95zM213 0h-127v689h127v-689z" />
    <glyph glyph-name="Iacute" unicode="&#xcd;" horiz-adv-x="299" 
d="M86 689h127v-689h-127v689zM87 766l105 163h128l-138 -163h-95z" />
    <glyph glyph-name="Icircumflex" unicode="&#xce;" horiz-adv-x="299" 
d="M-21 769l109 163h123l110 -163h-94l-78 88l-76 -88h-94zM213 0h-127v689h127v-689z" />
    <glyph glyph-name="Idieresis" unicode="&#xcf;" horiz-adv-x="299" 
d="M86 689h127v-689h-127v689zM63 919q28 0 48 -19t20 -46t-20 -46t-48 -19q-29 0 -49 18.5t-20 46.5t20 46.5t49 18.5zM188 807q-20 19 -20 47t20 46q20 19 49 19t48 -19q20 -18 20 -46t-20 -47q-19 -18 -48 -18t-49 18z" />
    <glyph glyph-name="Eth" unicode="&#xd0;" horiz-adv-x="722" 
d="M97 293h-94v88h94v308h267q145 0 227 -97q83 -98 83 -249q0 -150 -83 -247q-83 -96 -227 -96h-267v293zM362 293h-138v-174h140q88 0 135 63q48 63 48 161q0 97 -48 162q-47 65 -135 65h-140v-189h138v-88z" />
    <glyph glyph-name="Ntilde" unicode="&#xd1;" horiz-adv-x="682" 
d="M468 689h128v-689h-117l-266 453v-453h-127v689h119l263 -448v448zM296 829q-9 0 -17 -11.5t-9 -31.5h-70q3 62 30 93.5t66 31.5q24 0 51 -21q28 -20 37 -20t17.5 11t9.5 30h70q-3 -60 -31 -91.5t-66 -31.5q-22 0 -51 20q-29 21 -37 21z" />
    <glyph glyph-name="Ograve" unicode="&#xd2;" horiz-adv-x="787" 
d="M235 504q-64 -65 -64 -161t64 -161q65 -66 158 -66t157 66q65 67 65 161t-65 161q-64 67 -157 67q-94 0 -158 -67zM44 343q0 146 101 250t248 104t248 -104q102 -104 102 -250q0 -147 -102 -250t-248 -103t-248 103q-101 104 -101 250zM346 766l-138 163h128l105 -163
h-95z" />
    <glyph glyph-name="Oacute" unicode="&#xd3;" horiz-adv-x="787" 
d="M235 182q65 -66 158 -66t157 66q65 67 65 161t-65 161q-64 67 -157 67q-94 0 -158 -67q-64 -65 -64 -161t64 -161zM44 343q0 146 101 250t248 104t248 -104q102 -104 102 -250q0 -147 -102 -250t-248 -103t-248 103q-101 104 -101 250zM339 766l105 163h128l-138 -163
h-95z" />
    <glyph glyph-name="Ocircumflex" unicode="&#xd4;" horiz-adv-x="787" 
d="M235 504q-64 -65 -64 -161t64 -161q65 -66 158 -66t157 66q65 67 65 161t-65 161q-64 67 -157 67q-94 0 -158 -67zM44 343q0 146 101 250t248 104t248 -104q102 -104 102 -250q0 -147 -102 -250t-248 -103t-248 103q-101 104 -101 250zM222 769l109 163h123l110 -163h-94
l-78 88l-76 -88h-94z" />
    <glyph glyph-name="Otilde" unicode="&#xd5;" horiz-adv-x="787" 
d="M349 829q-9 0 -17 -11.5t-9 -31.5h-70q3 62 30 93.5t66 31.5q24 0 51 -21q28 -20 37 -20t17.5 11t9.5 30h70q-3 -60 -31 -91.5t-66 -31.5q-22 0 -51 20q-29 21 -37 21zM235 504q-64 -65 -64 -161t64 -161q65 -66 158 -66t157 66q65 67 65 161t-65 161q-64 67 -157 67
q-94 0 -158 -67zM44 343q0 146 101 250t248 104t248 -104q102 -104 102 -250q0 -147 -102 -250t-248 -103t-248 103q-101 104 -101 250z" />
    <glyph glyph-name="Odieresis" unicode="&#xd6;" horiz-adv-x="787" 
d="M235 182q65 -66 158 -66t157 66q65 67 65 161t-65 161q-64 67 -157 67q-94 0 -158 -67q-64 -65 -64 -161t64 -161zM44 343q0 146 101 250t248 104t248 -104q102 -104 102 -250q0 -147 -102 -250t-248 -103t-248 103q-101 104 -101 250zM307 919q28 0 48 -19t20 -46
t-20 -46t-48 -19q-29 0 -49 18.5t-20 46.5t20 46.5t49 18.5zM432 807q-20 19 -20 47t20 46q20 19 49 19t48 -19q20 -18 20 -46t-20 -47q-19 -18 -48 -18t-49 18z" />
    <glyph glyph-name="multiply" unicode="&#xd7;" horiz-adv-x="492" 
d="M434 383l-120 -119l120 -119l-68 -69l-120 119l-118 -117l-68 68l118 118l-119 119l68 67l119 -118l120 120z" />
    <glyph glyph-name="Oslash" unicode="&#xd8;" horiz-adv-x="785" 
d="M173 66l-80 -82l-47 47l80 82q-83 100 -83 230q0 146 101 250t248 104q128 0 223 -81l79 81l47 -46l-80 -82q81 -99 81 -226q0 -147 -102 -250t-248 -103q-113 0 -202 65q-4 1 -17 11zM170 343q0 -76 45 -139l311 321q-56 46 -134 46q-94 0 -158 -67q-64 -65 -64 -161z
M392 116q92 0 157 66q65 67 65 161q0 73 -43 134l-309 -319q55 -42 130 -42z" />
    <glyph glyph-name="Ugrave" unicode="&#xd9;" horiz-adv-x="681" 
d="M474 243v446h128v-446q0 -112 -77 -183q-76 -70 -184 -70q-110 0 -186 70t-76 183v446h130v-446q0 -57 39 -95q38 -37 93 -37t93 37q40 37 40 95zM321 766l-138 163h128l105 -163h-95z" />
    <glyph glyph-name="Uacute" unicode="&#xda;" horiz-adv-x="681" 
d="M474 243v446h128v-446q0 -112 -77 -183q-76 -70 -184 -70q-110 0 -186 70t-76 183v446h130v-446q0 -57 39 -95q38 -37 93 -37t93 37q40 37 40 95zM256 766l105 163h128l-138 -163h-95z" />
    <glyph glyph-name="Ucircumflex" unicode="&#xdb;" horiz-adv-x="681" 
d="M474 243v446h128v-446q0 -112 -77 -183q-76 -70 -184 -70q-110 0 -186 70t-76 183v446h130v-446q0 -57 39 -95q38 -37 93 -37t93 37q40 37 40 95zM169 769l109 163h123l110 -163h-94l-78 88l-76 -88h-94z" />
    <glyph glyph-name="Udieresis" unicode="&#xdc;" horiz-adv-x="681" 
d="M474 243v446h128v-446q0 -112 -77 -183q-76 -70 -184 -70q-110 0 -186 70t-76 183v446h130v-446q0 -57 39 -95q38 -37 93 -37t93 37q40 37 40 95zM254 919q28 0 48 -19t20 -46t-20 -46t-48 -19q-29 0 -49 18.5t-20 46.5t20 46.5t49 18.5zM379 807q-20 19 -20 47t20 46
q20 19 49 19t48 -19q20 -18 20 -46t-20 -47q-19 -18 -48 -18t-49 18z" />
    <glyph glyph-name="Yacute" unicode="&#xdd;" horiz-adv-x="644" 
d="M387 312v-312h-131v314l-264 375h152l177 -265l179 265h153zM248 766l105 163h128l-138 -163h-95z" />
    <glyph glyph-name="Thorn" unicode="&#xde;" horiz-adv-x="573" 
d="M418 351q0 49 -28.5 79t-71.5 32h-105v-220h108q41 0 69 30.5t28 78.5zM326 130h-113v-130h-127v689h127v-116h113q94 0 155 -61q63 -60 63 -159t-63 -161q-62 -62 -155 -62z" />
    <glyph glyph-name="germandbls" unicode="&#xdf;" 
d="M223 2l18 115q34 -8 59 -8q48 0 80 34t32 81q0 43 -31 78q-30 37 -85 37h-31v104h24q30 0 48.5 21t18.5 52q0 30 -22.5 49.5t-58.5 19.5q-42 0 -64 -27.5t-22 -96.5v-461h-120v490q0 96 56 152q55 55 145 55t146 -49q57 -48 57 -119q0 -80 -63 -122q53 -25 85 -75.5
t32 -113.5q0 -100 -61 -164q-60 -64 -165 -64q-37 0 -78 12z" />
    <glyph glyph-name="agrave" unicode="&#xe0;" horiz-adv-x="614" 
d="M545 0h-122v60q-20 -32 -62 -50.5t-83 -18.5q-97 0 -167 67q-71 68 -71 176t70 175q71 68 168 68q42 0 82.5 -17.5t62.5 -50.5v58h122v-467zM423 234q0 58 -39 92q-37 34 -89 34t-91 -36q-38 -35 -38 -90t38 -91q27 -27 66 -33t73 6.5t58 44t22 73.5zM292 544l-138 163
h128l105 -163h-95z" />
    <glyph glyph-name="aacute" unicode="&#xe1;" horiz-adv-x="614" 
d="M545 0h-122v60q-20 -32 -62 -50.5t-83 -18.5q-97 0 -167 67q-71 68 -71 176t70 175q71 68 168 68q42 0 82.5 -17.5t62.5 -50.5v58h122v-467zM423 234q0 58 -39 92q-37 34 -89 34t-91 -36q-38 -35 -38 -90t38 -91q27 -27 66 -33t73 6.5t58 44t22 73.5zM219 544l105 163
h128l-138 -163h-95z" />
    <glyph glyph-name="acircumflex" unicode="&#xe2;" horiz-adv-x="614" 
d="M545 0h-122v60q-20 -32 -62 -50.5t-83 -18.5q-97 0 -167 67q-71 68 -71 176t70 175q71 68 168 68q42 0 82.5 -17.5t62.5 -50.5v58h122v-467zM423 234q0 58 -39 92q-37 34 -89 34t-91 -36q-38 -35 -38 -90t38 -91q27 -27 66 -33t73 6.5t58 44t22 73.5zM136 547l109 163
h123l110 -163h-94l-78 88l-76 -88h-94z" />
    <glyph glyph-name="atilde" unicode="&#xe3;" horiz-adv-x="614" 
d="M545 0h-122v60q-20 -32 -62 -50.5t-83 -18.5q-97 0 -167 67q-71 68 -71 176t70 175q71 68 168 68q42 0 82.5 -17.5t62.5 -50.5v58h122v-467zM423 234q0 58 -39 92q-37 34 -89 34t-91 -36q-38 -35 -38 -90t38 -91q27 -27 66 -33t73 6.5t58 44t22 73.5zM263 607
q-9 0 -17 -11.5t-9 -31.5h-70q3 62 30 93.5t66 31.5q24 0 51 -21q28 -20 37 -20t17.5 11t9.5 30h70q-3 -60 -31 -91.5t-66 -31.5q-22 0 -51 20q-29 21 -37 21z" />
    <glyph glyph-name="adieresis" unicode="&#xe4;" horiz-adv-x="614" 
d="M545 0h-122v60q-20 -32 -62 -50.5t-83 -18.5q-97 0 -167 67q-71 68 -71 176t70 175q71 68 168 68q42 0 82.5 -17.5t62.5 -50.5v58h122v-467zM423 234q0 58 -39 92q-37 34 -89 34t-91 -36q-38 -35 -38 -90t38 -91q27 -27 66 -33t73 6.5t58 44t22 73.5zM221 697
q28 0 48 -19t20 -46t-20 -46t-48 -19q-29 0 -49 18.5t-20 46.5t20 46.5t49 18.5zM346 585q-20 19 -20 47t20 46q20 19 49 19t48 -19q20 -18 20 -46t-20 -47q-19 -18 -48 -18t-49 18z" />
    <glyph glyph-name="aring" unicode="&#xe5;" horiz-adv-x="614" 
d="M545 0h-122v60q-20 -32 -62 -50.5t-83 -18.5q-97 0 -167 67q-71 68 -71 176t70 175q71 68 168 68q42 0 82.5 -17.5t62.5 -50.5v58h122v-467zM423 234q0 58 -39 92q-37 34 -89 34t-91 -36q-38 -35 -38 -90t38 -91q27 -27 66 -33t73 6.5t58 44t22 73.5zM192 654q0 48 33 83
q34 34 81 34q50 0 83.5 -33.5t33.5 -83.5q0 -48 -34 -81t-83 -33q-46 0 -81 33q-33 33 -33 81zM249 654q0 -24 17 -40.5t40 -16.5q25 0 42 16.5t17 40.5q0 25 -17 42t-42 17q-23 0 -40 -17t-17 -42z" />
    <glyph glyph-name="ae" unicode="&#xe6;" horiz-adv-x="993" 
d="M599 276h240q-6 46 -38 72.5t-79 26.5q-50 0 -83 -26t-40 -73zM423 234q0 58 -39 92q-37 34 -89 34t-91 -36q-38 -35 -38 -90t38 -91q27 -27 66 -33t73 6.5t58 44t22 73.5zM958 235q0 -12 -2 -42h-356q7 -46 42 -73t87 -27q38 0 70 16t47 44l94 -50q-30 -55 -88 -84
t-130 -29q-120 0 -186 87v-77h-113v60q-20 -32 -62 -50.5t-83 -18.5q-97 0 -167 67q-71 68 -71 176t70 175q71 68 168 68q42 0 82.5 -17.5t62.5 -50.5v58h113v-75q66 85 186 85q102 0 169 -67t67 -175z" />
    <glyph glyph-name="ccedilla" unicode="&#xe7;" horiz-adv-x="522" 
d="M320 -8l31 -57q9 -17 9 -46q0 -41 -31 -71q-31 -31 -74 -31t-73 33.5t-29 86.5l69 -4q0 -12 5 -25q12 -28 43 -20q28 10 17 46l-33 89q-92 12 -153 78q-61 67 -61 164q0 106 74 174t178 68q59 0 110 -24t84 -67l-97 -73q-34 46 -97 46q-52 0 -92 -35q-39 -34 -39 -89
q0 -54 39 -92q39 -36 92 -36q62 0 97 47l98 -72q-60 -79 -167 -90z" />
    <glyph glyph-name="egrave" unicode="&#xe8;" horiz-adv-x="553" 
d="M519 235q0 -12 -2 -42h-356q6 -45 41.5 -72.5t87.5 -27.5q38 0 70 16t47 44l93 -50q-29 -55 -87.5 -84t-130.5 -29q-101 0 -172 68q-70 69 -70 177t70 175t172 67t169 -67q68 -68 68 -175zM160 276h240q-7 46 -38.5 72.5t-78.5 26.5q-49 0 -82.5 -27t-40.5 -72zM250 544
l-138 163h128l105 -163h-95z" />
    <glyph glyph-name="eacute" unicode="&#xe9;" horiz-adv-x="553" 
d="M519 235q0 -12 -2 -42h-356q6 -45 41.5 -72.5t87.5 -27.5q38 0 70 16t47 44l93 -50q-29 -55 -87.5 -84t-130.5 -29q-101 0 -172 68q-70 69 -70 177t70 175t172 67t169 -67q68 -68 68 -175zM160 276h240q-7 46 -38.5 72.5t-78.5 26.5q-49 0 -82.5 -27t-40.5 -72zM227 544
l105 163h128l-138 -163h-95z" />
    <glyph glyph-name="ecircumflex" unicode="&#xea;" horiz-adv-x="553" 
d="M519 235q0 -12 -2 -42h-356q6 -45 41.5 -72.5t87.5 -27.5q38 0 70 16t47 44l93 -50q-29 -55 -87.5 -84t-130.5 -29q-101 0 -172 68q-70 69 -70 177t70 175t172 67t169 -67q68 -68 68 -175zM160 276h240q-7 46 -38.5 72.5t-78.5 26.5q-49 0 -82.5 -27t-40.5 -72zM108 547
l109 163h123l110 -163h-94l-78 88l-76 -88h-94z" />
    <glyph glyph-name="edieresis" unicode="&#xeb;" horiz-adv-x="553" 
d="M519 235q0 -12 -2 -42h-356q6 -45 41.5 -72.5t87.5 -27.5q38 0 70 16t47 44l93 -50q-29 -55 -87.5 -84t-130.5 -29q-101 0 -172 68q-70 69 -70 177t70 175t172 67t169 -67q68 -68 68 -175zM160 276h240q-7 46 -38.5 72.5t-78.5 26.5q-49 0 -82.5 -27t-40.5 -72zM193 697
q28 0 48 -19t20 -46t-20 -46t-48 -19q-29 0 -49 18.5t-20 46.5t20 46.5t49 18.5zM318 585q-20 19 -20 47t20 46q20 19 49 19t48 -19q20 -18 20 -46t-20 -47q-19 -18 -48 -18t-49 18z" />
    <glyph glyph-name="igrave" unicode="&#xec;" horiz-adv-x="259" 
d="M92 544l-138 163h128l105 -163h-95zM69 0v467h121v-467h-121z" />
    <glyph glyph-name="iacute" unicode="&#xed;" horiz-adv-x="259" 
d="M190 467v-467h-121v467h121zM68 544l105 163h128l-138 -163h-95z" />
    <glyph glyph-name="icircumflex" unicode="&#xee;" horiz-adv-x="259" 
d="M-41 547l109 163h123l110 -163h-94l-78 88l-76 -88h-94zM69 0v467h121v-467h-121z" />
    <glyph glyph-name="idieresis" unicode="&#xef;" horiz-adv-x="259" 
d="M190 467v-467h-121v467h121zM43 697q28 0 48 -19t20 -46t-20 -46t-48 -19q-29 0 -49 18.5t-20 46.5t20 46.5t49 18.5zM168 585q-20 19 -20 47t20 46q20 19 49 19t48 -19q20 -18 20 -46t-20 -47q-19 -18 -48 -18t-49 18z" />
    <glyph glyph-name="eth" unicode="&#xf0;" 
d="M402 629l-79 -41l157 -209q46 -62 46 -145q0 -108 -71 -176t-172 -68q-102 0 -173 68q-70 67 -70 176q0 99 61 163q62 65 151 72q20 2 44 -3l-63 76l-85 -43l-30 48l80 41l-75 101h123l42 -56l79 39zM407 234q0 54 -35.5 88t-88.5 34t-88 -34t-35 -88q0 -55 35 -90
t88 -35t88.5 35t35.5 90z" />
    <glyph glyph-name="ntilde" unicode="&#xf1;" 
d="M191 249v-249h-122v467h122v-69q18 36 57 57.5t82 21.5q84 0 129 -51.5t45 -149.5v-276h-122v254q0 50 -23.5 77t-65.5 27q-47 0 -74.5 -27t-27.5 -82zM239 607q-9 0 -17 -11.5t-9 -31.5h-70q3 62 30 93.5t66 31.5q24 0 51 -21q28 -20 37 -20t17.5 11t9.5 30h70
q-3 -60 -31 -91.5t-66 -31.5q-22 0 -51 20q-29 21 -37 21z" />
    <glyph glyph-name="ograve" unicode="&#xf2;" horiz-adv-x="566" 
d="M405 235q0 53 -35 87.5t-87 34.5t-87 -34.5t-35 -87.5q0 -55 34.5 -90t87.5 -35t87.5 35t34.5 90zM455 59q-71 -68 -172 -68q-102 0 -173 68q-70 67 -70 176q0 108 70 175t173 67q102 0 172 -67q71 -68 71 -175q0 -108 -71 -176zM253 544l-138 163h128l105 -163h-95z" />
    <glyph glyph-name="oacute" unicode="&#xf3;" horiz-adv-x="566" 
d="M161 235q0 -55 34.5 -90t87.5 -35t87.5 35t34.5 90q0 53 -35 87.5t-87 34.5t-87 -34.5t-35 -87.5zM110 59q-70 67 -70 176q0 108 70 175t173 67q102 0 172 -67q71 -68 71 -175q0 -108 -71 -176t-172 -68q-102 0 -173 68zM219 544l105 163h128l-138 -163h-95z" />
    <glyph glyph-name="ocircumflex" unicode="&#xf4;" horiz-adv-x="566" 
d="M405 235q0 53 -35 87.5t-87 34.5t-87 -34.5t-35 -87.5q0 -55 34.5 -90t87.5 -35t87.5 35t34.5 90zM455 59q-71 -68 -172 -68q-102 0 -173 68q-70 67 -70 176q0 108 70 175t173 67q102 0 172 -67q71 -68 71 -175q0 -108 -71 -176zM112 547l109 163h123l110 -163h-94
l-78 88l-76 -88h-94z" />
    <glyph glyph-name="otilde" unicode="&#xf5;" horiz-adv-x="566" 
d="M405 235q0 53 -35 87.5t-87 34.5t-87 -34.5t-35 -87.5q0 -55 34.5 -90t87.5 -35t87.5 35t34.5 90zM455 59q-71 -68 -172 -68q-102 0 -173 68q-70 67 -70 176q0 108 70 175t173 67q102 0 172 -67q71 -68 71 -175q0 -108 -71 -176zM238 607q-9 0 -17 -11.5t-9 -31.5h-70
q3 62 30 93.5t66 31.5q24 0 51 -21q28 -20 37 -20t17.5 11t9.5 30h70q-3 -60 -31 -91.5t-66 -31.5q-22 0 -51 20q-28 21 -37 21z" />
    <glyph glyph-name="odieresis" unicode="&#xf6;" horiz-adv-x="566" 
d="M161 235q0 -55 34.5 -90t87.5 -35t87.5 35t34.5 90q0 53 -35 87.5t-87 34.5t-87 -34.5t-35 -87.5zM110 59q-70 67 -70 176q0 108 70 175t173 67q102 0 172 -67q71 -68 71 -175q0 -108 -71 -176t-172 -68q-102 0 -173 68zM196 697q28 0 48 -19t20 -46t-20 -46t-48 -19
q-29 0 -49 18.5t-20 46.5t20 46.5t49 18.5zM321 585q-20 19 -20 47t20 46q20 19 49 19t48 -19q20 -18 20 -46t-20 -47q-19 -18 -48 -18t-49 18z" />
    <glyph glyph-name="divide" unicode="&#xf7;" 
d="M232 15q-22 21 -22 51t22 50q22 21 52 21t52 -21q22 -20 22 -50t-22 -51q-22 -20 -52 -20t-52 20zM210 432q0 30 21.5 50t52.5 20t52.5 -20t21.5 -50t-21.5 -50.5t-52.5 -20.5t-52.5 20.5t-21.5 50.5zM56 202v91h455v-91h-455z" />
    <glyph glyph-name="oslash" unicode="&#xf8;" horiz-adv-x="566" 
d="M283 -10q-81 0 -142 43l-58 -59l-47 47l56 58q-52 62 -52 155q0 108 70 175q71 68 173 68q85 0 150 -49l51 53l47 -46l-52 -53q47 -64 47 -148q0 -108 -71 -176t-172 -68zM283 357q-52 0 -87 -35t-35 -88q0 -39 17 -67l168 173q-29 17 -63 17zM283 109q53 0 87.5 34.5
t34.5 90.5q0 33 -13 58l-165 -170q25 -13 56 -13z" />
    <glyph glyph-name="ugrave" unicode="&#xf9;" 
d="M272 544l-137 163h127l106 -163h-96zM376 218v249h122v-467h-122v66q-18 -35 -54.5 -55.5t-74.5 -20.5q-86 0 -135 52.5t-49 148.5v276h123v-254q0 -51 25 -77.5t64 -26.5q45 0 73 27.5t28 81.5z" />
    <glyph glyph-name="uacute" unicode="&#xfa;" 
d="M206 544l106 163h128l-138 -163h-96zM376 218v249h122v-467h-122v66q-18 -35 -54.5 -55.5t-74.5 -20.5q-86 0 -135 52.5t-49 148.5v276h123v-254q0 -51 25 -77.5t64 -26.5q45 0 73 27.5t28 81.5z" />
    <glyph glyph-name="ucircumflex" unicode="&#xfb;" 
d="M376 218v249h122v-467h-122v66q-18 -35 -54.5 -55.5t-74.5 -20.5q-86 0 -135 52.5t-49 148.5v276h123v-254q0 -51 25 -77.5t64 -26.5q45 0 73 27.5t28 81.5zM107 547l109 163h123l110 -163h-94l-78 88l-76 -88h-94z" />
    <glyph glyph-name="udieresis" unicode="&#xfc;" 
d="M194 700q28 0 47.5 -18.5t19.5 -46.5t-19.5 -46.5t-47.5 -18.5q-29 0 -49 18.5t-20 46.5t20 46.5t49 18.5zM368 700q28 0 48 -19t20 -46t-20 -46t-48 -19q-29 0 -49 18.5t-20 46.5t20 46.5t49 18.5zM376 218v249h122v-467h-122v66q-18 -35 -54.5 -55.5t-74.5 -20.5
q-86 0 -135 52.5t-49 148.5v276h123v-254q0 -51 25 -77.5t64 -26.5q45 0 73 27.5t28 81.5z" />
    <glyph glyph-name="yacute" unicode="&#xfd;" horiz-adv-x="511" 
d="M213 -228h-129l107 264l-182 431h130l116 -291l117 291h130zM168 544l105 163h128l-138 -163h-95z" />
    <glyph glyph-name="thorn" unicode="&#xfe;" horiz-adv-x="603" 
d="M192 235q0 -57 35.5 -92.5t88.5 -35.5q52 0 87 36t35 92q0 54 -35 89.5t-87 35.5q-50 0 -87 -34t-37 -91zM190 58v-285h-121v948h121v-311q20 31 59 49t84 18q95 0 163 -68q67 -67 67 -176t-67 -176t-163 -67q-45 0 -84 18t-59 50z" />
    <glyph glyph-name="ydieresis" unicode="&#xff;" horiz-adv-x="511" 
d="M213 -228h-129l107 264l-182 431h130l116 -291l117 291h130zM172 697q28 0 48 -19t20 -46t-20 -46t-48 -19q-29 0 -49 18.5t-20 46.5t20 46.5t49 18.5zM297 585q-20 19 -20 47t20 46q20 19 49 19t48 -19q20 -18 20 -46t-20 -47q-19 -18 -48 -18t-49 18z" />
    <glyph glyph-name="Amacron" unicode="&#x100;" horiz-adv-x="654" 
d="M654 0h-135l-63 167h-257l-63 -167h-136l258 689h138zM414 279l-87 263l-85 -263h172zM461 807h-269v83h269v-83z" />
    <glyph glyph-name="amacron" unicode="&#x101;" horiz-adv-x="614" 
d="M545 0h-122v60q-20 -32 -62 -50.5t-83 -18.5q-97 0 -167 67q-71 68 -71 176t70 175q71 68 168 68q42 0 82.5 -17.5t62.5 -50.5v58h122v-467zM423 234q0 58 -39 92q-37 34 -89 34t-91 -36q-38 -35 -38 -90t38 -91q27 -27 66 -33t73 6.5t58 44t22 73.5zM442 585h-269v83
h269v-83z" />
    <glyph glyph-name="Abreve" unicode="&#x102;" horiz-adv-x="654" 
d="M456 167h-257l-63 -167h-136l258 689h138l258 -689h-135zM242 279h172l-87 263zM193 909h82q0 -55 51 -55q24 0 37.5 15.5t13.5 39.5h83q0 -59 -37 -94.5t-97 -35.5q-63 0 -98 37t-35 93z" />
    <glyph glyph-name="abreve" unicode="&#x103;" horiz-adv-x="614" 
d="M545 0h-122v60q-20 -32 -62 -50.5t-83 -18.5q-97 0 -167 67q-71 68 -71 176t70 175q71 68 168 68q42 0 82.5 -17.5t62.5 -50.5v58h122v-467zM423 234q0 58 -39 92q-37 34 -89 34t-91 -36q-38 -35 -38 -90t38 -91q27 -27 66 -33t73 6.5t58 44t22 73.5zM174 687h82
q0 -55 51 -55q24 0 37.5 15.5t13.5 39.5h83q0 -59 -37 -94.5t-97 -35.5q-63 0 -98 37t-35 93z" />
    <glyph glyph-name="Aogonek" unicode="&#x104;" horiz-adv-x="654" 
d="M483 -65l35 65l-62 167h-257l-63 -167h-136l258 689h138l258 -689h-72l-35 -96q-11 -36 17 -46q31 -8 43 20l5 25l69 4q1 -53 -29 -86.5t-73 -33.5t-74 31q-31 30 -31 71q0 29 9 46zM414 279l-87 263l-85 -263h172z" />
    <glyph glyph-name="aogonek" unicode="&#x105;" horiz-adv-x="614" 
d="M388 -65l35 65v60q-20 -32 -62 -50.5t-83 -18.5q-97 0 -167 67q-71 68 -71 176t70 175q71 68 168 68q42 0 82.5 -17.5t62.5 -50.5v58h122v-467h-58l-35 -96q-11 -36 17 -46q31 -8 43 20l5 25l69 4q1 -53 -29 -86.5t-73 -33.5q-44 0 -74.5 30t-30.5 72q0 29 9 46zM423 234
q0 58 -39 92q-37 34 -89 34t-91 -36q-38 -35 -38 -90t38 -91q27 -27 66 -33t73 6.5t58 44t22 73.5z" />
    <glyph glyph-name="Cacute" unicode="&#x106;" horiz-adv-x="693" 
d="M570 204l101 -74q-46 -66 -119.5 -103t-160.5 -37q-147 0 -247 103t-100 250q0 148 100 251t247 103q85 0 158 -36t119 -100l-102 -73q-67 88 -175 88q-93 0 -156 -68t-63 -165t63 -165q63 -67 156 -67q53 0 100.5 25t78.5 68zM333 766l105 163h128l-138 -163h-95z" />
    <glyph glyph-name="cacute" unicode="&#x107;" horiz-adv-x="520" 
d="M291 477q59 0 110 -24t84 -67l-97 -73q-34 46 -97 46q-52 0 -92 -35q-39 -34 -39 -89q0 -54 39 -92q39 -36 92 -36q62 0 97 47l98 -72q-69 -92 -195 -92q-105 0 -178 69q-74 69 -74 176q0 106 74 174t178 68zM239 544l105 163h128l-138 -163h-95z" />
    <glyph glyph-name="Ccircumflex" unicode="&#x108;" horiz-adv-x="693" 
d="M570 204l101 -74q-46 -66 -119.5 -103t-160.5 -37q-147 0 -247 103t-100 250q0 148 100 251t247 103q85 0 158 -36t119 -100l-102 -73q-67 88 -175 88q-93 0 -156 -68t-63 -165t63 -165q63 -67 156 -67q53 0 100.5 25t78.5 68zM219 769l109 163h123l110 -163h-94l-78 88
l-76 -88h-94z" />
    <glyph glyph-name="ccircumflex" unicode="&#x109;" horiz-adv-x="520" 
d="M291 477q59 0 110 -24t84 -67l-97 -73q-34 46 -97 46q-52 0 -92 -35q-39 -34 -39 -89q0 -54 39 -92q39 -36 92 -36q62 0 97 47l98 -72q-69 -92 -195 -92q-105 0 -178 69q-74 69 -74 176q0 106 74 174t178 68zM114 547l109 163h123l110 -163h-94l-78 88l-76 -88h-94z" />
    <glyph glyph-name="Cdotaccent" unicode="&#x10a;" horiz-adv-x="693" 
d="M570 204l101 -74q-46 -66 -119.5 -103t-160.5 -37q-147 0 -247 103t-100 250q0 148 100 251t247 103q85 0 158 -36t119 -100l-102 -73q-67 88 -175 88q-93 0 -156 -68t-63 -165t63 -165q63 -67 156 -67q53 0 100.5 25t78.5 68zM314 850q0 29 21 49t51 20q31 0 52 -20
t21 -49q0 -30 -21 -50t-52 -20q-30 0 -51 20t-21 50z" />
    <glyph glyph-name="cdotaccent" unicode="&#x10b;" horiz-adv-x="520" 
d="M291 477q59 0 110 -24t84 -67l-97 -73q-34 46 -97 46q-52 0 -92 -35q-39 -34 -39 -89q0 -54 39 -92q39 -36 92 -36q62 0 97 47l98 -72q-69 -92 -195 -92q-105 0 -178 69q-74 69 -74 176q0 106 74 174t178 68zM219 628q0 29 21 49t51 20q31 0 52 -20t21 -49q0 -30 -21 -50
t-52 -20q-30 0 -51 20t-21 50z" />
    <glyph glyph-name="Ccaron" unicode="&#x10c;" horiz-adv-x="693" 
d="M570 204l101 -74q-46 -66 -119.5 -103t-160.5 -37q-147 0 -247 103t-100 250q0 148 100 251t247 103q85 0 158 -36t119 -100l-102 -73q-67 88 -175 88q-93 0 -156 -68t-63 -165t63 -165q63 -67 156 -67q53 0 100.5 25t78.5 68zM445 766h-123l-109 163h94l76 -89l78 89h94
z" />
    <glyph glyph-name="ccaron" unicode="&#x10d;" horiz-adv-x="520" 
d="M291 477q59 0 110 -24t84 -67l-97 -73q-34 46 -97 46q-52 0 -92 -35q-39 -34 -39 -89q0 -54 39 -92q39 -36 92 -36q62 0 97 47l98 -72q-69 -92 -195 -92q-105 0 -178 69q-74 69 -74 176q0 106 74 174t178 68zM342 544h-123l-109 163h94l76 -89l78 89h94z" />
    <glyph glyph-name="Dcaron" unicode="&#x10e;" horiz-adv-x="714" 
d="M214 117h141q89 0 135 64q48 65 48 162q0 100 -48 164q-47 65 -135 65h-141v-455zM355 0h-269v689h269q144 0 227 -98q84 -98 84 -248q0 -149 -84 -247q-82 -96 -227 -96zM416 766h-123l-109 163h94l76 -89l78 89h94z" />
    <glyph glyph-name="dcaron" unicode="&#x10f;" horiz-adv-x="651" 
d="M537 0h-121v63q-19 -33 -59 -53t-88 -20q-95 0 -162 67t-67 176t67 176q68 68 162 68q49 0 88.5 -19.5t58.5 -52.5v316h121v-721zM289 361q-53 0 -88 -35.5t-35 -90.5q0 -56 35 -93q37 -35 88 -35t88 35q37 36 37 93q0 56 -38 91t-87 35zM646 452l-75 25q69 97 65 212
h107q-4 -80 -31 -142.5t-66 -94.5z" />
    <glyph glyph-name="Dcroat" unicode="&#x110;" horiz-adv-x="722" 
d="M97 293h-94v88h94v308h267q145 0 227 -97q83 -98 83 -249q0 -150 -83 -247q-83 -96 -227 -96h-267v293zM362 293h-138v-174h140q88 0 135 63q48 63 48 161q0 97 -48 162q-47 65 -135 65h-140v-189h138v-88z" />
    <glyph glyph-name="dslash" unicode="&#x111;" horiz-adv-x="606" 
d="M416 558h-149v77h149v86h121v-86h76v-77h-76v-558h-121v63q-19 -33 -59 -53t-88 -20q-95 0 -162 67t-67 176t67 176q68 68 162 68q49 0 88.5 -19.5t58.5 -52.5v153zM289 361q-53 0 -88 -35.5t-35 -90.5q0 -56 35 -93q37 -35 88 -35t88 35q37 36 37 93q0 56 -38 91t-87 35
z" />
    <glyph glyph-name="Emacron" unicode="&#x112;" horiz-adv-x="572" 
d="M522 0h-436v689h426v-114h-299v-179h262v-113h-262v-169h309v-114zM434 807h-269v83h269v-83z" />
    <glyph glyph-name="emacron" unicode="&#x113;" horiz-adv-x="553" 
d="M519 235q0 -12 -2 -42h-356q6 -45 41.5 -72.5t87.5 -27.5q38 0 70 16t47 44l93 -50q-29 -55 -87.5 -84t-130.5 -29q-101 0 -172 68q-70 69 -70 177t70 175t172 67t169 -67q68 -68 68 -175zM160 276h240q-7 46 -38.5 72.5t-78.5 26.5q-49 0 -82.5 -27t-40.5 -72zM414 585
h-269v83h269v-83z" />
    <glyph glyph-name="Ebreve" unicode="&#x114;" horiz-adv-x="572" 
d="M86 689h426v-114h-299v-179h262v-113h-262v-169h309v-114h-436v689zM150 909h82q0 -55 51 -55q24 0 37.5 15.5t13.5 39.5h83q0 -59 -37 -94.5t-97 -35.5q-63 0 -98 37t-35 93z" />
    <glyph glyph-name="ebreve" unicode="&#x115;" horiz-adv-x="553" 
d="M519 235q0 -12 -2 -42h-356q6 -45 41.5 -72.5t87.5 -27.5q38 0 70 16t47 44l93 -50q-29 -55 -87.5 -84t-130.5 -29q-101 0 -172 68q-70 69 -70 177t70 175t172 67t169 -67q68 -68 68 -175zM160 276h240q-7 46 -38.5 72.5t-78.5 26.5q-49 0 -82.5 -27t-40.5 -72zM146 687
h82q0 -55 51 -55q24 0 37.5 15.5t13.5 39.5h83q0 -59 -37 -94.5t-97 -35.5q-63 0 -98 37t-35 93z" />
    <glyph glyph-name="Edotaccent" unicode="&#x116;" horiz-adv-x="572" 
d="M86 689h426v-114h-299v-179h262v-113h-262v-169h309v-114h-436v689zM229 850q0 29 21 49t51 20q31 0 52 -20t21 -49q0 -30 -21 -50t-52 -20q-30 0 -51 20t-21 50z" />
    <glyph glyph-name="edotaccent" unicode="&#x117;" horiz-adv-x="553" 
d="M519 235q0 -12 -2 -42h-356q6 -45 41.5 -72.5t87.5 -27.5q38 0 70 16t47 44l93 -50q-29 -55 -87.5 -84t-130.5 -29q-101 0 -172 68q-70 69 -70 177t70 175t172 67t169 -67q68 -68 68 -175zM160 276h240q-7 46 -38.5 72.5t-78.5 26.5q-49 0 -82.5 -27t-40.5 -72zM207 628
q0 29 21 49t51 20q31 0 52 -20t21 -49q0 -30 -21 -50t-52 -20q-30 0 -51 20t-21 50z" />
    <glyph glyph-name="Eogonek" unicode="&#x118;" horiz-adv-x="572" 
d="M522 114v-114l-37 -96q-11 -36 17 -46q31 -8 43 20l5 25l69 4q1 -53 -29 -86.5t-73 -33.5t-74 31q-31 30 -31 71q0 29 9 46l35 65h-370v689h426v-114h-299v-179h262v-113h-262v-169h309z" />
    <glyph glyph-name="eogonek" unicode="&#x119;" horiz-adv-x="554" 
d="M384 -96q-11 -36 17 -46q31 -8 43 20l5 25l69 4q1 -53 -29 -86.5t-73 -33.5q-44 0 -74.5 30t-30.5 72q0 29 9 46l34 64q-34 -9 -72 -9q-101 0 -172 68q-70 69 -70 177t70 175t172 67t169 -67q68 -68 68 -175q0 -12 -2 -42h-356q6 -45 41.5 -72.5t87.5 -27.5q38 0 70 16
t47 44l93 -50q-11 -18 -56 -70q-32 -41 -60 -129zM160 276h240q-7 46 -38.5 72.5t-78.5 26.5q-49 0 -82.5 -27t-40.5 -72z" />
    <glyph glyph-name="Ecaron" unicode="&#x11a;" horiz-adv-x="572" 
d="M86 689h426v-114h-299v-179h262v-113h-262v-169h309v-114h-436v689zM358 766h-123l-109 163h94l76 -89l78 89h94z" />
    <glyph glyph-name="ecaron" unicode="&#x11b;" horiz-adv-x="553" 
d="M519 235q0 -12 -2 -42h-356q6 -45 41.5 -72.5t87.5 -27.5q38 0 70 16t47 44l93 -50q-29 -55 -87.5 -84t-130.5 -29q-101 0 -172 68q-70 69 -70 177t70 175t172 67t169 -67q68 -68 68 -175zM160 276h240q-7 46 -38.5 72.5t-78.5 26.5q-49 0 -82.5 -27t-40.5 -72zM341 544
h-123l-109 163h94l76 -89l78 89h94z" />
    <glyph glyph-name="Gcircumflex" unicode="&#x11c;" horiz-adv-x="756" 
d="M645 592l-94 -82q-64 67 -156 67q-95 0 -159 -69q-64 -67 -64 -165t64 -166q64 -69 159 -69q73 0 128 40q57 41 58 103h-189v105h336q0 -180 -88 -273t-245 -93q-147 0 -249 103t-102 250t102 250q102 104 249 104q153 0 250 -105zM210 769l109 163h123l110 -163h-94
l-78 88l-76 -88h-94z" />
    <glyph glyph-name="gcircumflex" unicode="&#x11d;" horiz-adv-x="611" 
d="M420 234q0 57 -36.5 91.5t-90.5 34.5q-52 0 -89 -36t-37 -90q0 -56 36 -92t90 -36q50 0 88 35q39 36 39 93zM58 -95l99 50q15 -34 50 -55.5t74 -21.5q79 0 113.5 50t28.5 136q-17 -33 -58.5 -53.5t-90.5 -20.5q-95 0 -165 67q-69 67 -69 175q0 110 69 177q71 68 165 68
q48 0 89.5 -20t59.5 -53v63h119v-400q0 -150 -67 -225t-194 -75q-73 0 -132.5 37t-90.5 101zM135 547l109 163h123l110 -163h-94l-78 88l-76 -88h-94z" />
    <glyph glyph-name="Gbreve" unicode="&#x11e;" horiz-adv-x="756" 
d="M645 592l-94 -82q-64 67 -156 67q-95 0 -159 -69q-64 -67 -64 -165t64 -166q64 -69 159 -69q73 0 128 40q57 41 58 103h-189v105h336q0 -180 -88 -273t-245 -93q-147 0 -249 103t-102 250t102 250q102 104 249 104q153 0 250 -105zM247 909h82q0 -55 51 -55
q24 0 37.5 15.5t13.5 39.5h83q0 -59 -37 -94.5t-97 -35.5q-63 0 -98 37t-35 93z" />
    <glyph glyph-name="gbreve" unicode="&#x11f;" horiz-adv-x="611" 
d="M420 234q0 57 -36.5 91.5t-90.5 34.5q-52 0 -89 -36t-37 -90q0 -56 36 -92t90 -36q50 0 88 35q39 36 39 93zM157 -45q15 -34 50 -55.5t74 -21.5q79 0 113.5 50t28.5 136q-17 -33 -58.5 -53.5t-90.5 -20.5q-95 0 -165 67q-69 67 -69 175q0 110 69 177q71 68 165 68
q48 0 89.5 -20t59.5 -53v63h119v-400q0 -150 -67 -225t-194 -75q-73 0 -132.5 37t-90.5 101zM172 687h82q0 -55 51 -55q24 0 37.5 15.5t13.5 39.5h83q0 -59 -37 -94.5t-97 -35.5q-63 0 -98 37t-35 93z" />
    <glyph glyph-name="Gdotaccent" unicode="&#x120;" horiz-adv-x="756" 
d="M645 592l-94 -82q-64 67 -156 67q-95 0 -159 -69q-64 -67 -64 -165t64 -166q64 -69 159 -69q73 0 128 40q57 41 58 103h-189v105h336q0 -180 -88 -273t-245 -93q-147 0 -249 103t-102 250t102 250q102 104 249 104q153 0 250 -105zM308 850q0 29 21 49t51 20q31 0 52 -20
t21 -49q0 -30 -21 -50t-52 -20q-30 0 -51 20t-21 50z" />
    <glyph glyph-name="gdotaccent" unicode="&#x121;" horiz-adv-x="611" 
d="M420 234q0 57 -36.5 91.5t-90.5 34.5q-52 0 -89 -36t-37 -90q0 -56 36 -92t90 -36q50 0 88 35q39 36 39 93zM157 -45q15 -34 50 -55.5t74 -21.5q79 0 113.5 50t28.5 136q-17 -33 -58.5 -53.5t-90.5 -20.5q-95 0 -165 67q-69 67 -69 175q0 110 69 177q71 68 165 68
q48 0 89.5 -20t59.5 -53v63h119v-400q0 -150 -67 -225t-194 -75q-73 0 -132.5 37t-90.5 101zM233 628q0 29 21 49t51 20q31 0 52 -20t21 -49q0 -30 -21 -50t-52 -20q-30 0 -51 20t-21 50z" />
    <glyph glyph-name="Gcommaaccent" unicode="&#x122;" horiz-adv-x="756" 
d="M645 592l-94 -82q-64 67 -156 67q-95 0 -159 -69q-64 -67 -64 -165t64 -166q64 -69 159 -69q73 0 128 40q57 41 58 103h-189v105h336q0 -180 -88 -273t-245 -93q-147 0 -249 103t-102 250t102 250q102 104 249 104q153 0 250 -105zM364 -274l-64 29q33 47 44 85
q12 39 10 104h107q-8 -146 -97 -218z" />
    <glyph glyph-name="gcommaaccent" unicode="&#x123;" horiz-adv-x="611" 
d="M318 772l64 -29q-33 -47 -44 -85q-12 -40 -9 -103h-108q7 144 97 217zM420 234q0 57 -36.5 91.5t-90.5 34.5q-52 0 -89 -36t-37 -90q0 -56 36 -92t90 -36q50 0 88 35q39 36 39 93zM157 -45q15 -34 50 -55.5t74 -21.5q79 0 113.5 50t28.5 136q-17 -33 -58.5 -53.5
t-90.5 -20.5q-95 0 -165 67q-69 67 -69 175q0 110 69 177q71 68 165 68q48 0 89.5 -20t59.5 -53v63h119v-400q0 -150 -67 -225t-194 -75q-73 0 -132.5 37t-90.5 101z" />
    <glyph glyph-name="Hcircumflex" unicode="&#x124;" horiz-adv-x="704" 
d="M489 400v289h129v-689h-129v285h-276v-285h-127v689h127v-289h276zM181 769l109 163h123l110 -163h-94l-78 88l-76 -88h-94z" />
    <glyph glyph-name="hcircumflex" unicode="&#x125;" horiz-adv-x="587" 
d="M191 249v-249h-122v721h122v-326q15 39 59 60q44 22 86 22q90 0 139 -57t49 -160v-260h-122v254q0 47 -29 75.5t-70 28.5q-48 0 -80 -28t-32 -81zM-39 764l109 163h123l110 -163h-94l-78 88l-76 -88h-94z" />
    <glyph glyph-name="Hbar" unicode="&#x126;" horiz-adv-x="716" 
d="M92 0v508h-71v75h71v106h128v-106h275v106h129v-106h71v-75h-71v-508h-129v284h-275v-284h-128zM220 508v-108h275v108h-275z" />
    <glyph glyph-name="hbar" unicode="&#x127;" horiz-adv-x="581" 
d="M191 249v-249h-122v558h-74v77h74v86h122v-86h142v-77h-142v-163q15 39 56 60q41 22 83 22q90 0 139 -57t49 -160v-260h-123v254q0 47 -27 75.5t-67 28.5q-47 0 -78.5 -28t-31.5 -81z" />
    <glyph glyph-name="Itilde" unicode="&#x128;" horiz-adv-x="299" 
d="M105 829q-9 0 -17 -11.5t-9 -31.5h-70q3 62 30 93.5t66 31.5q24 0 51 -21q28 -20 37 -20t17.5 11t9.5 30h70q-3 -60 -31 -91.5t-66 -31.5q-22 0 -51 20q-28 21 -37 21zM213 0h-127v689h127v-689z" />
    <glyph glyph-name="itilde" unicode="&#x129;" horiz-adv-x="259" 
d="M85 607q-9 0 -17 -11.5t-9 -31.5h-70q3 62 30 93.5t66 31.5q24 0 51 -21q28 -20 37 -20t17.5 11t9.5 30h70q-3 -60 -31 -91.5t-66 -31.5q-22 0 -51 20q-29 21 -37 21zM69 0v467h121v-467h-121z" />
    <glyph glyph-name="Imacron" unicode="&#x12a;" horiz-adv-x="299" 
d="M284 807h-269v83h269v-83zM213 0h-127v689h127v-689z" />
    <glyph glyph-name="imacron" unicode="&#x12b;" horiz-adv-x="259" 
d="M265 585h-269v83h269v-83zM69 0v467h121v-467h-121z" />
    <glyph glyph-name="Ibreve" unicode="&#x12c;" horiz-adv-x="299" 
d="M86 689h127v-689h-127v689zM16 909h82q0 -55 51 -55q24 0 37.5 15.5t13.5 39.5h83q0 -59 -37 -94.5t-97 -35.5q-63 0 -98 37t-35 93z" />
    <glyph glyph-name="ibreve" unicode="&#x12d;" horiz-adv-x="259" 
d="M190 467v-467h-121v467h121zM-4 687h82q0 -55 51 -55q24 0 37.5 15.5t13.5 39.5h83q0 -59 -37 -94.5t-97 -35.5q-63 0 -98 37t-35 93z" />
    <glyph glyph-name="Iogonek" unicode="&#x12e;" horiz-adv-x="299" 
d="M213 0h-63l-35 -96q-11 -36 17 -46q31 -8 43 20l5 25l69 4q1 -53 -29 -86.5t-73 -33.5t-74 31q-31 30 -31 71q0 29 9 46l35 65v689h127v-689z" />
    <glyph glyph-name="iogonek" unicode="&#x12f;" horiz-adv-x="259" 
d="M159 -122l5 25l69 4q1 -53 -29 -86.5t-73 -33.5t-74 31q-31 30 -31 71q0 29 9 46l34 65v467h121v-467h-56l-35 -96q-11 -36 17 -46q31 -8 43 20zM130 574q-33 0 -56 21.5t-23 52.5t23.5 52t55.5 21t54.5 -21t22.5 -52t-22.5 -52.5t-54.5 -21.5z" />
    <glyph glyph-name="Idot" unicode="&#x130;" horiz-adv-x="299" 
d="M86 689h127v-689h-127v689zM77 850q0 29 21 49t51 20q31 0 52 -20t21 -49q0 -30 -21 -50t-52 -20q-30 0 -51 20t-21 50z" />
    <glyph glyph-name="dotlessi" unicode="&#x131;" horiz-adv-x="259" 
d="M69 0v467h121v-467h-121z" />
    <glyph glyph-name="IJ" unicode="&#x132;" horiz-adv-x="599" 
d="M200 -218l12 116q29 -10 80 -10q46 0 69.5 29.5t23.5 79.5v692h128v-692q0 -106 -55.5 -168t-165.5 -62q-32 0 -92 15zM213 0h-127v689h127v-689z" />
    <glyph glyph-name="ij" unicode="&#x133;" horiz-adv-x="520" 
d="M277 -233h-77v112h59q70 0 69 88v500h123v-498q0 -202 -174 -202zM311 648q0 30 23 51.5t55 21.5q33 0 55.5 -21t22.5 -52t-22.5 -52.5t-55.5 -21.5q-32 0 -55 21.5t-23 52.5zM69 467h121v-467h-121v467zM130 574q-33 0 -56 21.5t-23 52.5t23.5 52t55.5 21t54.5 -21
t22.5 -52t-22.5 -52.5t-54.5 -21.5z" />
    <glyph glyph-name="Jcircumflex" unicode="&#x134;" horiz-adv-x="300" 
d="M-99 -218l12 116q29 -10 80 -10q46 0 69.5 29.5t23.5 79.5v692h128v-692q0 -106 -55.5 -168t-165.5 -62q-32 0 -92 15zM-23 769l109 163h123l110 -163h-94l-78 88l-76 -88h-94z" />
    <glyph glyph-name="jcircumflex" unicode="&#x135;" horiz-adv-x="261" 
d="M18 -233h-77v112h59q70 0 69 88v500h123v-498q0 -202 -174 -202zM-33 547l109 163h123l110 -163h-94l-78 88l-76 -88h-94z" />
    <glyph glyph-name="Kcommaaccent" unicode="&#x136;" horiz-adv-x="598" 
d="M550 689l-262 -342l324 -347h-167l-230 255v-255h-129v689h129v-251l185 251h150zM287 -274l-64 29q33 47 44 85q12 39 10 104h107q-8 -146 -97 -218z" />
    <glyph glyph-name="kcommaaccent" unicode="&#x137;" horiz-adv-x="519" 
d="M519 0h-153l-176 200v-200h-121v721h121v-394l129 140h158l-196 -205zM247 -274l-64 29q33 47 44 85q12 39 10 104h107q-8 -146 -97 -218z" />
    <glyph glyph-name="kgreenlandic" unicode="&#x138;" horiz-adv-x="498" 
d="M494 0h-154l-150 159v-159h-121v467h121v-154l130 154h147l-203 -230z" />
    <glyph glyph-name="Lacute" unicode="&#x139;" horiz-adv-x="506" 
d="M86 689h128v-575h266v-114h-394v689zM91 766l105 163h128l-138 -163h-95z" />
    <glyph glyph-name="lacute" unicode="&#x13a;" horiz-adv-x="260" 
d="M69 721h122v-721h-122v721zM74 766l105 163h128l-138 -163h-95z" />
    <glyph glyph-name="Lcommaaccent" unicode="&#x13b;" horiz-adv-x="506" 
d="M480 0h-394v689h128v-575h266v-114zM236 -274l-64 29q33 47 44 85q12 39 10 104h107q-8 -146 -97 -218z" />
    <glyph glyph-name="lcommaaccent" unicode="&#x13c;" horiz-adv-x="260" 
d="M86 -274l-64 29q33 47 44 85q12 39 10 104h107q-8 -146 -97 -218zM191 0h-122v721h122v-721z" />
    <glyph glyph-name="Lcaron" unicode="&#x13d;" horiz-adv-x="508" 
d="M480 0h-394v689h128v-575h266v-114zM356 452l-75 25q69 97 65 212h107q-4 -80 -31 -142.5t-66 -94.5z" />
    <glyph glyph-name="lcaron" unicode="&#x13e;" horiz-adv-x="260" 
d="M300 484l-75 25q69 97 65 212h107q-4 -80 -31 -142.5t-66 -94.5zM69 721h122v-721h-122v721z" />
    <glyph glyph-name="Ldot" unicode="&#x13f;" horiz-adv-x="506" 
d="M343 389q33 0 56.5 -21.5t23.5 -54.5t-23.5 -54.5t-56.5 -21.5q-32 0 -55 22t-23 54t23 54t55 22zM480 0h-394v689h128v-575h266v-114z" />
    <glyph glyph-name="ldot" unicode="&#x140;" horiz-adv-x="394" 
d="M326 389q33 0 56.5 -21.5t23.5 -54.5t-23.5 -54.5t-56.5 -21.5q-32 0 -55 22t-23 54t23 54t55 22zM191 0h-122v721h122v-721z" />
    <glyph glyph-name="Lslash" unicode="&#x141;" horiz-adv-x="512" 
d="M92 0v304l-69 -44v85l69 44v300h128v-220l97 60v-85l-97 -60v-268h266v-116h-394z" />
    <glyph glyph-name="lslash" unicode="&#x142;" horiz-adv-x="292" 
d="M93 721h122v-264l83 52v-84l-83 -52v-373h-122v296l-80 -50v84l80 50v341z" />
    <glyph glyph-name="Nacute" unicode="&#x143;" horiz-adv-x="682" 
d="M596 0h-117l-266 453v-453h-127v689h119l263 -448v448h128v-689zM273 766l105 163h128l-138 -163h-95z" />
    <glyph glyph-name="nacute" unicode="&#x144;" 
d="M191 249v-249h-122v467h122v-69q18 36 57 57.5t82 21.5q84 0 129 -51.5t45 -149.5v-276h-122v254q0 50 -23.5 77t-65.5 27q-47 0 -74.5 -27t-27.5 -82zM214 544l105 163h128l-138 -163h-95z" />
    <glyph glyph-name="Ncommaaccent" unicode="&#x145;" horiz-adv-x="682" 
d="M468 689h128v-689h-117l-266 453v-453h-127v689h119l263 -448v448zM304 -274l-64 29q33 47 44 85q12 39 10 104h107q-8 -146 -97 -218z" />
    <glyph glyph-name="ncommaaccent" unicode="&#x146;" 
d="M191 249v-249h-122v467h122v-69q18 36 57 57.5t82 21.5q84 0 129 -51.5t45 -149.5v-276h-122v254q0 50 -23.5 77t-65.5 27q-47 0 -74.5 -27t-27.5 -82zM248 -274l-64 29q33 47 44 85q12 39 10 104h107q-8 -146 -97 -218z" />
    <glyph glyph-name="Ncaron" unicode="&#x147;" horiz-adv-x="682" 
d="M596 0h-117l-266 453v-453h-127v689h119l263 -448v448h128v-689zM402 766h-123l-109 163h94l76 -89l78 89h94z" />
    <glyph glyph-name="ncaron" unicode="&#x148;" 
d="M191 249v-249h-122v467h122v-69q18 36 57 57.5t82 21.5q84 0 129 -51.5t45 -149.5v-276h-122v254q0 50 -23.5 77t-65.5 27q-47 0 -74.5 -27t-27.5 -82zM345 544h-123l-109 163h94l76 -89l78 89h94z" />
    <glyph glyph-name="napostrophe" unicode="&#x149;" 
d="M191 249v-249h-122v467h122v-69q18 36 57 57.5t82 21.5q84 0 129 -51.5t45 -149.5v-276h-122v254q0 50 -23.5 77t-65.5 27q-47 0 -74.5 -27t-27.5 -82zM1 478l-71 21q52 71 39 171h110q1 -128 -78 -192z" />
    <glyph glyph-name="Eng" unicode="&#x14a;" horiz-adv-x="681" 
d="M476 2l-262 449v-451h-128v689h119l262 -456v456h128v-679q0 -108 -51.5 -175.5t-167.5 -67.5q-34 0 -93 15l13 119q59 -16 105 -8q33 6 54 38t21 71z" />
    <glyph glyph-name="eng" unicode="&#x14b;" horiz-adv-x="568" 
d="M504 276v-250q0 -107 -51.5 -167t-157.5 -60q-26 0 -67 10l12 112q21 -7 55 -7q43 0 65 29t22 76v235q0 50 -23.5 77t-65.5 27q-47 0 -74.5 -27t-27.5 -82v-249h-122v467h122v-69q18 36 57 57.5t82 21.5q84 0 129.5 -51.5t44.5 -149.5z" />
    <glyph glyph-name="Omacron" unicode="&#x14c;" horiz-adv-x="787" 
d="M235 504q-64 -65 -64 -161t64 -161q65 -66 158 -66t157 66q65 67 65 161t-65 161q-64 67 -157 67q-94 0 -158 -67zM44 343q0 146 101 250t248 104t248 -104q102 -104 102 -250q0 -147 -102 -250t-248 -103t-248 103q-101 104 -101 250zM528 807h-269v83h269v-83z" />
    <glyph glyph-name="omacron" unicode="&#x14d;" horiz-adv-x="566" 
d="M405 235q0 53 -35 87.5t-87 34.5t-87 -34.5t-35 -87.5q0 -55 34.5 -90t87.5 -35t87.5 35t34.5 90zM455 59q-71 -68 -172 -68q-102 0 -173 68q-70 67 -70 176q0 108 70 175t173 67q102 0 172 -67q71 -68 71 -175q0 -108 -71 -176zM417 585h-269v83h269v-83z" />
    <glyph glyph-name="Obreve" unicode="&#x14e;" horiz-adv-x="787" 
d="M235 182q65 -66 158 -66t157 66q65 67 65 161t-65 161q-64 67 -157 67q-94 0 -158 -67q-64 -65 -64 -161t64 -161zM44 343q0 146 101 250t248 104t248 -104q102 -104 102 -250q0 -147 -102 -250t-248 -103t-248 103q-101 104 -101 250zM260 909h82q0 -55 51 -55
q24 0 37.5 15.5t13.5 39.5h83q0 -59 -37 -94.5t-97 -35.5q-63 0 -98 37t-35 93z" />
    <glyph glyph-name="obreve" unicode="&#x14f;" horiz-adv-x="566" 
d="M161 235q0 -55 34.5 -90t87.5 -35t87.5 35t34.5 90q0 53 -35 87.5t-87 34.5t-87 -34.5t-35 -87.5zM110 59q-70 67 -70 176q0 108 70 175t173 67q102 0 172 -67q71 -68 71 -175q0 -108 -71 -176t-172 -68q-102 0 -173 68zM149 687h82q0 -55 51 -55q24 0 37.5 15.5
t13.5 39.5h83q0 -59 -37 -94.5t-97 -35.5q-63 0 -98 37t-35 93z" />
    <glyph glyph-name="Ohungarumlaut" unicode="&#x150;" horiz-adv-x="787" 
d="M235 182q65 -66 158 -66t157 66q65 67 65 161t-65 161q-64 67 -157 67q-94 0 -158 -67q-64 -65 -64 -161t64 -161zM44 343q0 146 101 250t248 104t248 -104q102 -104 102 -250q0 -147 -102 -250t-248 -103t-248 103q-101 104 -101 250zM525 929h107l-121 -163h-97z
M371 929h105l-110 -163h-94z" />
    <glyph glyph-name="ohungarumlaut" unicode="&#x151;" horiz-adv-x="566" 
d="M161 235q0 -55 34.5 -90t87.5 -35t87.5 35t34.5 90q0 53 -35 87.5t-87 34.5t-87 -34.5t-35 -87.5zM110 59q-70 67 -70 176q0 108 70 175t173 67q102 0 172 -67q71 -68 71 -175q0 -108 -71 -176t-172 -68q-102 0 -173 68zM413 707h107l-121 -163h-97zM259 707h105
l-110 -163h-94z" />
    <glyph glyph-name="OE" unicode="&#x152;" horiz-adv-x="1100" 
d="M615 605v84h425v-116h-298v-177h261v-114h-261v-166h308v-116h-435v81q-91 -91 -223 -91q-147 0 -247 103q-101 104 -101 250t101 250t247 104q136 0 223 -92zM392 117q94 0 158 67t64 163q-2 94 -66 158q-65 65 -156 65q-93 0 -157 -67q-63 -66 -63 -160t63 -160
q65 -66 157 -66z" />
    <glyph glyph-name="oe" unicode="&#x153;" horiz-adv-x="919" 
d="M526 276h240q-7 46 -38.5 72.5t-78.5 26.5q-50 0 -83 -26t-40 -73zM405 234q0 53 -35 88t-87 35t-87 -35t-35 -88q0 -56 34.5 -90.5t87.5 -34.5t87.5 34.5t34.5 90.5zM465 71q-71 -81 -182 -81q-102 0 -173 68q-70 67 -70 176q0 108 70 175q71 68 173 68q111 0 182 -80
q71 80 184 80q101 0 163.5 -61t70.5 -162q3 -23 1 -61h-357q7 -46 42 -73t87 -27q38 0 70 16t47 44l94 -50q-30 -55 -88 -84t-130 -29q-113 0 -184 81z" />
    <glyph glyph-name="Racute" unicode="&#x154;" horiz-adv-x="631" 
d="M356 575h-142v-216h138q45 0 71 31t26 76t-25 77t-68 32zM407 250l176 -250h-154l-162 245h-53v-245h-128v689h276q108 0 163 -66q57 -65 57 -157q0 -80 -45 -141q-43 -61 -130 -75zM223 766l105 163h128l-138 -163h-95z" />
    <glyph glyph-name="racute" unicode="&#x155;" horiz-adv-x="411" 
d="M76 544l105 163h128l-138 -163h-95zM191 165v-165h-122v467h122v-110q17 58 52.5 89t79.5 31q45 0 77 -17l-21 -110q-27 13 -71 13q-117 0 -117 -198z" />
    <glyph glyph-name="Rcommaaccent" unicode="&#x156;" horiz-adv-x="631" 
d="M356 575h-142v-216h138q45 0 71 31t26 76t-25 77t-68 32zM407 250l176 -250h-154l-162 245h-53v-245h-128v689h276q108 0 163 -66q57 -65 57 -157q0 -80 -45 -141q-43 -61 -130 -75zM296 -274l-64 29q33 47 44 85q12 39 10 104h107q-8 -146 -97 -218z" />
    <glyph glyph-name="rcommaaccent" unicode="&#x157;" horiz-adv-x="411" 
d="M191 165v-165h-122v467h122v-110q17 58 52.5 89t79.5 31q45 0 77 -17l-21 -110q-27 13 -71 13q-117 0 -117 -198zM88 -274l-64 29q33 47 44 85q12 39 10 104h107q-8 -146 -97 -218z" />
    <glyph glyph-name="Rcaron" unicode="&#x158;" horiz-adv-x="631" 
d="M356 575h-142v-216h138q45 0 71 31t26 76t-25 77t-68 32zM407 250l176 -250h-154l-162 245h-53v-245h-128v689h276q108 0 163 -66q57 -65 57 -157q0 -80 -45 -141q-43 -61 -130 -75zM373 766h-123l-109 163h94l76 -89l78 89h94z" />
    <glyph glyph-name="rcaron" unicode="&#x159;" horiz-adv-x="411" 
d="M276 544h-123l-109 163h94l76 -89l78 89h94zM191 165v-165h-122v467h122v-110q17 58 52.5 89t79.5 31q45 0 77 -17l-21 -110q-27 13 -71 13q-117 0 -117 -198z" />
    <glyph glyph-name="Sacute" unicode="&#x15a;" horiz-adv-x="577" 
d="M174 201q2 -41 34.5 -69t84.5 -28q50 0 81 23t33 60q2 34 -21.5 57t-73.5 37l-85 22q-174 51 -174 192q0 90 67 145q68 57 165 57q99 0 164 -57q65 -56 65 -151h-128q0 41 -27.5 65.5t-75.5 24.5q-45 0 -74 -22.5t-29 -58.5q0 -57 82 -79l85 -25q103 -28 148.5 -82.5
t39.5 -127.5q-5 -91 -74 -143q-68 -52 -168 -52q-110 0 -178 61q-69 62 -69 151h128zM239 766l105 163h128l-138 -163h-95z" />
    <glyph glyph-name="sacute" unicode="&#x15b;" horiz-adv-x="454" 
d="M246 179l-64 16q-81 23 -106.5 57.5t-25.5 85.5q0 56 51 97q51 42 121 42q74 0 126 -36q53 -36 56 -111h-116q-1 23 -19 35.5t-44 12.5q-59 0 -59 -46q0 -26 49 -39l78 -19q38 -10 64 -28t37.5 -39.5t16 -38.5t4.5 -34q0 -68 -57 -106q-56 -38 -134 -38q-74 0 -131 42
q-56 44 -57 115h114q2 -25 27.5 -42.5t58.5 -16.5q26 1 43.5 14t17.5 33q1 17 -11.5 27.5t-39.5 16.5zM163 544l105 163h128l-138 -163h-95z" />
    <glyph glyph-name="Scircumflex" unicode="&#x15c;" horiz-adv-x="577" 
d="M46 201h128q2 -41 34.5 -69t84.5 -28q50 0 81 23t33 60q2 34 -21.5 57t-73.5 37l-85 22q-174 51 -174 192q0 90 67 145q68 57 165 57q99 0 164 -57q65 -56 65 -151h-128q0 41 -27.5 65.5t-75.5 24.5q-45 0 -74 -22.5t-29 -58.5q0 -57 82 -79l85 -25q103 -28 148.5 -82.5
t39.5 -127.5q-5 -91 -74 -143q-68 -52 -168 -52q-110 0 -178 61q-69 62 -69 151zM120 769l109 163h123l110 -163h-94l-78 88l-76 -88h-94z" />
    <glyph glyph-name="scircumflex" unicode="&#x15d;" horiz-adv-x="454" 
d="M246 179l-64 16q-81 23 -106.5 57.5t-25.5 85.5q0 56 51 97q51 42 121 42q74 0 126 -36q53 -36 56 -111h-116q-1 23 -19 35.5t-44 12.5q-59 0 -59 -46q0 -26 49 -39l78 -19q38 -10 64 -28t37.5 -39.5t16 -38.5t4.5 -34q0 -68 -57 -106q-56 -38 -134 -38q-74 0 -131 42
q-56 44 -57 115h114q2 -25 27.5 -42.5t58.5 -16.5q26 1 43.5 14t17.5 33q1 17 -11.5 27.5t-39.5 16.5zM55 547l109 163h123l110 -163h-94l-78 88l-76 -88h-94z" />
    <glyph glyph-name="Scedilla" unicode="&#x15e;" horiz-adv-x="579" 
d="M246 -122q12 -28 43 -20q28 10 17 46l-32 86q-100 6 -164 65q-63 60 -63 146h128q2 -41 34.5 -69t84.5 -28q50 0 81 23t33 60q2 34 -21.5 57t-73.5 37l-85 22q-174 51 -174 192q0 90 67 145q67 57 165 57q100 0 164 -57q65 -56 65 -151h-128q0 41 -27.5 65.5t-75.5 24.5
q-45 0 -74 -22.5t-29 -58.5q0 -57 82 -79l85 -25q103 -28 148.5 -82.5t39.5 -127.5q-5 -80 -59 -130q-56 -50 -138 -62l31 -57q9 -17 9 -46q0 -42 -30.5 -72t-74.5 -30q-43 0 -73 33.5t-29 86.5l69 -4q0 -12 5 -25z" />
    <glyph glyph-name="scedilla" unicode="&#x15f;" horiz-adv-x="455" 
d="M288 -2l34 -63q9 -17 9 -46q0 -42 -30.5 -72t-74.5 -30q-43 0 -73 33.5t-29 86.5l69 -4q0 -12 5 -25q12 -28 43 -20q28 10 17 46l-32 86h-1q-74 0 -131 42q-56 44 -57 115h114q2 -25 27.5 -42.5t58.5 -16.5q26 1 43.5 14t17.5 33q1 17 -11.5 27.5t-39.5 16.5l-64 16
q-81 23 -106.5 57.5t-25.5 85.5q0 56 51 97q51 42 121 42q73 0 126 -36t56 -111h-116q-1 23 -19 35.5t-44 12.5q-59 0 -59 -46q0 -26 49 -39l78 -19q38 -10 64 -28t37.5 -39.5t16 -38.5t4.5 -34q0 -52 -34.5 -87.5t-93.5 -48.5z" />
    <glyph glyph-name="Scaron" unicode="&#x160;" horiz-adv-x="577" 
d="M174 201q2 -41 34.5 -69t84.5 -28q50 0 81 23t33 60q2 34 -21.5 57t-73.5 37l-85 22q-174 51 -174 192q0 90 67 145q68 57 165 57q99 0 164 -57q65 -56 65 -151h-128q0 41 -27.5 65.5t-75.5 24.5q-45 0 -74 -22.5t-29 -58.5q0 -57 82 -79l85 -25q103 -28 148.5 -82.5
t39.5 -127.5q-5 -91 -74 -143q-68 -52 -168 -52q-110 0 -178 61q-69 62 -69 151h128zM352 766h-123l-109 163h94l76 -89l78 89h94z" />
    <glyph glyph-name="scaron" unicode="&#x161;" horiz-adv-x="454" 
d="M246 179l-64 16q-81 23 -106.5 57.5t-25.5 85.5q0 56 51 97q51 42 121 42q74 0 126 -36q53 -36 56 -111h-116q-1 23 -19 35.5t-44 12.5q-59 0 -59 -46q0 -26 49 -39l78 -19q38 -10 64 -28t37.5 -39.5t16 -38.5t4.5 -34q0 -68 -57 -106q-56 -38 -134 -38q-74 0 -131 42
q-56 44 -57 115h114q2 -25 27.5 -42.5t58.5 -16.5q26 1 43.5 14t17.5 33q1 17 -11.5 27.5t-39.5 16.5zM287 544h-123l-109 163h94l76 -89l78 89h94z" />
    <glyph glyph-name="Tcommaaccent" unicode="&#x162;" horiz-adv-x="573" 
d="M222 572h-194v117h517v-117h-194v-572h-129v572zM240 -274l-64 29q33 47 44 85q12 39 10 104h107q-8 -146 -97 -218z" />
    <glyph glyph-name="tcommaaccent" unicode="&#x163;" horiz-adv-x="351" 
d="M108 645h121v-178h99v-98h-99v-369h-121v369h-85v98h85v178zM127 -274l-64 29q33 47 44 85q12 39 10 104h107q-8 -146 -97 -218z" />
    <glyph glyph-name="Tcaron" unicode="&#x164;" horiz-adv-x="573" 
d="M28 689h517v-117h-194v-572h-129v572h-194v117zM348 766h-123l-109 163h94l76 -89l78 89h94z" />
    <glyph glyph-name="tcaron" unicode="&#x165;" horiz-adv-x="350" 
d="M345 524l-65 29q33 47 44 85q12 39 10 104h107q-7 -144 -96 -218zM107 369h-84v98h84v178h122v-178h98v-98h-98v-369h-122v369z" />
    <glyph glyph-name="Tbar" unicode="&#x166;" horiz-adv-x="573" 
d="M222 0v334h-115v76h115v162h-194v117h517v-117h-194v-162h114v-76h-114v-334h-129z" />
    <glyph glyph-name="tbar" unicode="&#x167;" horiz-adv-x="354" 
d="M231 0h-122v198h-58v71h58v100h-84v98h84v178h122v-178h98v-98h-98v-100h72v-71h-72v-198z" />
    <glyph glyph-name="Utilde" unicode="&#x168;" horiz-adv-x="681" 
d="M296 829q-9 0 -17 -11.5t-9 -31.5h-70q3 62 30 93.5t66 31.5q24 0 51 -21q28 -20 37 -20t17.5 11t9.5 30h70q-3 -60 -31 -91.5t-66 -31.5q-22 0 -51 20q-29 21 -37 21zM474 243v446h128v-446q0 -112 -77 -183q-76 -70 -184 -70q-110 0 -186 70t-76 183v446h130v-446
q0 -57 39 -95q38 -37 93 -37t93 37q40 37 40 95z" />
    <glyph glyph-name="utilde" unicode="&#x169;" 
d="M376 218v249h122v-467h-122v66q-18 -35 -54.5 -55.5t-74.5 -20.5q-86 0 -135 52.5t-49 148.5v276h123v-254q0 -51 25 -77.5t64 -26.5q45 0 73 27.5t28 81.5zM246 607q-9 0 -17 -11.5t-9 -31.5h-70q3 62 30 93.5t66 31.5q24 0 51 -21q28 -20 37 -20t17.5 11t9.5 30h70
q-3 -60 -31 -91.5t-66 -31.5q-22 0 -51 20q-29 21 -37 21z" />
    <glyph glyph-name="Umacron" unicode="&#x16a;" horiz-adv-x="681" 
d="M474 243v446h128v-446q0 -112 -77 -183q-76 -70 -184 -70q-110 0 -186 70t-76 183v446h130v-446q0 -57 39 -95q38 -37 93 -37t93 37q40 37 40 95zM475 807h-269v83h269v-83z" />
    <glyph glyph-name="umacron" unicode="&#x16b;" 
d="M376 218v249h122v-467h-122v66q-18 -35 -54.5 -55.5t-74.5 -20.5q-86 0 -135 52.5t-49 148.5v276h123v-254q0 -51 25 -77.5t64 -26.5q45 0 73 27.5t28 81.5zM425 585h-269v83h269v-83z" />
    <glyph glyph-name="Ubreve" unicode="&#x16c;" horiz-adv-x="681" 
d="M474 243v446h128v-446q0 -112 -77 -183q-76 -70 -184 -70q-110 0 -186 70t-76 183v446h130v-446q0 -57 39 -95q38 -37 93 -37t93 37q40 37 40 95zM207 909h82q0 -55 51 -55q24 0 37.5 15.5t13.5 39.5h83q0 -59 -37 -94.5t-97 -35.5q-63 0 -98 37t-35 93z" />
    <glyph glyph-name="ubreve" unicode="&#x16d;" 
d="M376 218v249h122v-467h-122v66q-18 -35 -54.5 -55.5t-74.5 -20.5q-86 0 -135 52.5t-49 148.5v276h123v-254q0 -51 25 -77.5t64 -26.5q45 0 73 27.5t28 81.5zM157 687h82q0 -55 51 -55q24 0 37.5 15.5t13.5 39.5h83q0 -59 -37 -94.5t-97 -35.5q-63 0 -98 37t-35 93z" />
    <glyph glyph-name="Uring" unicode="&#x16e;" horiz-adv-x="681" 
d="M474 243v446h128v-446q0 -112 -77 -183q-76 -70 -184 -70q-110 0 -186 70t-76 183v446h130v-446q0 -57 39 -95q38 -37 93 -37t93 37q40 37 40 95zM225 876q0 48 33 83q34 34 81 34q49 0 83 -34q34 -33 34 -83q0 -48 -34 -81t-83 -33q-47 0 -81 33q-33 33 -33 81zM282 876
q0 -24 17 -40.5t40 -16.5q25 0 42 16.5t17 40.5q0 25 -17 42t-42 17q-23 0 -40 -17t-17 -42z" />
    <glyph glyph-name="uring" unicode="&#x16f;" 
d="M376 218v249h122v-467h-122v66q-18 -35 -54.5 -55.5t-74.5 -20.5q-86 0 -135 52.5t-49 148.5v276h123v-254q0 -51 25 -77.5t64 -26.5q45 0 73 27.5t28 81.5zM175 654q0 48 33 83q34 34 81 34q49 0 83 -34q34 -33 34 -83q0 -48 -34 -81t-83 -33q-47 0 -81 33
q-33 33 -33 81zM232 654q0 -24 17 -40.5t40 -16.5q25 0 42 16.5t17 40.5q0 25 -17 42t-42 17q-23 0 -40 -17t-17 -42z" />
    <glyph glyph-name="Uhungarumlaut" unicode="&#x170;" horiz-adv-x="681" 
d="M475 929h107l-121 -163h-97zM321 929h105l-110 -163h-94zM474 243v446h128v-446q0 -112 -77 -183q-76 -70 -184 -70q-110 0 -186 70t-76 183v446h130v-446q0 -57 39 -95q38 -37 93 -37t93 37q40 37 40 95z" />
    <glyph glyph-name="uhungarumlaut" unicode="&#x171;" 
d="M396 707h107l-121 -163h-97zM242 707h105l-110 -163h-94zM376 218v249h122v-467h-122v66q-18 -35 -54.5 -55.5t-74.5 -20.5q-86 0 -135 52.5t-49 148.5v276h123v-254q0 -51 25 -77.5t64 -26.5q45 0 73 27.5t28 81.5z" />
    <glyph glyph-name="Uogonek" unicode="&#x172;" horiz-adv-x="681" 
d="M399 -122l5 25l69 4q1 -53 -29 -86.5t-73 -33.5t-74 31q-31 30 -31 71q0 29 9 46l31 57q-97 12 -162 80t-65 171v446h130v-446q0 -57 39 -95q38 -37 93 -37t93 37q40 37 40 95v446h128v-446q0 -105 -67 -173q-66 -69 -164 -78l-32 -88q-11 -36 17 -46q31 -8 43 20z" />
    <glyph glyph-name="uogonek" unicode="&#x173;" 
d="M465 -122l5 25l69 4q1 -53 -29 -86.5t-73 -33.5t-74 31q-31 30 -31 71q0 29 9 46l35 65v66q-18 -35 -54.5 -55.5t-74.5 -20.5q-86 0 -135 52.5t-49 148.5v276h123v-254q0 -51 25 -77.5t64 -26.5q45 0 73 27.5t28 81.5v249h122v-467h-58l-35 -96q-11 -36 17 -46
q31 -8 43 20z" />
    <glyph glyph-name="Wcircumflex" unicode="&#x174;" horiz-adv-x="892" 
d="M497 593l104 -384l148 480h139l-234 -689h-103l-106 391l-104 -391h-104l-232 689h138l147 -480l105 384h102zM275 769l109 163h123l110 -163h-94l-78 88l-76 -88h-94z" />
    <glyph glyph-name="wcircumflex" unicode="&#x175;" horiz-adv-x="774" 
d="M629 467h130l-167 -467h-102l-104 313l-101 -313h-101l-172 467h130l95 -295l94 295h108l95 -295zM214 547l109 163h123l110 -163h-94l-78 88l-76 -88h-94z" />
    <glyph glyph-name="Ycircumflex" unicode="&#x176;" horiz-adv-x="644" 
d="M387 312v-312h-131v314l-264 375h152l177 -265l179 265h153zM151 769l109 163h123l110 -163h-94l-78 88l-76 -88h-94z" />
    <glyph glyph-name="ycircumflex" unicode="&#x177;" horiz-adv-x="511" 
d="M372 467h130l-289 -695h-129l107 264l-182 431h130l116 -291zM87 547l109 163h123l110 -163h-94l-78 88l-76 -88h-94z" />
    <glyph glyph-name="Ydieresis" unicode="&#x178;" horiz-adv-x="644" 
d="M387 312v-312h-131v314l-264 375h152l177 -265l179 265h153zM236 919q28 0 48 -19t20 -46t-20 -46t-48 -19q-29 0 -49 18.5t-20 46.5t20 46.5t49 18.5zM361 807q-20 19 -20 47t20 46q20 19 49 19t48 -19q20 -18 20 -46t-20 -47q-19 -18 -48 -18t-49 18z" />
    <glyph glyph-name="Zacute" unicode="&#x179;" horiz-adv-x="587" 
d="M42 0v100l332 474h-319v115h484v-101l-335 -473h335v-115h-497zM215 766l105 163h128l-138 -163h-95z" />
    <glyph glyph-name="zacute" unicode="&#x17a;" horiz-adv-x="508" 
d="M459 467v-94l-245 -259h245v-114h-418v93l241 260h-226v114h403zM179 544l105 163h128l-138 -163h-95z" />
    <glyph glyph-name="Zdotaccent" unicode="&#x17b;" horiz-adv-x="587" 
d="M42 0v100l332 474h-319v115h484v-101l-335 -473h335v-115h-497zM218 850q0 29 21 49t51 20q31 0 52 -20t21 -49q0 -30 -21 -50t-52 -20q-30 0 -51 20t-21 50z" />
    <glyph glyph-name="zdotaccent" unicode="&#x17c;" horiz-adv-x="508" 
d="M459 467v-94l-245 -259h245v-114h-418v93l241 260h-226v114h403zM177 628q0 29 21 49t51 20q31 0 52 -20t21 -49q0 -30 -21 -50t-52 -20q-30 0 -51 20t-21 50z" />
    <glyph glyph-name="Zcaron" unicode="&#x17d;" horiz-adv-x="587" 
d="M42 0v100l332 474h-319v115h484v-101l-335 -473h335v-115h-497zM352 766h-123l-109 163h94l76 -89l78 89h94z" />
    <glyph glyph-name="zcaron" unicode="&#x17e;" horiz-adv-x="508" 
d="M459 467v-94l-245 -259h245v-114h-418v93l241 260h-226v114h403zM311 544h-123l-109 163h94l76 -89l78 89h94z" />
    <glyph glyph-name="longs" unicode="&#x17f;" horiz-adv-x="324" 
d="M311 721h51v-117h-51q-76 0 -76 -100v-504h-123v369h-89v98h89v37q0 103 51.5 160t147.5 57z" />
    <glyph glyph-name="florin" unicode="&#x192;" horiz-adv-x="623" 
d="M30 -189l23 115h54q71 0 94 99l70 341h-87l21 101h87l8 35q21 104 84 159.5t163 53.5l46 -1l-23 -116h-53q-45 0 -67 -31.5t-35 -99.5h99l-20 -101h-100q-57 -285 -77 -371q-20 -87 -82.5 -136.5t-153.5 -48.5q-39 0 -51 1z" />
    <glyph glyph-name="Aringacute" unicode="&#x1fa;" horiz-adv-x="654" 
d="M456 167h-257l-63 -167h-136l258 689h138l258 -689h-135zM291 988l79 122h128l-113 -133q57 -35 57 -101q0 -48 -34 -81t-83 -33q-47 0 -81 33q-33 33 -33 81q0 39 22 69.5t58 42.5zM242 279h172l-87 263zM268 876q0 -24 17 -40.5t40 -16.5q25 0 42 16.5t17 40.5
q0 25 -17 42t-42 17q-23 0 -40 -17t-17 -42z" />
    <glyph glyph-name="aringacute" unicode="&#x1fb;" horiz-adv-x="614" 
d="M545 0h-122v60q-20 -32 -62 -50.5t-83 -18.5q-97 0 -167 67q-71 68 -71 176t70 175q71 68 168 68q42 0 82.5 -17.5t62.5 -50.5v58h122v-467zM423 234q0 58 -39 92q-37 34 -89 34t-91 -36q-38 -35 -38 -90t38 -91q27 -27 66 -33t73 6.5t58 44t22 73.5zM245 760l79 122h128
l-113 -133q57 -35 57 -101q0 -48 -34 -81t-83 -33q-47 0 -81 33q-33 33 -33 81q0 39 22 69.5t58 42.5zM222 648q0 -24 17 -40.5t40 -16.5q25 0 42 16.5t17 40.5q0 25 -17 42t-42 17q-23 0 -40 -17t-17 -42z" />
    <glyph glyph-name="AEacute" unicode="&#x1fc;" horiz-adv-x="933" 
d="M873 689v-116h-298v-177h261v-114h-261v-166h308v-116h-435v1l-1 -1v163h-205l-104 -163h-152l435 689h452zM315 286h132v230zM422 766l105 163h128l-138 -163h-95z" />
    <glyph glyph-name="aeacute" unicode="&#x1fd;" horiz-adv-x="993" 
d="M599 276h240q-6 46 -38 72.5t-79 26.5q-50 0 -83 -26t-40 -73zM295 360q-52 0 -91 -36q-38 -35 -38 -90t38 -91q27 -27 66 -33t73 6.5t58 44t22 73.5q0 58 -39 92q-37 34 -89 34zM958 235q0 -12 -2 -42h-356q7 -46 42 -73t87 -27q38 0 70 16t47 44l94 -50
q-30 -55 -88 -84t-130 -29q-120 0 -186 87v-77h-113v60q-20 -32 -62 -50.5t-83 -18.5q-97 0 -167 67q-71 68 -71 176t70 175q71 68 168 68q42 0 82.5 -17.5t62.5 -50.5v58h113v-75q66 85 186 85q102 0 169 -67t67 -175zM423 544l105 163h128l-138 -163h-95z" />
    <glyph glyph-name="Oslashacute" unicode="&#x1fe;" horiz-adv-x="785" 
d="M344 766l105 163h128l-138 -163h-95zM173 66l-80 -82l-47 47l80 82q-83 100 -83 230q0 146 101 250t248 104q128 0 223 -81l79 81l47 -46l-80 -82q81 -99 81 -226q0 -147 -102 -250t-248 -103q-113 0 -202 65q-4 1 -17 11zM170 343q0 -76 45 -139l311 321q-56 46 -134 46
q-94 0 -158 -67q-64 -65 -64 -161zM392 116q92 0 157 66q65 67 65 161q0 73 -43 134l-309 -319q55 -42 130 -42z" />
    <glyph glyph-name="oslashacute" unicode="&#x1ff;" horiz-adv-x="566" 
d="M239 544l105 163h128l-138 -163h-95zM283 -10q-81 0 -142 43l-58 -59l-47 47l56 58q-52 62 -52 155q0 108 70 175q71 68 173 68q85 0 150 -49l51 53l47 -46l-52 -53q47 -64 47 -148q0 -108 -71 -176t-172 -68zM283 357q-52 0 -87 -35t-35 -88q0 -39 17 -67l168 173
q-29 17 -63 17zM283 109q53 0 87.5 34.5t34.5 90.5q0 33 -13 58l-165 -170q25 -13 56 -13z" />
    <glyph glyph-name="Scommaaccent" unicode="&#x218;" horiz-adv-x="577" 
d="M46 201h128q2 -41 34.5 -69t84.5 -28q50 0 81 23t33 60q2 34 -21.5 57t-73.5 37l-85 22q-174 51 -174 192q0 90 67 145q68 57 165 57q99 0 164 -57q65 -56 65 -151h-128q0 41 -27.5 65.5t-75.5 24.5q-45 0 -74 -22.5t-29 -58.5q0 -57 82 -79l85 -25q103 -28 148.5 -82.5
t39.5 -127.5q-5 -91 -74 -143q-68 -52 -168 -52q-110 0 -178 61q-69 62 -69 151zM254 -274l-64 29q33 47 44 85q12 39 10 104h107q-8 -146 -97 -218z" />
    <glyph glyph-name="scommaaccent" unicode="&#x219;" horiz-adv-x="454" 
d="M246 179l-64 16q-81 23 -106.5 57.5t-25.5 85.5q0 56 51 97q51 42 121 42q74 0 126 -36q53 -36 56 -111h-116q-1 23 -19 35.5t-44 12.5q-59 0 -59 -46q0 -26 49 -39l78 -19q38 -10 64 -28t37.5 -39.5t16 -38.5t4.5 -34q0 -68 -57 -106q-56 -38 -134 -38q-74 0 -131 42
q-56 44 -57 115h114q2 -25 27.5 -42.5t58.5 -16.5q26 1 43.5 14t17.5 33q1 17 -11.5 27.5t-39.5 16.5zM188 -274l-64 29q33 47 44 85q12 39 10 104h107q-8 -146 -97 -218z" />
    <glyph glyph-name="circumflex" unicode="&#x2c6;" horiz-adv-x="582" 
d="M120 547l109 163h123l110 -163h-94l-78 88l-76 -88h-94z" />
    <glyph glyph-name="caron" unicode="&#x2c7;" horiz-adv-x="582" 
d="M352 544h-123l-109 163h94l76 -89l78 89h94z" />
    <glyph glyph-name="breve" unicode="&#x2d8;" horiz-adv-x="507" 
d="M120 687h82q0 -55 51 -55q24 0 37.5 15.5t13.5 39.5h83q0 -59 -37 -94.5t-97 -35.5q-63 0 -98 37t-35 93z" />
    <glyph glyph-name="dotaccent" unicode="&#x2d9;" horiz-adv-x="365" 
d="M110 628q0 29 21 49t51 20q31 0 52 -20t21 -49q0 -30 -21 -50t-52 -20q-30 0 -51 20t-21 50z" />
    <glyph glyph-name="ring" unicode="&#x2da;" horiz-adv-x="531" 
d="M160 654q0 48 33 83q34 34 81 34q50 0 83.5 -33.5t33.5 -83.5q0 -48 -34 -81t-83 -33q-46 0 -81 33q-33 33 -33 81zM217 654q0 -24 17 -40.5t40 -16.5q25 0 42 16.5t17 40.5q0 25 -17 42t-42 17q-23 0 -40 -17t-17 -42z" />
    <glyph glyph-name="ogonek" unicode="&#x2db;" horiz-adv-x="528" 
d="M293 -122l5 25l69 4q1 -53 -29 -86.5t-73 -33.5t-74 31q-31 30 -31 71q0 29 9 46l51 94h59l-46 -125q-11 -36 17 -46q31 -8 43 20z" />
    <glyph glyph-name="tilde" unicode="&#x2dc;" horiz-adv-x="441" 
d="M176 607q-9 0 -17 -11.5t-9 -31.5h-70q3 62 30 93.5t66 31.5q24 0 51 -21q28 -20 37 -20t17.5 11t9.5 30h70q-3 -60 -31 -91.5t-66 -31.5q-22 0 -51 20q-28 21 -37 21z" />
    <glyph glyph-name="hungarumlaut" unicode="&#x2dd;" horiz-adv-x="520" 
d="M333 707h107l-121 -163h-97zM179 707h105l-110 -163h-94z" />
    <glyph glyph-name="Wgrave" unicode="&#x1e80;" horiz-adv-x="892" 
d="M497 593l104 -384l148 480h139l-234 -689h-103l-106 391l-104 -391h-104l-232 689h138l147 -480l105 384h102zM377 766l-138 163h128l105 -163h-95z" />
    <glyph glyph-name="wgrave" unicode="&#x1e81;" horiz-adv-x="774" 
d="M629 467h130l-167 -467h-102l-104 313l-101 -313h-101l-172 467h130l95 -295l94 295h108l95 -295zM336 544l-138 163h128l105 -163h-95z" />
    <glyph glyph-name="Wacute" unicode="&#x1e82;" horiz-adv-x="892" 
d="M749 689h139l-234 -689h-103l-106 391l-104 -391h-104l-232 689h138l147 -480l105 384h102l104 -384zM403 766l105 163h128l-138 -163h-95z" />
    <glyph glyph-name="wacute" unicode="&#x1e83;" horiz-adv-x="774" 
d="M592 0h-102l-104 313l-101 -313h-101l-172 467h130l95 -295l94 295h108l95 -295l95 295h130zM330 544l105 163h128l-138 -163h-95z" />
    <glyph glyph-name="Wdieresis" unicode="&#x1e84;" horiz-adv-x="892" 
d="M749 689h139l-234 -689h-103l-106 391l-104 -391h-104l-232 689h138l147 -480l105 384h102l104 -384zM360 919q28 0 48 -19t20 -46t-20 -46t-48 -19q-29 0 -49 18.5t-20 46.5t20 46.5t49 18.5zM485 807q-20 19 -20 47t20 46q20 19 49 19t48 -19q20 -18 20 -46t-20 -47
q-19 -18 -48 -18t-49 18z" />
    <glyph glyph-name="wdieresis" unicode="&#x1e85;" horiz-adv-x="774" 
d="M592 0h-102l-104 313l-101 -313h-101l-172 467h130l95 -295l94 295h108l95 -295l95 295h130zM299 697q28 0 48 -19t20 -46t-20 -46t-48 -19q-29 0 -49 18.5t-20 46.5t20 46.5t49 18.5zM424 585q-20 19 -20 47t20 46q20 19 49 19t48 -19q20 -18 20 -46t-20 -47
q-19 -18 -48 -18t-49 18z" />
    <glyph glyph-name="Ygrave" unicode="&#x1ef2;" horiz-adv-x="644" 
d="M387 312v-312h-131v314l-264 375h152l177 -265l179 265h153zM291 766l-138 163h128l105 -163h-95z" />
    <glyph glyph-name="ygrave" unicode="&#x1ef3;" horiz-adv-x="511" 
d="M372 467h130l-289 -695h-129l107 264l-182 431h130l116 -291zM232 544l-138 163h128l105 -163h-95z" />
    <glyph glyph-name="thinspace" unicode="&#x2009;" horiz-adv-x="14" 
 />
    <glyph glyph-name="endash" unicode="&#x2013;" horiz-adv-x="619" 
d="M556 181h-493v108h493v-108z" />
    <glyph glyph-name="emdash" unicode="&#x2014;" horiz-adv-x="830" 
d="M767 181h-704v108h704v-108z" />
    <glyph glyph-name="quoteleft" unicode="&#x2018;" horiz-adv-x="267" 
d="M185 714l54 -27q-21 -28 -41 -63q-42 -76 -42 -180h-104q3 82 46 158q45 78 87 112z" />
    <glyph glyph-name="quoteright" unicode="&#x2019;" horiz-adv-x="265" 
d="M95 421l-54 27q21 29 40 62q18 30 31 79.5t13 100.5h103q-1 -81 -46 -159q-42 -75 -87 -110z" />
    <glyph glyph-name="quotesinglbase" unicode="&#x201a;" horiz-adv-x="250" 
d="M55 -103l-54 26q30 44 41 64q43 75 43 179h103q-1 -81 -46 -159q-42 -75 -87 -110z" />
    <glyph glyph-name="quotedblleft" unicode="&#x201c;" horiz-adv-x="431" 
d="M349 714l54 -27q-18 -26 -41 -63q-42 -74 -42 -179h-104q3 82 46 158q44 77 87 111zM186 714l53 -27q-21 -28 -41 -63q-42 -76 -42 -179h-103q1 80 46 158q43 77 87 111z" />
    <glyph glyph-name="quotedblright" unicode="&#x201d;" horiz-adv-x="427" 
d="M95 421l-54 26q23 33 40 63q43 74 43 180h103q-1 -81 -46 -159q-43 -76 -86 -110zM258 421l-54 26q29 43 41 63q42 76 42 180h104q-3 -82 -47 -159q-43 -76 -86 -110z" />
    <glyph glyph-name="quotedblbase" unicode="&#x201e;" horiz-adv-x="413" 
d="M55 -103l-53 26q23 33 40 63q43 74 43 180h103q-1 -81 -46 -159q-42 -75 -87 -110zM219 -103l-54 26q30 44 41 64q17 29 29.5 78.5t12.5 100.5h103q-1 -81 -46 -159q-43 -76 -86 -110z" />
    <glyph glyph-name="dagger" unicode="&#x2020;" horiz-adv-x="413" 
d="M151 689h111v-173h111v-85h-111v-534h-111v534h-111v85h111v173z" />
    <glyph glyph-name="daggerdbl" unicode="&#x2021;" horiz-adv-x="441" 
d="M165 689h111v-173h111v-85h-111v-223h111v-84h-111v-227h-111v227h-111v84h111v223h-111v85h111v173z" />
    <glyph glyph-name="bullet" unicode="&#x2022;" horiz-adv-x="464" 
d="M121 131q-45 44 -45 107q0 64 45 107q46 43 111 43q66 0 110 -43q46 -43 46 -107t-46 -107q-44 -43 -110 -43q-65 0 -111 43z" />
    <glyph glyph-name="ellipsis" unicode="&#x2026;" horiz-adv-x="811" 
d="M80 11q-23 22 -23 55t23 54q23 22 56 22t56 -22q23 -21 23 -54t-23 -55q-23 -21 -56 -21t-56 21zM349 11q-22 22 -22 55t22 54q23 22 56 22t56 -22q24 -22 24 -54t-24 -54q-23 -22 -56 -22t-56 21zM619 11q-23 22 -23 55t23 54q23 22 56 22t56 -22q23 -21 23 -54t-23 -55
q-23 -21 -56 -21t-56 21z" />
    <glyph glyph-name="perthousand" unicode="&#x2030;" horiz-adv-x="995" 
d="M538 661l-325 -661h-68l325 661h68zM171 666q55 0 94 -39q40 -39 40 -95t-39 -95q-40 -38 -95 -38t-95 38q-38 40 -38 95t38 95q39 39 95 39zM228 532q0 23 -17 40t-40 17q-36 3 -51.5 -35t11.5 -62q24 -27 62 -11.5t35 51.5zM654 123q0 -56 -39 -95q-40 -38 -95 -38
t-95 38q-38 40 -38 95t38 95q39 39 95 39t95 -40q39 -39 39 -94zM577 123q0 23 -17 40t-40 17q-36 3 -51.5 -35t11.5 -62q24 -27 62 -11.5t35 51.5zM960 123q0 -56 -39 -95q-40 -38 -95 -38t-95 38q-38 40 -38 95t38 95q39 39 95 39t95 -40q39 -39 39 -94zM883 123
q0 23 -17 40t-40 17q-36 3 -51.5 -35t11.5 -62q24 -27 62 -11.5t35 51.5z" />
    <glyph glyph-name="guilsinglleft" unicode="&#x2039;" horiz-adv-x="322" 
d="M179 26l-138 207l138 207h98l-138 -207l138 -207h-98z" />
    <glyph glyph-name="guilsinglright" unicode="&#x203a;" horiz-adv-x="322" 
d="M143 440l138 -207l-138 -207h-98l138 207l-138 207h98z" />
    <glyph glyph-name="fraction" unicode="&#x2044;" horiz-adv-x="180" 
d="M275 669h76l-450 -679h-78z" />
    <glyph glyph-name="zerosuperior" unicode="&#x2070;" horiz-adv-x="356" 
d="M36 624q0 199 142 199t142 -199q0 -197 -142 -197t-142 197zM109 624q0 -126 69 -126t69 126q0 128 -69 128t-69 -128z" />
    <glyph glyph-name="foursuperior" unicode="&#x2074;" horiz-adv-x="350" 
d="M325 515h-51v-82h-73v82h-190l193 302h70v-238h51v-64zM201 709l-82 -130h82v130z" />
    <glyph glyph-name="fivesuperior" unicode="&#x2075;" horiz-adv-x="340" 
d="M24 506l61 40q11 -21 31.5 -34t42.5 -13q35 0 57 19t22 46q0 30 -20 47t-52 17q-53 0 -93 -38l-35 23l32 204h215v-68h-156l-13 -74q26 17 67 17q56 0 91.5 -34.5t35.5 -93.5q0 -61 -41 -99t-110 -38q-41 0 -77.5 21.5t-57.5 57.5z" />
    <glyph glyph-name="sixsuperior" unicode="&#x2076;" horiz-adv-x="339" 
d="M310 747l-67 -28q-17 35 -51 35q-38 0 -57.5 -33t-17.5 -84q9 18 30 31t47 13q48 0 84 -36q36 -37 35 -95q-1 -55 -39.5 -90t-96.5 -34q-54 1 -91 37t-42 96q-6 42 0 89t18.5 86.5t46.5 64.5t85 24q85 -5 116 -76zM124 556q0 -25 16.5 -41.5t40.5 -17.5q23 0 40 16.5
t18 40.5q0 24 -16.5 41t-39.5 18q-25 0 -42 -16.5t-17 -40.5z" />
    <glyph glyph-name="sevensuperior" unicode="&#x2077;" horiz-adv-x="324" 
d="M30 817h283l-186 -384h-83l152 315h-166v69z" />
    <glyph glyph-name="eightsuperior" unicode="&#x2078;" horiz-adv-x="345" 
d="M59 718q0 44 33.5 74.5t80.5 30.5t80 -30.5t33 -74.5q0 -39 -28 -64q56 -36 56 -97q0 -54 -41 -92t-100 -38q-58 0 -101 38q-41 38 -41 92q0 62 56 97q-28 28 -28 64zM104 558q-2 -40 43 -57t74 13q20 20 20 44t-19 44t-46 19h-9q-26 0 -44.5 -19t-18.5 -44zM131 717
q-4 -26 25.5 -37t46.5 9q19 19 8.5 43t-38.5 24q-18 0 -30 -11.5t-12 -27.5z" />
    <glyph glyph-name="ninesuperior" unicode="&#x2079;" horiz-adv-x="339" 
d="M37 503l68 28q17 -36 51 -36q37 0 56.5 33.5t18.5 84.5q-10 -18 -31 -31t-47 -13q-48 0 -84 36q-37 37 -35 95q2 55 40 89.5t96 33.5q55 -1 92 -37t42 -96q6 -98 -19 -174q-32 -93 -131 -89q-83 5 -117 76zM224 694q0 24 -16.5 41t-40.5 18q-24 0 -41 -16.5t-17 -40.5
q-1 -25 15.5 -41.5t40.5 -17.5q24 0 41 16t18 41z" />
    <glyph glyph-name="zeroinferior" unicode="&#x2080;" horiz-adv-x="356" 
d="M36 43q0 199 142 199t142 -199q0 -197 -142 -197t-142 197zM109 43q0 -126 69 -126t69 126q0 128 -69 128t-69 -128z" />
    <glyph glyph-name="oneinferior" unicode="&#x2081;" horiz-adv-x="212" 
d="M161 -149h-73v285l-66 -30v65l139 70v-390z" />
    <glyph glyph-name="twoinferior" unicode="&#x2082;" horiz-adv-x="321" 
d="M34 -149v38l157 187q22 26 22 50q0 20 -15 33t-39 13q-23 0 -39.5 -15.5t-20.5 -41.5l-67 13q9 53 44 83.5t86 30.5q52 0 88 -33t36 -83q0 -51 -41 -98l-93 -107h128v-70h-246z" />
    <glyph glyph-name="threeinferior" unicode="&#x2083;" horiz-adv-x="318" 
d="M98 148l-55 38q18 27 49 42.5t67 13.5q48 -3 79.5 -34t31.5 -73q0 -49 -48 -76q30 -11 48.5 -41.5t15.5 -62.5q-4 -49 -48 -81q-45 -32 -99 -28q-39 3 -71.5 25t-48.5 56l62 32q22 -43 63 -43q25 -1 44 13.5t21 34.5q1 24 -14 42t-46 17h-42v63h42q23 0 35 16.5t9 33.5
q-1 16 -13.5 27.5t-30.5 11.5q-33 1 -51 -27z" />
    <glyph glyph-name="fourinferior" unicode="&#x2084;" horiz-adv-x="347" 
d="M323 -66h-51v-83h-73v83h-190l193 302h70v-238h51v-64zM199 128l-82 -130h82v130z" />
    <glyph glyph-name="fiveinferior" unicode="&#x2085;" horiz-adv-x="338" 
d="M54 -55l31 20q11 -21 31.5 -34t42.5 -13q35 0 57 19t22 46q0 30 -20 47t-52 17q-53 0 -93 -38l-35 23l32 204h215v-68h-156l-13 -75q26 18 67 18q56 0 91.5 -34.5t35.5 -93.5q0 -61 -41.5 -99.5t-109.5 -38.5q-40 0 -77 21.5t-58 57.5z" />
    <glyph glyph-name="sixinferior" unicode="&#x2086;" horiz-adv-x="338" 
d="M309 166l-67 -28q-17 35 -51 35q-38 0 -57.5 -33t-17.5 -85q7 18 29 31.5t48 13.5q48 0 84 -37q36 -36 35 -94q-1 -55 -39.5 -90t-96.5 -34q-54 1 -91 37t-42 96q-6 41 0 88t18.5 86.5t46.5 65t85 24.5q85 -5 116 -76zM123 -26q0 -24 16.5 -41t40.5 -17q23 -1 40 16
t18 40q0 25 -16.5 42t-39.5 17q-25 1 -42 -15.5t-17 -41.5z" />
    <glyph glyph-name="seveninferior" unicode="&#x2087;" horiz-adv-x="314" 
d="M27 236h283l-186 -385h-83l152 316h-166v69z" />
    <glyph glyph-name="eightinferior" unicode="&#x2088;" horiz-adv-x="345" 
d="M59 137q0 44 33.5 74.5t80.5 30.5t80 -30.5t33 -74.5q0 -39 -28 -64q56 -36 56 -97q0 -54 -41 -92t-100 -38q-58 0 -101 38q-41 38 -41 92q0 62 56 97q-28 28 -28 64zM104 -23q-2 -40 43.5 -57t73.5 14q20 19 20 43t-19.5 44t-45.5 19h-9q-26 0 -44.5 -19t-18.5 -44z
M131 136q0 -18 11.5 -29.5t30.5 -11.5q26 1 36.5 21t0 39.5t-36.5 19.5q-18 0 -30 -11.5t-12 -27.5z" />
    <glyph glyph-name="nineinferior" unicode="&#x2089;" horiz-adv-x="339" 
d="M37 -79l68 29q17 -36 51 -36q37 0 56.5 33t18.5 85q-9 -18 -30.5 -31t-47.5 -13q-48 0 -84 36q-37 36 -35 95q2 54 40.5 89t95.5 34q55 -1 92 -37t42 -96q6 -99 -19 -173q-31 -92 -131 -91q-83 5 -117 76zM224 112q0 25 -16.5 42t-40.5 17q-24 1 -41 -16t-17 -40
q-1 -25 15.5 -42t40.5 -17t41 16t18 40z" />
    <glyph glyph-name="colonmonetary" unicode="&#x20a1;" horiz-adv-x="704" 
d="M324 -4l-38 -107l-54 20l36 102q-40 15 -66 32l-43 -118l-54 19l49 136q-54 49 -84 117.5t-30 145.5q0 144 96 246q96 103 237 107l39 109l54 -20l-33 -92q39 -4 73 -17l33 93l54 -20l-34 -96q59 -33 105 -92l-102 -73q-22 28 -47 44l-149 -419q18 -2 21 -2
q53 0 100.5 25t78.5 68l101 -74q-46 -66 -119.5 -103t-160.5 -37q-31 0 -63 6zM392 575l-147 -410q28 -26 64 -39l156 435q-34 12 -73 14zM168 343q0 -71 34 -127l125 351q-71 -20 -115 -82t-44 -142z" />
    <glyph glyph-name="lira" unicode="&#x20a4;" horiz-adv-x="667" 
d="M399 287v-60h-128v-115h205q11 0 18 9t7 22v39h121v-54q0 -55 -32.5 -91.5t-83.5 -36.5h-459v112h102v115h-81v60h81v53h-81v60h81v71q0 103 57 164q59 62 153 62q93 0 154 -57q62 -57 62 -163h-125q0 47 -26 70.5t-67 21.5q-37 -1 -61.5 -24.5t-24.5 -61.5v-83h128v-60
h-128v-53h128z" />
    <glyph glyph-name="uni20A6" unicode="&#x20a6;" horiz-adv-x="786" 
d="M139 379v108h-90v55h90v147h119l86 -147h177v147h128v-147h87v-55h-87v-108h87v-55h-87v-324h-117l-190 324h-76v-324h-127v324h-90v55h90zM521 487h-144l63 -108h81v108zM521 324h-49l49 -83v83zM309 379l-43 74v-74h43z" />
    <glyph glyph-name="peseta" unicode="&#x20a7;" horiz-adv-x="755" 
d="M129 0v385h-80v55h80v52h-80v55h80v142h280q76 0 128.5 -38.5t75.5 -103.5h101v-55h-88q2 -32 2 -34q0 -14 -1 -18h87v-55h-97q-19 -65 -72.5 -102.5t-135.5 -37.5h-152v-245h-128zM500 458q0 19 -4 34h-239v-52h241q2 16 2 18zM407 575h-150v-28h211q-25 28 -61 28z
M257 385v-26h146q43 0 69 26h-215z" />
    <glyph glyph-name="rupee" unicode="&#x20a8;" horiz-adv-x="701" 
d="M376 453h-313v58h307q-24 64 -86 64h-221q0 22 -1 57v57h594v-58h-212q52 -49 62 -120h150v-58h-146q-4 -80 -49 -135.5t-126 -67.5l176 -250h-154l-162 245h-132v114h217q41 0 66.5 26.5t29.5 67.5z" />
    <glyph glyph-name="uni20A9" unicode="&#x20a9;" horiz-adv-x="993" 
d="M290 0l-109 322h-133v55h115l-22 64h-93v55h75l-65 193h138l59 -193h166l27 97h102l26 -97h166l60 193h139l-66 -193h68v-55h-87l-21 -64h108v-55h-127l-109 -322h-103l-87 322h-38l-85 -322h-104zM406 441h-134l19 -64h98zM725 441h-134l17 -64h98zM374 322h-66l35 -113
zM689 322h-66l31 -113z" />
    <glyph glyph-name="afii57636" unicode="&#x20aa;" horiz-adv-x="884" 
d="M605 332v-136h-122v119q0 43 -30.5 72t-78.5 29h-41h-120v-416h-123v538h257q44 0 72 -4q84 -8 135 -64t51 -138zM279 206v136h122v-119q0 -43 30.5 -72t78.5 -29h41h120v416h123v-538h-257q-36 0 -72 3q-84 8 -135 64q-51 58 -51 139z" />
    <glyph glyph-name="Euro" unicode="&#x20ac;" horiz-adv-x="835" 
d="M532 430v-60h-484v60h117q29 117 121 191q92 76 216 76q85 0 158 -36t119 -100l-102 -73q-67 88 -175 88q-69 0 -124.5 -40t-79.5 -106h234zM48 254v60h484v-60h-233q24 -64 79.5 -103.5t123.5 -39.5q53 0 100.5 25t78.5 68l101 -74q-46 -66 -119.5 -103t-160.5 -37
q-121 0 -215 74q-92 74 -121 190h-118z" />
    <glyph glyph-name="uni2113" unicode="&#x2113;" horiz-adv-x="399" 
d="M176 525v-245l34 2q31 0 31 51v192q0 65 -31 65q-34 0 -34 -65zM230 105l97 -5v-100h-117q-145 0 -145 166v365q0 166 145 166q142 0 142 -171v-187q0 -86 -37 -126t-139 -40v-7q0 -32 11.5 -46t42.5 -15z" />
    <glyph glyph-name="afii61352" unicode="&#x2116;" horiz-adv-x="979" 
d="M599 0h-116l-266 453v-453h-128v689h120l262 -448v448h128v-689zM799 694q55 0 94 -39t39 -94t-39 -94q-40 -38 -94 -38q-55 0 -95 38q-38 38 -38 94t38 94q39 39 95 39zM756 604q-17 -18 -17 -43t17 -43q18 -17 43 -17t42 17q18 18 18 43t-18 43q-17 18 -42 18t-43 -18z
M925 325h-253v60h253v-60z" />
    <glyph glyph-name="trademark" unicode="&#x2122;" horiz-adv-x="849" 
d="M407 319h-77l36 301h-107v-301h-78v301h-118v69h378l115 -241l113 241h67l45 -370h-77l-28 238l-91 -197h-58l-92 197z" />
    <glyph glyph-name="estimated" unicode="&#x212e;" horiz-adv-x="651" 
d="M607 279h-429v-193q66 -63 152 -63q72 0 120 31t90 96l31 -19q-47 -72 -102.5 -106.5t-138.5 -34.5q-118 0 -195 84q-76 85 -76 206q0 124 75 206q75 84 200 84t198 -85q75 -84 75 -206zM178 312h309v163q-68 62 -153 62q-96 0 -156 -62v-163z" />
    <glyph glyph-name="minus" unicode="&#x2212;" horiz-adv-x="530" 
d="M460 310v-95h-390v95h390z" />
    <glyph glyph-name="notequal" unicode="&#x2260;" horiz-adv-x="610" 
d="M534 135h-262l-52 -106h-70l52 106h-128v94h173l51 105h-224v94h270l50 101h71l-50 -101h119v-94h-165l-51 -105h216v-94z" />
    <glyph glyph-name="lessequal" unicode="&#x2264;" horiz-adv-x="642" 
d="M567 249v-105l-504 192v104l504 192v-105l-369 -139zM562 88v-88h-492v88h492z" />
    <glyph glyph-name="greaterequal" unicode="&#x2265;" horiz-adv-x="642" 
d="M579 440v-104l-504 -192v105l369 139l-369 139v105zM80 0v88h492v-88h-492z" />
    <glyph glyph-name="commaaccent" unicode="&#xf6c3;" horiz-adv-x="301" 
d="M134 -274l-64 29q33 47 44 85q12 39 10 104h107q-8 -146 -97 -218z" />
    <glyph glyph-name="rupiah" unicode="&#xf6dd;" horiz-adv-x="1162" 
d="M342 575h-142v-216h138q45 0 71 31t26 76t-25 77t-68 32zM393 250l176 -250h-154l-162 245h-53v-245h-128v689h276q107 0 163 -66q57 -65 57 -157q0 -80 -45 -141q-43 -61 -130 -75zM632 467h122v-63q18 33 58 53t88 20q93 0 161 -68q67 -67 67 -175q0 -110 -67 -177
q-66 -67 -161 -67q-48 0 -88 19.5t-58 52.5v-289h-122v694zM756 232q0 -56 36 -91t88 -35t87 35q36 35 36 91t-36 92q-35 36 -87 36q-53 0 -88.5 -36t-35.5 -92z" />
    <glyph glyph-name="apple" unicode="&#xf8ff;" horiz-adv-x="847" 
d="M80 687h687v-687h-687v687zM426 332l-262 263v-377h81l-74 75v178l255 -253l256 253v-178l-74 -75h84v377zM193 96l-14 36h-15v-53h9v37l13 -37h10l11 37v-37h9v53h-14zM248 132q-25 0 -25 -27q0 -26 25 -26q11 0 17 8t6 18q0 27 -23 27zM248 89q-6 0 -11.5 5.5
t-5.5 10.5q0 6 5 11.5t12 5.5q12 0 12 -17q0 -16 -12 -16zM284 99h-13q0 -20 22 -20t22 17q0 11 -15 14q-16 3 -16 6q0 6 9 6q10 0 10 -6h9q0 16 -19 16t-19 -16q0 -8 16 -15q13 0 13 -5q0 -7 -10 -7q-9 0 -9 10zM315 132v-10h17v-43h8v43h15v10h-40zM398 79l-21 53h-9
l-22 -53h12l4 13h22l3 -13h11zM371 119h3l7 -18h-16zM426 132h-28v-53h9v22h13q9 0 9 -9v-13h13q-3 3 -3 13q0 9 -7 13q7 3 7 11q0 16 -13 16zM420 108h-13v14h13q9 0 9 -6q0 -8 -9 -8zM466 132h-20v-53h20q25 0 25 29q0 24 -25 24zM466 89h-8v33h4q17 0 17 -17q0 -6 -4 -11
t-9 -5zM531 122v10h-37v-53h40v10h-28v12h25v9h-25v12h25zM543 99h-9q0 -20 22 -20t22 17q0 11 -15 14q-17 3 -17 6q0 6 7 6q12 0 12 -6h10q0 16 -19 16q-5 0 -11 -2.5t-9.5 -7t0.5 -10t17 -11.5q12 0 12 -5q0 -7 -9 -7q-13 0 -13 10zM589 79v53h-7v-53h7zM633 86l4 -7h6v29
h-22v-9h12q-4 -10 -12 -10q-6 0 -11 5t-5 11t4.5 11.5t11.5 5.5q9 0 9 -10h13q-5 20 -22 20q-11 0 -18 -8t-7 -19q0 -10 7 -18t18 -8q9 0 12 7zM679 99l-22 33h-8v-53h8v33l22 -33h13v53h-13v-33z" />
    <glyph glyph-name="NULL" horiz-adv-x="0" 
 />
    <glyph glyph-name="CR" horiz-adv-x="333" 
 />
    <glyph glyph-name="published" horiz-adv-x="801" 
d="M365 280v-122h-69v353h136q53 0 83.5 -33t30.5 -83q0 -44 -30 -80q-29 -35 -84 -35h-67zM365 443v-95h65q28 0 39.5 24t0.5 47.5t-38 23.5h-67zM152 93q-101 104 -101 250t101 250q102 104 248 104t248 -104t102 -250q0 -147 -102 -250t-248 -103t-248 103zM196 549
q-84 -86 -84 -206q0 -121 84 -206t204 -85t204 85t84 206q0 120 -84 206t-204 86t-204 -86z" />
    <glyph glyph-name="frenchfranc" horiz-adv-x="737" 
d="M491 0h-118v310h-154v-310h-127v689h417v-115h-290v-152h272v-109q35 120 125 120q58 0 86 -18l-21 -112q-31 16 -70 16q-120 0 -120 -198v-121z" />
    <glyph glyph-name="parenleft.case" horiz-adv-x="378" 
d="M42 341q0 207 85 337q86 131 217 131v-102q-80 0 -138 -108q-58 -107 -58 -258q0 -149 58 -255t138 -106v-101q-131 0 -217 128q-85 127 -85 334z" />
    <glyph glyph-name="parenright.case" horiz-adv-x="378" 
d="M336 341q0 -207 -85 -334q-86 -128 -217 -128v101q79 0 137 106q59 107 59 255q0 149 -59 258q-58 108 -137 108v102q131 0 217 -131q85 -130 85 -337z" />
    <glyph glyph-name="hyphen.case" horiz-adv-x="477" 
d="M414 303h-351v102h351v-102z" />
    <glyph glyph-name="at.case" horiz-adv-x="967" 
d="M590 245v127q0 52 -36 86q-35 35 -85 35q-49 0 -86 -35q-35 -35 -35 -86q0 -49 35 -84q37 -35 86 -35q45 0 86 33v-91q-43 -24 -86 -24q-85 0 -144 58q-59 59 -59 143q0 85 59 144q61 59 144 59q82 0 141 -55q60 -56 63 -138v-143q0 -62 64 -62q63 0 89 75q20 60 20 133
q0 145 -108 242q-107 97 -259 97q-147 0 -248 -104t-101 -253q0 -147 101 -250q101 -102 248 -102h29v-83h-29q-183 0 -307 126q-125 127 -125 309q0 183 125 311q126 129 307 129q118 3 223 -53t167.5 -155t60.5 -214q0 -99 -42 -189q-22 -46 -61.5 -73.5t-89.5 -27.5
q-67 0 -107 37.5t-40 112.5z" />
    <glyph glyph-name="bracketleft.case" horiz-adv-x="332" 
d="M296 -115h-220v916h220v-95h-112v-725h112v-96z" />
    <glyph glyph-name="bracketright.case" horiz-adv-x="332" 
d="M36 801h220v-916h-220v96h112v725h-112v95z" />
    <glyph glyph-name="braceleft.case" horiz-adv-x="407" 
d="M34 302v83q24 0 42.5 16t18.5 40v162q0 89 57 143q58 55 143 55h78v-94h-81q-38 0 -64.5 -27.5t-26.5 -68.5v-153q0 -41 -19 -72t-49 -43q30 -12 49 -43t19 -71v-147q0 -41 27 -71t64 -30h81v-96h-78q-85 0 -143 55q-57 54 -57 143v164q0 23 -18 39t-43 16z" />
    <glyph glyph-name="braceright.case" horiz-adv-x="407" 
d="M373 385v-83q-25 0 -43 -16t-18 -39v-164q0 -89 -58 -143q-56 -55 -142 -55h-78v96h81q37 0 64 30t27 71v147q0 40 19 71t49 43q-30 12 -49 43t-19 72v153q0 41 -26.5 68.5t-64.5 27.5h-81v94h78q86 0 142 -55q58 -54 58 -143v-162q0 -24 18 -40t43 -16z" />
    <glyph glyph-name="exclamdown.case" horiz-adv-x="280" 
d="M193 487l19 -487h-143l19 487h105zM139 698q33 0 56.5 -21.5t23.5 -54.5t-23.5 -54.5t-56.5 -21.5q-32 0 -55 22t-23 54t23 54t55 22z" />
    <glyph glyph-name="guillemotleft.case" horiz-adv-x="522" 
d="M188 138l-138 207l138 207h98l-138 -207l138 -207h-98zM365 138l-138 207l138 207h98l-138 -207l138 -207h-98z" />
    <glyph glyph-name="periodcentered.case" horiz-adv-x="278" 
d="M138 501q33 0 56.5 -21.5t23.5 -54.5t-23.5 -54.5t-56.5 -21.5q-32 0 -55 22t-23 54t23 54t55 22z" />
    <glyph glyph-name="guillemotright.case" horiz-adv-x="522" 
d="M157 552l138 -207l-138 -207h-98l138 207l-138 207h98zM334 552l138 -207l-138 -207h-98l138 207l-138 207h98z" />
    <glyph glyph-name="questiondown.case" horiz-adv-x="491" 
d="M233 452l2 36h119l2 -36q0 -65 -24 -113q-9 -16 -35 -36q-25 -18 -42 -27l-58 -29q-38 -17 -38 -65q0 -31 25.5 -51.5t61.5 -20.5q37 0 61 24t24 63h121q0 -95 -58 -152q-57 -57 -148 -57t-150 53q-59 54 -59 142q0 69 38 119.5t100 69.5q31 10 44.5 27.5t13.5 52.5z
M372 620q0 -32 -23 -54t-56 -22t-56 22t-23 54q0 33 23 55t56 22t56 -22t23 -55z" />
    <glyph glyph-name="endash.case" horiz-adv-x="621" 
d="M557 293h-493v108h493v-108z" />
    <glyph glyph-name="emdash.case" horiz-adv-x="832" 
d="M768 293h-704v108h704v-108z" />
    <glyph glyph-name="bullet.case" horiz-adv-x="468" 
d="M123 243q-45 43 -45 107t45 107q46 43 111 43q66 0 110 -43q46 -43 46 -107t-46 -107q-44 -43 -110 -43q-65 0 -111 43z" />
    <glyph glyph-name="guilsinglleft.case" horiz-adv-x="345" 
d="M188 138l-138 207l138 207h98l-138 -207l138 -207h-98z" />
    <glyph glyph-name="guilsinglright.case" horiz-adv-x="345" 
d="M157 552l138 -207l-138 -207h-98l138 207l-138 207h98z" />
    <glyph glyph-name="cent.case" horiz-adv-x="537" 
d="M248 692h69v-104q111 -9 172 -90l-97 -73q-34 46 -97 46q-52 0 -92 -35q-39 -34 -39 -89t39 -92q39 -36 92 -36q62 0 97 47l98 -72q-63 -82 -173 -91v-113h-69v116q-88 16 -147 81q-58 64 -58 160q0 94 58 158q57 63 147 80v107z" />
    <glyph glyph-name="zero.tnum" horiz-adv-x="580" 
d="M48 327q0 339 243 339q137 0 192 -100q48 -88 48 -239q0 -75 -11.5 -132.5t-37.5 -105.5t-74 -73.5t-117 -25.5q-243 0 -243 337zM171 327q0 -217 120 -217q118 0 118 217q0 219 -118 219q-120 0 -120 -219z" />
    <glyph glyph-name="one.tnum" horiz-adv-x="580" 
d="M148 449v110l233 103v-662h-123v493z" />
    <glyph glyph-name="two.tnum" horiz-adv-x="580" 
d="M492 117v-117h-418v63l267 320q40 46 40 86q0 33 -26.5 55.5t-67.5 22.5q-40 0 -68 -26.5t-34 -68.5l-114 21q13 88 74 141q59 52 147 52q87 0 149 -56t62 -141q0 -88 -70 -167l-162 -185h221z" />
    <glyph glyph-name="three.tnum" horiz-adv-x="580" 
d="M275 291h-70v109h70q41 -2 57 24q17 26 17 48q0 26 -14.5 47t-43.5 27q-64 8 -101 -40l-96 63q28 48 81.5 74.5t116.5 22.5q84 -5 136 -57q53 -53 53 -126q0 -39 -22 -73t-59 -55q50 -19 82 -72t27 -106q-9 -89 -82 -141t-170 -45q-66 4 -121 41.5t-82 96.5l53 26l54 28
q15 -31 44.5 -52t61.5 -21q47 0 78.5 27.5t31.5 69.5q0 9 -4 21t-13.5 28t-31.5 26t-53 9z" />
    <glyph glyph-name="four.tnum" horiz-adv-x="580" 
d="M335 477l-145 -228h145v228zM544 249v-107h-87v-142h-122v142h-323l326 512h119v-405h87z" />
    <glyph glyph-name="five.tnum" horiz-adv-x="580" 
d="M410 224q0 53 -35 83t-91 30q-88 0 -150 -66l-70 42l55 341h372v-113h-274l-23 -134q41 35 121 35q94 0 155 -58q62 -57 62 -160q0 -104 -72 -169q-71 -65 -189 -65q-68 0 -130 38t-97 100q5 2 52 32q48 31 51 32q20 -36 54 -58.5t70 -22.5q62 0 100.5 32.5t38.5 80.5z
" />
    <glyph glyph-name="six.tnum" horiz-adv-x="580" 
d="M396 207q1 41 -27 70.5t-69 30.5q-40 1 -71 -28q-29 -28 -31 -70q0 -42 28.5 -71.5t69.5 -29.5q41 -1 70 27.5t30 70.5zM320 422q82 0 142 -61q61 -61 60 -161q-1 -93 -67 -152t-165 -58q-91 1 -154 63t-71 164q-3 62 -2.5 125.5t17 122.5t43.5 104.5t77.5 72t118.5 24.5
q70 -3 118 -32t79 -95l-113 -48q-28 60 -88 60q-67 0 -100 -60q-32 -59 -27 -143q10 29 48 51.5t84 22.5z" />
    <glyph glyph-name="seven.tnum" horiz-adv-x="580" 
d="M67 539v115h479l-313 -654h-140l259 539h-285z" />
    <glyph glyph-name="eight.tnum" horiz-adv-x="580" 
d="M216 484q0 -30 21 -50.5t54 -20.5q32 0 52 20.5t20 50.5q0 28 -20.5 48t-52.5 20t-53 -20t-21 -48zM171 216q0 -45 35 -78q35 -32 84 -32q48 0 83 32q35 33 35 78q0 44 -33 75q-33 33 -78 33h-18q-45 0 -77 -33q-31 -32 -31 -75zM97 488q0 73 56 126q55 52 137 52
q81 0 136 -52q57 -52 57 -126q0 -66 -49 -112q45 -26 70.5 -69.5t25.5 -94.5q0 -93 -70 -157q-71 -65 -170 -65q-100 0 -171 65q-70 64 -70 157q0 108 96 164q-48 46 -48 112z" />
    <glyph glyph-name="nine.tnum" horiz-adv-x="580" 
d="M383 445q0 42 -28.5 71.5t-69.5 30.5t-70 -28t-30 -70t27 -70.5t69 -30.5q41 -2 71 27q29 28 31 70zM260 234q-81 0 -142 61q-60 62 -59 161q1 92 66 151q66 59 165 58q93 -2 154 -63q63 -62 72 -163q3 -62 2.5 -125.5t-17 -123t-43.5 -105t-77.5 -72t-118.5 -23.5
q-70 3 -118 32t-79 95l113 48q28 -60 88 -60q67 0 99 59q33 58 28 144q-10 -29 -48 -51.5t-85 -22.5z" />
    <glyph glyph-name="zero.taboldstyle" horiz-adv-x="580" 
d="M290 -9q-103 0 -177 73q-74 74 -74 189q0 117 74 189q73 73 177 73q105 0 178 -73q74 -72 74 -189q0 -115 -74 -189q-73 -73 -178 -73zM290 107q54 0 95 41t41 105q0 65 -40 105t-96 40q-55 0 -95 -40q-39 -40 -39 -105t40 -105q41 -41 94 -41z" />
    <glyph glyph-name="one.taboldstyle" horiz-adv-x="580" 
d="M141 393l259 124v-517h-123v334l-136 -61v120z" />
    <glyph glyph-name="two.taboldstyle" horiz-adv-x="580" 
d="M485 111v-111h-400v66l235 240q34 31 34 54q0 21 -18.5 35t-47.5 14q-31 0 -51.5 -17t-24.5 -47l-119 16q9 75 61.5 119t135.5 44q84 0 140 -47t56 -112q0 -66 -70 -133l-128 -121h197z" />
    <glyph glyph-name="six.taboldstyle" horiz-adv-x="580" 
d="M396 207q1 41 -27 70.5t-69 30.5q-40 1 -71 -28q-29 -28 -31 -70q0 -42 28.5 -71.5t69.5 -29.5q41 -1 70 27.5t30 70.5zM320 422q82 0 142 -61q61 -61 60 -161q-1 -93 -67 -152t-165 -58q-91 1 -154 63t-71 164q-3 62 -2.5 125.5t17 122.5t43.5 104.5t77.5 72t118.5 24.5
q70 -3 118 -32t79 -95l-113 -48q-28 60 -88 60q-67 0 -100 -60q-32 -59 -27 -143q10 29 48 51.5t84 22.5z" />
    <glyph glyph-name="eight.taboldstyle" horiz-adv-x="580" 
d="M216 484q0 -30 21 -50.5t54 -20.5q32 0 52 20.5t20 50.5q0 28 -20.5 48t-52.5 20t-53 -20t-21 -48zM171 216q0 -45 35 -78q35 -32 84 -32q48 0 83 32q35 33 35 78q0 44 -33 75q-33 33 -78 33h-18q-45 0 -77 -33q-31 -32 -31 -75zM97 488q0 73 56 126q55 52 137 52
q81 0 136 -52q57 -52 57 -126q0 -66 -49 -112q45 -26 70.5 -69.5t25.5 -94.5q0 -93 -70 -157q-71 -65 -170 -65q-100 0 -171 65q-70 64 -70 157q0 108 96 164q-48 46 -48 112z" />
    <glyph glyph-name="three.taboldstyle" horiz-adv-x="580" 
d="M277 102h-70v109h70q41 -1 57 24q17 26 17 48q0 26 -14.5 47t-43.5 27q-64 8 -101 -40l-96 63q28 48 81.5 74.5t116.5 22.5q84 -5 136 -57q53 -53 53 -126q0 -39 -22 -73t-59 -55q50 -19 82 -72t27 -106q-9 -88 -82 -140q-75 -53 -170 -46q-66 4 -121 41.5t-82 96.5
q6 2 53 27l54 27q15 -31 44.5 -52t61.5 -21q47 0 78.5 27.5t31.5 69.5q0 9 -4 21t-13.5 28t-31.5 26t-53 9z" />
    <glyph glyph-name="four.taboldstyle" horiz-adv-x="580" 
d="M337 288l-145 -227h145v227zM547 61v-107h-87v-142h-123v142h-323l326 512h120v-405h87z" />
    <glyph glyph-name="five.taboldstyle" horiz-adv-x="580" 
d="M410 36q0 54 -34.5 83.5t-91.5 29.5q-90 0 -150 -65l-70 42l55 340h372v-113h-274l-23 -134q42 36 121 36q94 0 155 -58q62 -59 62 -161q0 -104 -72 -169q-71 -65 -189 -65q-68 0 -130 38t-97 100l52 32l52 32q19 -36 52.5 -58t70.5 -22q63 0 101 32t38 80z" />
    <glyph glyph-name="seven.taboldstyle" horiz-adv-x="580" 
d="M68 351v115h479l-314 -654h-140l259 539h-284z" />
    <glyph glyph-name="nine.taboldstyle" horiz-adv-x="580" 
d="M386 257q0 42 -28.5 71.5t-69.5 30.5t-70 -28t-30 -70t27 -70.5t69 -30.5q41 -2 71 27q29 28 31 70zM263 46q-81 0 -142 61q-60 62 -59 161q1 92 66 151q66 59 165 58q93 -2 154 -63q63 -62 72 -163q3 -62 2.5 -125.5t-17 -123t-43.5 -105t-77.5 -72t-118.5 -23.5
q-70 3 -118 32t-79 95l113 48q29 -60 88 -60q67 0 99 59q33 58 28 144q-10 -29 -48 -51.5t-85 -22.5z" />
    <glyph glyph-name="zero.oldstyle" horiz-adv-x="600" 
d="M299 -9q-103 0 -177 73q-74 74 -74 189q0 117 74 189q73 73 177 73q105 0 178 -73q74 -72 74 -189q0 -115 -74 -189q-73 -73 -178 -73zM299 107q54 0 95 41t41 105t-41 105q-40 40 -95 40t-95 -40q-39 -40 -39 -105t40 -105q41 -41 94 -41z" />
    <glyph glyph-name="one.oldstyle" horiz-adv-x="379" 
d="M41 393l259 124v-517h-122v334l-137 -61v120z" />
    <glyph glyph-name="two.oldstyle" horiz-adv-x="522" 
d="M457 111v-111h-400v66l235 240q33 32 33 54q0 21 -18 35t-47 14q-31 0 -51.5 -17t-24.5 -47l-119 16q8 75 61 119t136 44q84 0 140 -47q55 -46 55 -112q0 -67 -70 -133l-128 -121h198z" />
    <glyph glyph-name="three.oldstyle" horiz-adv-x="527" 
d="M251 102h-70v109h70q41 -1 57 24q17 26 17 48q0 26 -14.5 47t-43.5 27q-64 8 -101 -40l-96 63q28 48 81.5 74.5t116.5 22.5q84 -5 136 -57q53 -53 53 -126q0 -39 -22 -73t-59 -55q50 -19 82 -72t27 -106q-9 -88 -82 -140q-75 -53 -170 -46q-66 4 -121 41.5t-82 96.5
q6 2 53 27l54 27q15 -31 44.5 -52t61.5 -21q47 0 78.5 27.5t31.5 69.5q0 9 -4 21t-13.5 28t-31.5 26t-53 9z" />
    <glyph glyph-name="four.oldstyle" horiz-adv-x="586" 
d="M340 288l-145 -227h145v227zM550 61v-107h-87v-142h-123v142h-322l325 512h120v-405h87z" />
    <glyph glyph-name="five.oldstyle" 
d="M405 35q0 54 -35 84t-91 30q-89 0 -151 -66l-69 42l55 341h371v-114h-273l-24 -133q46 35 121 35q94 0 155 -58q62 -59 62 -161q0 -103 -72 -168q-71 -65 -189 -65q-68 0 -130 38t-97 100q8 4 53 33l51 31q19 -37 53 -59t70 -22q63 0 101.5 32t38.5 80z" />
    <glyph glyph-name="six.oldstyle" horiz-adv-x="573" 
d="M393 207q1 41 -27 70.5t-69 30.5q-40 1 -71 -28q-29 -28 -31 -70q0 -42 28.5 -71.5t69.5 -29.5q41 -1 70 27.5t30 70.5zM317 422q82 0 142 -61q61 -61 60 -161q-1 -93 -67 -152t-165 -58q-91 1 -154 63t-71 164q-3 62 -2.5 125.5t17 122.5t43.5 104.5t77.5 72t118.5 24.5
q70 -3 118 -32t79 -95l-113 -48q-29 60 -88 60q-67 0 -100 -60q-32 -59 -27 -143q10 29 48 51.5t84 22.5z" />
    <glyph glyph-name="seven.oldstyle" horiz-adv-x="518" 
d="M37 351v115h479l-313 -654h-140l259 539h-285z" />
    <glyph glyph-name="eight.oldstyle" horiz-adv-x="584" 
d="M218 484q0 -30 21 -50.5t54 -20.5q32 0 52 20.5t20 50.5q0 28 -20.5 48t-52.5 20t-53 -20t-21 -48zM173 216q0 -45 35 -78q35 -32 84 -32q48 0 83 32q35 33 35 78q0 44 -33 75q-33 33 -78 33h-18q-45 0 -77 -33q-31 -32 -31 -75zM99 488q0 73 56 126q55 52 137 52
q81 0 136 -52q57 -52 57 -126q0 -66 -49 -112q45 -26 70.5 -69.5t25.5 -94.5q0 -93 -70 -157q-71 -65 -170 -65q-100 0 -171 65q-70 64 -70 157q0 108 96 164q-48 46 -48 112z" />
    <glyph glyph-name="nine.oldstyle" horiz-adv-x="554" 
d="M373 257q0 42 -28.5 71.5t-69.5 30.5t-70 -28t-30 -70t27 -70.5t69 -30.5q41 -2 71 27q29 28 31 70zM250 46q-81 0 -142 61q-60 62 -59 161q1 92 66 151q66 59 165 58q93 -2 154 -63q63 -62 72 -163q3 -62 2.5 -125.5t-17 -123t-43.5 -105t-77.5 -72t-118.5 -23.5
q-70 3 -118 32t-79 95l113 48q28 -60 88 -60q67 0 99 59q33 58 28 144q-10 -29 -48 -51.5t-85 -22.5z" />
    <glyph glyph-name="Lslash.sc" horiz-adv-x="434" 
d="M199 572v-178l79 50v-73l-79 -50v-219h218v-102h-330v251l-58 -35v73l58 36v247h112z" />
    <glyph glyph-name="Zcaron.sc" horiz-adv-x="514" 
d="M197 769l62 -70l63 70h84l-94 -139h-105l-94 139h84zM47 0v87l271 385h-259v100h403v-86l-272 -385h272v-101h-415z" />
    <glyph glyph-name="exclam.sc" horiz-adv-x="290" 
d="M194 166h-97l-16 404h129zM212 55q0 -27 -20 -46t-48 -19q-29 0 -49 18.5t-20 46.5q0 29 19.5 47.5t49.5 18.5q28 0 48 -18.5t20 -47.5z" />
    <glyph glyph-name="ampersand.sc" horiz-adv-x="584" 
d="M259 349h97v67h100v-68h68v-86h-68v-91q0 -49 16.5 -67t63.5 -18v-95q-66 1 -102.5 15t-51.5 48q-18 -29 -57 -46.5t-79 -17.5q-85 0 -140 49t-55 126q0 106 86 147q-55 28 -55 108q0 61 47 108q48 48 115 48q101 0 157 -80l-89 -56q-26 32 -56 32q-28 0 -45 -16.5
t-17 -41.5q0 -19 14 -42q15 -23 51 -23zM356 214v48h-83q-103 0 -110 -79q-1 -39 26 -64t68 -25q43 0 71 32.5t28 87.5z" />
    <glyph glyph-name="question.sc" horiz-adv-x="427" 
d="M142 406h-103q0 80 47.5 127t125.5 47q76 0 125 -45q49 -43 49 -118q0 -58 -31.5 -100.5t-83.5 -58.5q-21 -6 -32 -18t-12 -25l-4 -50h-104q0 3 -0.5 15t-0.5 16q0 63 24.5 99.5t79.5 56.5q32 12 45 27t13 38q0 24 -20 40t-48 16q-30 0 -49.5 -18.5t-20.5 -48.5zM104 55
q0 29 20 47.5t48 18.5q30 0 49.5 -18.5t19.5 -47.5q0 -28 -20 -46.5t-49 -18.5q-28 0 -48 19t-20 46z" />
    <glyph glyph-name="A.sc" horiz-adv-x="570" 
d="M284 439l-66 -204h134zM558 0h-118l-51 137h-207l-52 -137h-118l214 572h118z" />
    <glyph glyph-name="B.sc" horiz-adv-x="551" 
d="M473 415q0 -77 -69 -109q46 -14 72.5 -52t26.5 -81q0 -74 -49 -123q-50 -50 -130 -50h-242v572h225q77 0 121.5 -42t44.5 -115zM193 472v-126h106q26 0 42 18t16 46q0 29 -16 45.5t-45 16.5h-103zM316 250h-123v-150h125q30 0 49.5 22.5t19.5 53.5q0 29 -20 51.5
t-51 22.5z" />
    <glyph glyph-name="C.sc" horiz-adv-x="600" 
d="M482 174l89 -65q-39 -55 -101 -87t-133 -32q-122 0 -206 85t-84 208t83 209q84 86 207 86q143 0 232 -116l-89 -64q-59 74 -143 74q-76 0 -127 -55t-51 -134q0 -77 51 -133q51 -54 127 -54q89 0 145 78z" />
    <glyph glyph-name="D.sc" horiz-adv-x="614" 
d="M306 0h-224v572h224q121 0 190 -81q69 -79 69 -207q0 -126 -69 -205t-190 -79zM193 470v-368h113q68 0 107.5 51t39.5 131q0 83 -38.5 134.5t-108.5 51.5h-113z" />
    <glyph glyph-name="E.sc" horiz-adv-x="499" 
d="M82 0v572h356v-100h-246v-140h216v-100h-216v-132h253v-100h-363z" />
    <glyph glyph-name="F.sc" horiz-adv-x="466" 
d="M82 0v572h352v-100h-241v-140h191v-100h-191v-232h-111z" />
    <glyph glyph-name="G.sc" horiz-adv-x="648" 
d="M547 488l-80 -71h-2q-51 56 -127 56q-75 0 -128 -56q-52 -55 -52 -134t52 -134t128 -55q57 0 102 30q46 32 47 80h-155v93h282q0 -151 -72.5 -229t-203.5 -78q-121 0 -207 86q-85 85 -85 207q0 123 84 209q86 86 208 86q126 0 209 -90z" />
    <glyph glyph-name="H.sc" horiz-adv-x="607" 
d="M413 572h112v-572h-112v234h-221v-234h-110v572h110v-237h221v237z" />
    <glyph glyph-name="I.sc" horiz-adv-x="274" 
d="M82 0v572h110v-572h-110z" />
    <glyph glyph-name="J.sc" horiz-adv-x="275" 
d="M-71 -185l10 102q25 -9 69 -9q37 0 55.5 23t18.5 63v578h111v-578q0 -89 -46.5 -140.5t-138.5 -51.5q-34 0 -79 13z" />
    <glyph glyph-name="K.sc" horiz-adv-x="522" 
d="M473 572l-218 -284l269 -288h-145l-185 205v-205h-112v572h112v-199l148 199h131z" />
    <glyph glyph-name="L.sc" horiz-adv-x="428" 
d="M82 0v572h111v-472h218v-100h-329z" />
    <glyph glyph-name="M.sc" horiz-adv-x="784" 
d="M213 572l178 -378l179 378h95l69 -572h-111l-43 361l-143 -297h-88l-145 297l-44 -361h-111l70 572h94z" />
    <glyph glyph-name="N.sc" horiz-adv-x="589" 
d="M507 572v-572h-101l-214 364v-364h-110v572h102l211 -358v358h112z" />
    <glyph glyph-name="O.sc" horiz-adv-x="674" 
d="M47 283q0 123 84 209t205 86q123 0 207 -86q85 -85 85 -209q0 -122 -85 -207q-86 -86 -207 -86t-205 86t-84 207zM158 283q0 -76 51 -130q53 -53 127 -53q75 0 128 53q53 55 53 130q0 76 -53 131q-52 54 -128 54q-74 0 -127 -54q-51 -54 -51 -131z" />
    <glyph glyph-name="P.sc" horiz-adv-x="530" 
d="M82 0v572h233q91 0 137 -55q47 -55 47 -131t-47 -131q-47 -53 -137 -53h-122v-202h-111zM313 472h-120v-171h116q49 -2 69 41.5t0.5 87t-65.5 42.5z" />
    <glyph glyph-name="Q.sc" horiz-adv-x="677" 
d="M505 43l56 -92l-82 -51l-62 101q-41 -11 -79 -11q-121 0 -207 86q-85 85 -85 207q0 123 84 209q86 86 208 86t208 -86q85 -85 85 -209q0 -71 -34 -134.5t-92 -105.5zM307 180l82 50l58 -94q33 25 52.5 65t19.5 82q0 78 -53 134q-52 55 -128 55t-128 -55t-52 -134
q0 -73 46 -123q46 -49 119 -60h34l-32 51z" />
    <glyph glyph-name="R.sc" horiz-adv-x="549" 
d="M354 206l146 -206h-135l-134 202h-38v-202h-111v572h230q89 0 137 -55t48 -131q0 -67 -37.5 -116.5t-105.5 -63.5zM307 472h-114v-171h110q48 -2 68 41.5t1 87t-65 42.5z" />
    <glyph glyph-name="S.sc" horiz-adv-x="503" 
d="M49 170h112q1 -34 27 -56.5t67 -22.5q39 0 64 18t27 47q2 27 -17 45.5t-59 28.5l-70 20q-145 39 -145 160q0 74 56 121q58 47 138 47q85 0 138 -48t53 -128h-110q0 33 -22.5 53.5t-59.5 20.5q-34 0 -58 -18.5t-24 -45.5q0 -44 66 -62l69 -20q82 -22 121 -69.5t36 -107.5
q-5 -76 -63 -119q-59 -44 -140 -44q-91 0 -149 52q-57 52 -57 128z" />
    <glyph glyph-name="T.sc" horiz-adv-x="477" 
d="M23 471v101h431v-101h-159v-471h-113v471h-159z" />
    <glyph glyph-name="U.sc" horiz-adv-x="588" 
d="M401 201v371h111v-371q0 -94 -64 -152q-65 -59 -154 -59t-154 59q-64 58 -64 152v371h113v-371q0 -45 31 -75t74 -30q44 0 75.5 30t31.5 75z" />
    <glyph glyph-name="V.sc" horiz-adv-x="505" 
d="M28 572h116l108 -384l108 384h117l-174 -572h-100z" />
    <glyph glyph-name="W.sc" horiz-adv-x="770" 
d="M513 194l120 378h120l-195 -572h-89l-84 308l-84 -308h-89l-194 572h120l119 -379l84 301h89z" />
    <glyph glyph-name="X.sc" horiz-adv-x="564" 
d="M527 572l-180 -266l200 -306h-132l-134 213l-132 -213h-132l198 306l-179 266h134l111 -176l114 176h132z" />
    <glyph glyph-name="Y.sc" horiz-adv-x="572" 
d="M342 260v-260h-113v260l-220 312h132l144 -215l145 215h135z" />
    <glyph glyph-name="Z.sc" horiz-adv-x="514" 
d="M47 0v87l271 385h-259v100h403v-86l-272 -385h272v-101h-415z" />
    <glyph glyph-name="Scaron.sc" horiz-adv-x="503" 
d="M185 769l63 -70l63 70h84l-95 -139h-105l-93 139h83zM161 170q1 -34 27 -56.5t67 -22.5q39 0 64 18t27 47q2 27 -17 45.5t-59 28.5l-70 20q-145 39 -145 160q0 74 56 121q58 47 138 47q85 0 138 -48t53 -128h-110q0 33 -22.5 53.5t-59.5 20.5q-34 0 -58 -18.5t-24 -45.5
q0 -44 66 -62l69 -20q82 -22 121 -69.5t36 -107.5q-5 -76 -63 -119q-59 -44 -140 -44q-91 0 -149 52q-57 52 -57 128h112z" />
    <glyph glyph-name="OE.sc" horiz-adv-x="933" 
d="M515 506v66h357v-101h-245v-139h214v-101h-214v-129h252v-102h-364v61q-79 -71 -179 -71q-122 0 -206 86t-84 207q0 123 84 209t206 86q107 0 179 -72zM157 283q0 -76 52 -129q53 -53 127 -53q75 0 127 55t52 130q-2 75 -54 127q-53 54 -125 54q-74 0 -127 -54
q-52 -52 -52 -130z" />
    <glyph glyph-name="Ydieresis.sc" horiz-adv-x="572" 
d="M268 708q0 -25 -16.5 -41t-41.5 -16t-42.5 16.5t-17.5 40.5t17.5 40t42.5 16t41.5 -16t16.5 -40zM353 764q25 0 42 -16t17 -40q0 -25 -17 -41t-42 -16q-24 0 -41.5 16.5t-17.5 40.5t17.5 40t41.5 16zM342 260v-260h-113v260l-220 312h132l144 -215l145 215h135z" />
    <glyph glyph-name="exclamdown.sc" horiz-adv-x="290" 
d="M97 404h97l16 -404h-129zM212 515q0 -29 -20 -47.5t-48 -18.5q-30 0 -49.5 18.5t-19.5 47.5q0 28 20 46.5t49 18.5q28 0 48 -19t20 -46z" />
    <glyph glyph-name="questiondown.sc" horiz-adv-x="427" 
d="M285 164h103q0 -80 -47.5 -127t-125.5 -47q-75 0 -125 44q-49 45 -49 119q0 58 31.5 100.5t83.5 58.5q21 6 32 18q9 11 11 24l5 51h104q0 -3 0.5 -15t0.5 -16q0 -63 -24.5 -99.5t-79.5 -56.5q-32 -12 -45 -27t-13 -38q0 -24 20.5 -40t47.5 -16q30 0 49.5 18.5t20.5 48.5z
M323 515q0 -29 -20 -47.5t-48 -18.5q-30 0 -49.5 18.5t-19.5 47.5q0 28 20 46.5t49 18.5q28 0 48 -19t20 -46z" />
    <glyph glyph-name="Agrave.sc" horiz-adv-x="570" 
d="M334 631h-85l-118 139h113zM284 439l-66 -204h134zM558 0h-118l-51 137h-207l-52 -137h-118l214 572h118z" />
    <glyph glyph-name="Aacute.sc" horiz-adv-x="570" 
d="M327 768h112l-117 -140h-86zM352 235l-68 204l-66 -204h134zM389 137h-207l-52 -137h-118l214 572h118l214 -572h-118z" />
    <glyph glyph-name="Acircumflex.sc" horiz-adv-x="570" 
d="M428 632h-85l-62 71l-63 -71h-83l94 140h104zM284 439l-66 -204h134zM558 0h-118l-51 137h-207l-52 -137h-118l214 572h118z" />
    <glyph glyph-name="Atilde.sc" horiz-adv-x="570" 
d="M245 682q-7 0 -12.5 -9.5t-5.5 -25.5h-64q3 49 23 76t49 31q18 1 43 -15q26 -17 39 -17q7 0 12.5 8.5t6.5 24.5h64q-3 -53 -26.5 -80t-56.5 -27q-16 0 -39 17t-33 17zM284 439l-66 -204h134zM558 0h-118l-51 137h-207l-52 -137h-118l214 572h118z" />
    <glyph glyph-name="Adieresis.sc" horiz-adv-x="570" 
d="M204 764q24 0 41 -16t17 -40t-17 -40.5t-41 -16.5q-25 0 -43 16.5t-18 40.5t18 40t43 16zM406 708q0 -25 -17 -41t-42 -16t-42.5 16.5t-17.5 40.5t17.5 40t42.5 16t42 -16t17 -40zM352 235l-68 204l-66 -204h134zM389 137h-207l-52 -137h-118l214 572h118l214 -572h-118z
" />
    <glyph glyph-name="Aring.sc" horiz-adv-x="570" 
d="M183 724q0 42 28 70.5t69 28.5q42 0 70.5 -28.5t28.5 -70.5q0 -41 -28.5 -69t-70.5 -28q-41 0 -69 28t-28 69zM280 683q18 0 31 12t13 29t-13 30t-31 13q-16 0 -28.5 -13t-12.5 -30t12 -29t29 -12zM352 235l-68 204l-66 -204h134zM389 137h-207l-52 -137h-118l214 572
h118l214 -572h-118z" />
    <glyph glyph-name="AE.sc" horiz-adv-x="802" 
d="M385 134h-164l-86 -134h-133l362 572h377v-101h-245v-139h214v-101h-214v-129h253v-102h-364v134zM385 415l-100 -173h100v173z" />
    <glyph glyph-name="Ccedilla.sc" horiz-adv-x="601" 
d="M285 -96q3 -10 12.5 -14.5t19.5 -0.5q20 8 12 34l-26 70q-110 12 -184 95q-72 82 -72 196q0 123 83 209q84 86 207 86q143 0 232 -116l-89 -64q-56 74 -143 74q-76 0 -127 -55q-51 -56 -51 -134q0 -76 51 -132q51 -54 127 -54q91 0 145 77l89 -65q-77 -105 -207 -117
q1 -3 10 -20.5t11 -21.5q10 -22 10 -40q0 -36 -26 -61.5t-64 -25.5q-37 0 -62.5 29.5t-24.5 75.5l65 -3q0 -12 2 -22z" />
    <glyph glyph-name="Egrave.sc" horiz-adv-x="499" 
d="M82 0v572h356v-100h-246v-140h216v-100h-216v-132h253v-100h-363zM327 631h-86l-119 139h114z" />
    <glyph glyph-name="Eacute.sc" horiz-adv-x="499" 
d="M274 770h114l-119 -139h-85zM438 572v-100h-246v-140h216v-100h-216v-132h253v-100h-363v572h356z" />
    <glyph glyph-name="Ecircumflex.sc" horiz-adv-x="499" 
d="M82 0v572h356v-100h-246v-140h216v-100h-216v-132h253v-100h-363zM393 632h-83l-63 71l-63 -71h-83l93 140h105z" />
    <glyph glyph-name="Edieresis.sc" horiz-adv-x="499" 
d="M117 708q0 24 17.5 40t43.5 16q24 0 41 -16t17 -40t-17 -40.5t-41 -16.5q-26 0 -43.5 16t-17.5 41zM260 708q0 24 17.5 40t43.5 16q24 0 41 -16t17 -40t-17 -40.5t-41 -16.5q-26 0 -43.5 16t-17.5 41zM438 572v-100h-246v-140h216v-100h-216v-132h253v-100h-363v572h356z
" />
    <glyph glyph-name="Igrave.sc" horiz-adv-x="274" 
d="M82 0v572h110v-572h-110zM190 631h-86l-119 139h114z" />
    <glyph glyph-name="Iacute.sc" horiz-adv-x="274" 
d="M80 640l94 133h115l-121 -133h-88zM192 572v-572h-110v572h110z" />
    <glyph glyph-name="Icircumflex.sc" horiz-adv-x="274" 
d="M82 0v572h110v-572h-110zM284 632h-83l-63 71l-63 -71h-83l93 140h105z" />
    <glyph glyph-name="Idieresis.sc" horiz-adv-x="274" 
d="M192 572v-572h-110v572h110zM7 708q0 24 17.5 40t43.5 16q24 0 41 -16t17 -40t-17 -40.5t-41 -16.5q-26 0 -43.5 16t-17.5 41zM150 708q0 24 17.5 40t43.5 16q24 0 41 -16t17 -40t-17 -40.5t-41 -16.5q-26 0 -43.5 16t-17.5 41z" />
    <glyph glyph-name="Eth.sc" horiz-adv-x="620" 
d="M313 0h-223v244h-77v72h77v256h223q121 0 188 -81q69 -79 69 -207q0 -126 -69 -205q-67 -79 -188 -79zM201 468v-152h113v-72h-113v-140h112q68 0 107 50t39 130q0 82 -39 133t-107 51h-112z" />
    <glyph glyph-name="Ntilde.sc" horiz-adv-x="589" 
d="M507 572v-572h-101l-214 364v-364h-110v572h102l211 -358v358h112zM258 682q-7 0 -12.5 -9.5t-5.5 -25.5h-65q3 53 26.5 80.5t56.5 27.5q16 0 39 -17q22 -16 33 -16q3 0 7 2.5t7.5 10.5t3.5 20h64q-2 -53 -25.5 -80t-56.5 -27q-16 0 -39 17t-33 17z" />
    <glyph glyph-name="Ograve.sc" horiz-adv-x="674" 
d="M369 631h-85l-119 139h113zM47 283q0 123 84 209t205 86q123 0 207 -86q85 -85 85 -209q0 -122 -85 -207q-86 -86 -207 -86t-205 86t-84 207zM158 283q0 -76 51 -130q53 -53 127 -53q75 0 128 53q53 55 53 130q0 76 -53 131q-52 54 -128 54q-74 0 -127 -54
q-51 -54 -51 -131z" />
    <glyph glyph-name="Oacute.sc" horiz-adv-x="674" 
d="M384 770h114l-119 -139h-85zM47 283q0 123 84 209t205 86q123 0 207 -86q85 -85 85 -209q0 -122 -85 -207q-86 -86 -207 -86t-205 86t-84 207zM158 283q0 -76 51 -130q53 -53 127 -53q75 0 128 53q53 55 53 130q0 76 -53 131q-52 54 -128 54q-74 0 -127 -54
q-51 -54 -51 -131z" />
    <glyph glyph-name="Ocircumflex.sc" horiz-adv-x="674" 
d="M483 632h-83l-64 72l-61 -72h-84l94 140h104zM47 283q0 123 84 209t205 86q123 0 207 -86q85 -85 85 -209q0 -122 -85 -207q-86 -86 -207 -86t-205 86t-84 207zM158 283q0 -76 51 -130q53 -53 127 -53q75 0 128 53q53 55 53 130q0 76 -53 131q-52 54 -128 54
q-74 0 -127 -54q-51 -54 -51 -131z" />
    <glyph glyph-name="Otilde.sc" horiz-adv-x="674" 
d="M47 283q0 123 84 209t205 86q123 0 207 -86q85 -85 85 -209q0 -122 -85 -207q-86 -86 -207 -86t-205 86t-84 207zM158 283q0 -76 51 -130q53 -53 127 -53q75 0 128 53q53 55 53 130q0 76 -53 131q-52 54 -128 54q-74 0 -127 -54q-51 -54 -51 -131zM301 682
q-7 0 -12.5 -9.5t-5.5 -25.5h-64q3 53 26 80.5t56 27.5q17 0 40 -17q22 -16 32 -16q7 0 12.5 8.5t6.5 24.5h63q-2 -53 -25.5 -80t-56.5 -27q-15 0 -38 17t-34 17z" />
    <glyph glyph-name="Odieresis.sc" horiz-adv-x="674" 
d="M266 764q24 0 41 -16t17 -40t-17 -40.5t-41 -16.5q-25 0 -42.5 16.5t-17.5 40.5t17.5 40t42.5 16zM350 708q0 24 17 40t42 16t42 -16t17 -40q0 -25 -17 -41t-42 -16t-42 16t-17 41zM47 283q0 123 84 209t205 86q123 0 207 -86q85 -85 85 -209q0 -122 -85 -207
q-86 -86 -207 -86t-205 86t-84 207zM158 283q0 -76 51 -130q53 -53 127 -53q75 0 128 53q53 55 53 130q0 76 -53 131q-52 54 -128 54q-74 0 -127 -54q-51 -54 -51 -131z" />
    <glyph glyph-name="Oslash.sc" horiz-adv-x="673" 
d="M156 52l-66 -68l-42 43l65 68q-67 82 -67 188q0 123 84 209t205 86q105 0 184 -66l66 67l42 -42l-66 -67q66 -84 66 -187q0 -122 -85 -207q-86 -86 -207 -86q-96 0 -179 62zM157 283q0 -63 34 -109l251 259q-49 35 -107 35q-75 0 -127 -54q-51 -54 -51 -131zM335 100
q75 0 128 53q53 55 53 130q0 59 -33 107l-250 -258q44 -32 102 -32z" />
    <glyph glyph-name="Ugrave.sc" horiz-adv-x="588" 
d="M360 631h-85l-118 139h113zM401 201v371h111v-371q0 -94 -64 -152q-65 -59 -154 -59t-154 59q-64 58 -64 152v371h113v-371q0 -45 31 -75t74 -30q44 0 75.5 30t31.5 75z" />
    <glyph glyph-name="Uacute.sc" horiz-adv-x="588" 
d="M316 770h112l-118 -139h-86zM401 201v371h111v-371q0 -94 -64 -152q-65 -59 -154 -59t-154 59q-64 58 -64 152v371h113v-371q0 -45 31 -75t74 -30q44 0 75.5 30t31.5 75z" />
    <glyph glyph-name="Ucircumflex.sc" horiz-adv-x="588" 
d="M440 632h-84l-63 72l-62 -72h-84l94 140h104zM401 201v371h111v-371q0 -94 -64 -152q-65 -59 -154 -59t-154 59q-64 58 -64 152v371h113v-371q0 -45 31 -75t74 -30q44 0 75.5 30t31.5 75z" />
    <glyph glyph-name="Udieresis.sc" horiz-adv-x="588" 
d="M223 764q24 0 40.5 -16t16.5 -40q0 -25 -16.5 -41t-40.5 -16q-25 0 -43 16.5t-18 40.5t18 40t43 16zM425 708q0 -25 -17 -41t-42 -16t-42.5 16.5t-17.5 40.5t17.5 40t42.5 16t42 -16t17 -40zM401 201v371h111v-371q0 -94 -64 -152q-65 -59 -154 -59t-154 59
q-64 58 -64 152v371h113v-371q0 -45 31 -75t74 -30q44 0 75.5 30t31.5 75z" />
    <glyph glyph-name="Yacute.sc" horiz-adv-x="572" 
d="M342 260v-260h-113v260l-220 312h132l144 -215l145 215h135zM312 770h114l-119 -139h-85z" />
    <glyph glyph-name="Thorn.sc" horiz-adv-x="497" 
d="M282 108h-89v-108h-111v572h111v-95h89q78 0 131 -51q52 -49 52 -133q0 -83 -52 -134q-53 -51 -131 -51zM193 380v-175h85q32 0 54.5 24.5t22.5 61.5q0 39 -22.5 63t-55.5 26h-84z" />
    <glyph glyph-name="Amacron.sc" horiz-adv-x="570" 
d="M168 664v74h227v-74h-227zM284 439l-66 -204h134zM558 0h-118l-51 137h-207l-52 -137h-118l214 572h118z" />
    <glyph glyph-name="Abreve.sc" horiz-adv-x="570" 
d="M169 753h73q0 -45 39 -45q18 0 28.5 13t10.5 32h74q0 -51 -31 -81.5t-82 -30.5q-53 0 -82.5 31.5t-29.5 80.5zM352 235l-68 204l-66 -204h134zM389 137h-207l-52 -137h-118l214 572h118l214 -572h-118z" />
    <glyph glyph-name="Cacute.sc" horiz-adv-x="600" 
d="M371 770h113l-118 -139h-86zM571 109q-39 -55 -101 -87t-133 -32q-122 0 -206 85t-84 208t83 209q84 86 207 86q143 0 232 -116l-89 -64q-59 74 -143 74q-76 0 -127 -55t-51 -134q0 -77 51 -133q51 -54 127 -54q89 0 145 78z" />
    <glyph glyph-name="Ccircumflex.sc" horiz-adv-x="600" 
d="M480 632h-83l-63 71l-63 -71h-83l94 140h104zM482 174l89 -65q-39 -55 -101 -87t-133 -32q-122 0 -206 85t-84 208t83 209q84 86 207 86q143 0 232 -116l-89 -64q-59 74 -143 74q-76 0 -127 -55t-51 -134q0 -77 51 -133q51 -54 127 -54q89 0 145 78z" />
    <glyph glyph-name="Cdotaccent.sc" horiz-adv-x="600" 
d="M267 714q0 25 18 42t44 17t44.5 -17t18.5 -42q0 -26 -18 -43t-45 -17q-26 0 -44 17t-18 43zM571 109q-39 -55 -101 -87t-133 -32q-122 0 -206 85t-84 208t83 209q84 86 207 86q143 0 232 -116l-89 -64q-59 74 -143 74q-76 0 -127 -55t-51 -134q0 -77 51 -133
q51 -54 127 -54q89 0 145 78z" />
    <glyph glyph-name="Ccaron.sc" horiz-adv-x="600" 
d="M571 109q-39 -55 -101 -87t-133 -32q-122 0 -206 85t-84 208t83 209q84 86 207 86q143 0 232 -116l-89 -64q-59 74 -143 74q-76 0 -127 -55t-51 -134q0 -77 51 -133q51 -54 127 -54q89 0 145 78zM278 769l63 -70l63 70h84l-95 -139h-105l-93 139h83z" />
    <glyph glyph-name="Dcaron.sc" horiz-adv-x="614" 
d="M242 769l62 -70l64 70h84l-95 -139h-105l-94 139h84zM82 0v572h224q121 0 190 -81q69 -79 69 -207q0 -126 -69 -205t-190 -79h-224zM306 102q68 0 107.5 51t39.5 131q0 83 -38.5 134.5t-108.5 51.5h-113v-368h113z" />
    <glyph glyph-name="Aogonek.sc" horiz-adv-x="570" 
d="M558 0h-64l-25 -77q-7 -27 13 -34q15 -6 25.5 8t7.5 29l64 3q1 -47 -24 -76t-63 -29t-63.5 25.5t-25.5 61.5q0 14 8 38l8 16l20 38l-50 134h-207l-52 -137h-118l214 572h118zM353 235l-68 203l-67 -203h135z" />
    <glyph glyph-name="Emacron.sc" horiz-adv-x="499" 
d="M82 0v572h356v-100h-246v-140h216v-100h-216v-132h253v-100h-363zM139 664v74h226v-74h-226z" />
    <glyph glyph-name="Ebreve.sc" horiz-adv-x="499" 
d="M134 753h73q0 -45 40 -45q18 0 28 12.5t10 32.5h74q0 -51 -30.5 -81.5t-81.5 -30.5q-52 0 -82.5 32t-30.5 80zM438 572v-100h-246v-140h216v-100h-216v-132h253v-100h-363v572h356z" />
    <glyph glyph-name="Edotaccent.sc" horiz-adv-x="499" 
d="M196 714q0 25 18.5 42t44.5 17t44 -17t18 -42q0 -26 -18 -43t-44 -17q-27 0 -45 17t-18 43zM438 572v-100h-246v-140h216v-100h-216v-132h253v-100h-363v572h356z" />
    <glyph glyph-name="Ecaron.sc" horiz-adv-x="499" 
d="M438 572v-100h-246v-140h216v-100h-216v-132h253v-100h-363v572h356zM186 769l63 -70l63 70h84l-95 -139h-105l-93 139h83z" />
    <glyph glyph-name="Gcircumflex.sc" horiz-adv-x="648" 
d="M547 488l-80 -71h-2q-51 56 -127 56q-75 0 -128 -56q-52 -55 -52 -134t52 -134t128 -55q57 0 102 30q46 32 47 80h-155v93h282q0 -151 -72.5 -229t-203.5 -78q-121 0 -207 86q-85 85 -85 207q0 123 84 209q86 86 208 86q126 0 209 -90zM473 632h-84l-63 72l-62 -72h-84
l94 140h104z" />
    <glyph glyph-name="Gbreve.sc" horiz-adv-x="648" 
d="M467 417h-2q-51 56 -127 56q-75 0 -128 -56q-52 -55 -52 -134t52 -134t128 -55q57 0 102 30q46 32 47 80h-155v93h282q0 -151 -72.5 -229t-203.5 -78q-121 0 -207 86q-85 85 -85 207q0 123 84 209q86 86 208 86q126 0 209 -90zM214 753h73q0 -45 40 -45q18 0 28 12.5
t10 32.5h74q0 -51 -30.5 -81.5t-81.5 -30.5q-52 0 -82.5 32t-30.5 80z" />
    <glyph glyph-name="Eogonek.sc" horiz-adv-x="499" 
d="M357 -46l27 46h-302v572h356v-100h-246v-140h216v-100h-216v-132h253v-99l-29 -75q-11 -26 12 -34q16 -8 27 9q10 15 6 28l65 3q1 -47 -24 -75.5t-63 -28.5t-63.5 25.5t-25.5 61.5q0 26 7 39z" />
    <glyph glyph-name="Dcroat.sc" horiz-adv-x="620" 
d="M313 0h-223v243h-77v75h77v254h223q121 0 188 -81q69 -79 69 -207q0 -126 -69 -205q-67 -79 -188 -79zM201 468v-150h113v-75h-113v-139h112q68 0 107 50t39 130q0 82 -39 133t-107 51h-112z" />
    <glyph glyph-name="Gdotaccent.sc" horiz-adv-x="648" 
d="M467 417h-2q-51 56 -127 56q-75 0 -128 -56q-52 -55 -52 -134t52 -134t128 -55q57 0 102 30q46 32 47 80h-155v93h282q0 -151 -72.5 -229t-203.5 -78q-121 0 -207 86q-85 85 -85 207q0 123 84 209q86 86 208 86q126 0 209 -90zM274 714q0 25 18.5 42t44.5 17t44 -17
t18 -42q0 -26 -18 -43t-44 -17q-27 0 -45 17t-18 43z" />
    <glyph glyph-name="Hcircumflex.sc" horiz-adv-x="607" 
d="M413 572h112v-572h-112v234h-221v-234h-110v572h110v-237h221v237zM449 632h-83l-63 71l-62 -71h-84l94 140h104z" />
    <glyph glyph-name="Hbar.sc" horiz-adv-x="618" 
d="M531 572v-88h59v-61h-59v-423h-112v234h-221v-234h-111v423h-58v61h58v88h111v-88h221v88h112zM198 423v-88h221v88h-221z" />
    <glyph glyph-name="Itilde.sc" horiz-adv-x="274" 
d="M101 682q-7 0 -12.5 -9.5t-5.5 -25.5h-64q3 53 26 80.5t56 27.5q17 0 39 -17q22 -16 33 -16q7 0 12.5 8.5t6.5 24.5h64q-3 -53 -26.5 -80t-56.5 -27q-16 0 -39 17t-33 17zM82 0v572h110v-572h-110z" />
    <glyph glyph-name="Imacron.sc" horiz-adv-x="274" 
d="M82 0v572h110v-572h-110zM24 664v74h227v-74h-227z" />
    <glyph glyph-name="Iogonek.sc" horiz-adv-x="274" 
d="M53 -49l29 53v568h110v-572h-53l-27 -77q-7 -27 12 -34q15 -6 25.5 8t7.5 29l65 3q0 -47 -25 -76t-62 -29q-38 0 -64 25.5t-26 61.5q0 22 8 40z" />
    <glyph glyph-name="IJ.sc" horiz-adv-x="549" 
d="M82 0v572h110v-572h-110zM203 -185l10 102q25 -9 69 -9q37 0 55.5 23t18.5 63v578h111v-578q0 -89 -46.5 -140.5t-138.5 -51.5q-36 0 -79 13z" />
    <glyph glyph-name="Jcircumflex.sc" horiz-adv-x="275" 
d="M282 632h-84l-63 71l-62 -71h-84l94 140h104zM-71 -185l10 102q25 -9 69 -9q37 0 55.5 23t18.5 63v578h111v-578q0 -89 -46.5 -140.5t-138.5 -51.5q-34 0 -79 13z" />
    <glyph glyph-name="Lacute.sc" horiz-adv-x="428" 
d="M171 767h114l-118 -140h-85zM193 572v-472h218v-100h-329v572h111z" />
    <glyph glyph-name="Lcaron.sc" horiz-adv-x="434" 
d="M311 374l-68 20q43 60 51 125q4 19 4 52h93q-3 -67 -25.5 -119t-54.5 -78zM82 0v572h111v-472h218v-100h-329z" />
    <glyph glyph-name="Ldot.sc" horiz-adv-x="428" 
d="M82 0v572h111v-472h218v-100h-329zM253 243q0 22 17 38t41 16q23 0 40 -16t17 -38q0 -24 -16.5 -40t-40.5 -16t-41 16t-17 40z" />
    <glyph glyph-name="Nacute.sc" horiz-adv-x="589" 
d="M326 770h113l-119 -139h-85zM406 0l-214 364v-364h-110v572h102l211 -358v358h112v-572h-101z" />
    <glyph glyph-name="Ncaron.sc" horiz-adv-x="589" 
d="M227 769l63 -70l62 70h84l-94 -139h-105l-93 139h83zM406 0l-214 364v-364h-110v572h102l211 -358v358h112v-572h-101z" />
    <glyph glyph-name="Omacron.sc" horiz-adv-x="674" 
d="M223 664v74h227v-74h-227zM47 283q0 123 84 209t205 86q123 0 207 -86q85 -85 85 -209q0 -122 -85 -207q-86 -86 -207 -86t-205 86t-84 207zM158 283q0 -76 51 -130q53 -53 127 -53q75 0 128 53q53 55 53 130q0 76 -53 131q-52 54 -128 54q-74 0 -127 -54
q-51 -54 -51 -131z" />
    <glyph glyph-name="Obreve.sc" horiz-adv-x="674" 
d="M224 753h73q0 -45 39 -45t39 45h74q0 -51 -31 -81.5t-82 -30.5q-52 0 -82 31.5t-30 80.5zM47 283q0 123 84 209t205 86q123 0 207 -86q85 -85 85 -209q0 -122 -85 -207q-86 -86 -207 -86t-205 86t-84 207zM158 283q0 -76 51 -130q53 -53 127 -53q75 0 128 53
q53 55 53 130q0 76 -53 131q-52 54 -128 54q-74 0 -127 -54q-51 -54 -51 -131z" />
    <glyph glyph-name="Ohungarumlaut.sc" horiz-adv-x="674" 
d="M318 769h94l-95 -139h-85zM445 769h95l-104 -139h-87zM47 283q0 123 84 209t205 86q123 0 207 -86q85 -85 85 -209q0 -122 -85 -207q-86 -86 -207 -86t-205 86t-84 207zM158 283q0 -76 51 -130q53 -53 127 -53q75 0 128 53q53 55 53 130q0 76 -53 131q-52 54 -128 54
q-74 0 -127 -54q-51 -54 -51 -131z" />
    <glyph glyph-name="Racute.sc" horiz-adv-x="549" 
d="M282 770h113l-119 -139h-85zM500 0h-135l-134 202h-38v-202h-111v572h230q89 0 137 -55t48 -131q0 -67 -37.5 -116.5t-105.5 -63.5zM193 472v-171h110q48 -2 68 41.5t1 87t-65 42.5h-114z" />
    <glyph glyph-name="Rcaron.sc" horiz-adv-x="549" 
d="M209 769l62 -70l63 70h84l-94 -139h-105l-95 139h85zM500 0h-135l-134 202h-38v-202h-111v572h230q89 0 137 -55t48 -131q0 -67 -37.5 -116.5t-105.5 -63.5zM193 472v-171h110q48 -2 68 41.5t1 87t-65 42.5h-114z" />
    <glyph glyph-name="Sacute.sc" horiz-adv-x="503" 
d="M281 770h113l-118 -139h-86zM161 170q1 -34 27 -56.5t67 -22.5q39 0 64 18t27 47q2 27 -17 45.5t-59 28.5l-70 20q-145 39 -145 160q0 74 56 121q58 47 138 47q85 0 138 -48t53 -128h-110q0 33 -22.5 53.5t-59.5 20.5q-34 0 -58 -18.5t-24 -45.5q0 -44 66 -62l69 -20
q82 -22 121 -69.5t36 -107.5q-5 -76 -63 -119q-59 -44 -140 -44q-91 0 -149 52q-57 52 -57 128h112z" />
    <glyph glyph-name="Scircumflex.sc" horiz-adv-x="503" 
d="M397 632h-83l-63 71l-63 -71h-84l94 140h105zM49 170h112q1 -34 27 -56.5t67 -22.5q39 0 64 18t27 47q2 27 -17 45.5t-59 28.5l-70 20q-145 39 -145 160q0 74 56 121q58 47 138 47q85 0 138 -48t53 -128h-110q0 33 -22.5 53.5t-59.5 20.5q-34 0 -58 -18.5t-24 -45.5
q0 -44 66 -62l69 -20q82 -22 121 -69.5t36 -107.5q-5 -76 -63 -119q-59 -44 -140 -44q-91 0 -149 52q-57 52 -57 128z" />
    <glyph glyph-name="Scedilla.sc" horiz-adv-x="502" 
d="M298 -5l12 -23l10 -20q10 -23 10 -41q0 -35 -26.5 -61t-63.5 -26q-38 0 -63 29t-24 76l65 -3q-4 -15 7 -29t26 -8q21 7 13 34l-27 69q-81 4 -135 55q-52 51 -52 124h111q1 -33 27 -56.5t67 -23.5t65 17.5t27 47.5q2 27 -17 45t-59 29l-70 19q-145 39 -145 161
q0 74 56 121t137 47q83 0 137 -48t54 -128h-110q0 33 -22 53t-60 20q-34 0 -58 -18t-24 -45q0 -46 66 -62l69 -21q77 -23 115.5 -65.5t40.5 -96.5q2 -69 -45 -116q-44 -45 -114 -56z" />
    <glyph glyph-name="Utilde.sc" horiz-adv-x="588" 
d="M294 96q44 0 75.5 30t31.5 75v371h111v-371q0 -94 -64 -152q-65 -59 -154 -59t-154 59q-64 58 -64 152v371h113v-371q0 -44 31 -74.5t74 -30.5zM258 682q-7 0 -12.5 -9.5t-5.5 -25.5h-64q3 53 26 80.5t56 27.5q16 0 38 -17q22 -16 34 -16q7 0 12.5 8.5t6.5 24.5h63
q-2 -53 -25.5 -80t-56.5 -27q-17 0 -40 17t-32 17z" />
    <glyph glyph-name="Umacron.sc" horiz-adv-x="588" 
d="M180 664v74h228v-74h-228zM401 201v371h111v-371q0 -94 -64 -152q-65 -59 -154 -59t-154 59q-64 58 -64 152v371h113v-371q0 -45 31 -75t74 -30q44 0 75.5 30t31.5 75z" />
    <glyph glyph-name="Ubreve.sc" horiz-adv-x="588" 
d="M182 753h72q0 -45 39 -45q18 0 28.5 13t10.5 32h75q0 -51 -31.5 -81.5t-82.5 -30.5q-52 0 -81.5 31.5t-29.5 80.5zM401 201v371h111v-371q0 -94 -64 -152q-65 -59 -154 -59t-154 59q-64 58 -64 152v371h113v-371q0 -45 31 -75t74 -30q44 0 75.5 30t31.5 75z" />
    <glyph glyph-name="Uring.sc" horiz-adv-x="588" 
d="M196 724q0 42 28 70.5t69 28.5q42 0 70.5 -28.5t28.5 -70.5q0 -41 -28.5 -69t-70.5 -28q-41 0 -69 28t-28 69zM293 683q18 0 30.5 12t12.5 29t-12.5 30t-30.5 13q-16 0 -28.5 -13t-12.5 -30t12 -29t29 -12zM401 201v371h111v-371q0 -94 -64 -152q-65 -59 -154 -59
t-154 59q-64 58 -64 152v371h113v-371q0 -45 31 -75t74 -30q44 0 75.5 30t31.5 75z" />
    <glyph glyph-name="Uhungarumlaut.sc" horiz-adv-x="588" 
d="M401 201v371h111v-371q0 -94 -64 -152q-65 -59 -154 -59t-154 59q-64 58 -64 152v371h113v-371q0 -45 31 -75t74 -30q44 0 75.5 30t31.5 75zM260 769h94l-95 -139h-85zM387 769h95l-104 -139h-87z" />
    <glyph glyph-name="Uogonek.sc" horiz-adv-x="590" 
d="M230 -89q0 23 15 55l15 29q-77 10 -131 67q-52 56 -52 140v370h113v-370q0 -44 31 -74t74 -30q44 0 75.5 30t31.5 74v370h111v-370q0 -87 -55 -143q-56 -57 -136 -66q-16 -40 -26 -70q-8 -26 12 -34q16 -6 26.5 7.5t7.5 29.5l65 3q1 -47 -24.5 -76t-62.5 -29
q-38 0 -64 25.5t-26 61.5z" />
    <glyph glyph-name="Wcircumflex.sc" horiz-adv-x="770" 
d="M532 632h-84l-63 71l-63 -71h-83l94 140h104zM513 194l120 378h120l-195 -572h-89l-84 308l-84 -308h-89l-194 572h120l119 -379l84 301h89z" />
    <glyph glyph-name="Ycircumflex.sc" horiz-adv-x="572" 
d="M432 632h-84l-62 71l-63 -71h-83l94 140h104zM342 260v-260h-113v260l-220 312h132l144 -215l145 215h135z" />
    <glyph glyph-name="Tcaron.sc" horiz-adv-x="477" 
d="M181 769l63 -70l63 70h84l-95 -139h-105l-93 139h83zM454 572v-101h-159v-471h-113v471h-159v101h431z" />
    <glyph glyph-name="Tbar.sc" horiz-adv-x="477" 
d="M182 0v246h-95v67h95v158h-159v101h431v-101h-159v-158h98v-67h-98v-246h-113z" />
    <glyph glyph-name="Zacute.sc" horiz-adv-x="514" 
d="M285 770h114l-120 -139h-85zM47 0v87l271 385h-259v100h403v-86l-272 -385h272v-101h-415z" />
    <glyph glyph-name="Zdotaccent.sc" horiz-adv-x="514" 
d="M202 714q0 25 18 42t44 17q27 0 45 -17t18 -42q0 -26 -18 -43t-45 -17q-26 0 -44 17t-18 43zM47 0v87l271 385h-259v100h403v-86l-272 -385h272v-101h-415z" />
    <glyph glyph-name="Wgrave.sc" horiz-adv-x="770" 
d="M439 631h-86l-118 139h113zM513 194l120 378h120l-195 -572h-89l-84 308l-84 -308h-89l-194 572h120l119 -379l84 301h89z" />
    <glyph glyph-name="Wacute.sc" horiz-adv-x="770" 
d="M422 770h113l-119 -139h-85zM753 572l-195 -572h-89l-84 308l-84 -308h-89l-194 572h120l119 -379l84 301h89l83 -300l120 378h120z" />
    <glyph glyph-name="Wdieresis.sc" horiz-adv-x="770" 
d="M314 764q24 0 41.5 -16t17.5 -40t-17.5 -40.5t-41.5 -16.5q-25 0 -42.5 16.5t-17.5 40.5t17.5 40t42.5 16zM397 708q0 24 17.5 40t43.5 16q24 0 41.5 -16t17.5 -40t-17.5 -40.5t-41.5 -16.5q-26 0 -43.5 16t-17.5 41zM753 572l-195 -572h-89l-84 308l-84 -308h-89
l-194 572h120l119 -379l84 301h89l83 -300l120 378h120z" />
    <glyph glyph-name="Aringacute.sc" horiz-adv-x="570" 
d="M318 914h112l-94 -112q45 -28 45 -83q0 -41 -29 -69.5t-72 -28.5q-39 0 -67.5 28.5t-28.5 69.5q0 32 19.5 58.5t49.5 36.5zM241 719q0 -17 12 -29.5t28 -12.5q19 0 31.5 12.5t12.5 29.5q0 18 -12.5 30.5t-31.5 12.5q-17 0 -28.5 -12.5t-11.5 -30.5zM352 235l-68 204
l-66 -204h134zM389 137h-207l-52 -137h-118l214 572h118l214 -572h-118z" />
    <glyph glyph-name="AEacute.sc" horiz-adv-x="802" 
d="M476 770h113l-119 -139h-85zM135 0h-133l362 572h377v-101h-245v-139h214v-101h-214v-129h253v-102h-364v134h-164zM385 242v173l-100 -173h100z" />
    <glyph glyph-name="Oslashacute.sc" horiz-adv-x="673" 
d="M381 770h114l-120 -139h-84zM90 -16l-42 43l65 68q-67 82 -67 188q0 123 84 209t205 86q105 0 184 -66l66 67l42 -42l-66 -67q66 -84 66 -187q0 -122 -85 -207q-86 -86 -207 -86q-96 0 -179 62zM157 283q0 -63 34 -109l251 259q-49 35 -107 35q-75 0 -127 -54
q-51 -54 -51 -131zM335 100q75 0 128 53q53 55 53 130q0 59 -33 107l-250 -258q44 -32 102 -32z" />
    <glyph glyph-name="Ibreve.sc" horiz-adv-x="274" 
d="M192 572v-572h-110v572h110zM25 753h73q0 -45 40 -45q18 0 28 12.5t10 32.5h74q0 -51 -30.5 -81.5t-81.5 -30.5q-52 0 -82.5 32t-30.5 80z" />
    <glyph glyph-name="Eng.sc" horiz-adv-x="589" 
d="M395 4l-202 358v-362h-111v572h103l209 -369v369h113v-561q0 -94 -45.5 -148t-138.5 -54q-29 0 -80 13l11 108l49 -9q29 -2 36 2q26 5 40.5 27.5t15.5 53.5z" />
    <glyph glyph-name="Ygrave.sc" horiz-adv-x="572" 
d="M346 631h-86l-118 139h113zM342 260v-260h-113v260l-220 312h132l144 -215l145 215h135z" />
    <glyph glyph-name="Gcommaaccent.sc" horiz-adv-x="648" 
d="M547 488l-80 -71h-2q-51 56 -127 56q-75 0 -128 -56q-52 -55 -52 -134t52 -134t128 -55q57 0 102 30q46 32 47 80h-155v93h282q0 -151 -72.5 -229t-203.5 -78q-121 0 -207 86q-85 85 -85 207q0 123 84 209q86 86 208 86q126 0 209 -90zM308 -248l-56 24q44 59 36 184h97
q1 -65 -23 -125q-23 -57 -54 -83z" />
    <glyph glyph-name="Kcommaaccent.sc" horiz-adv-x="522" 
d="M473 572l-218 -284l269 -288h-145l-185 205v-205h-112v572h112v-199l148 199h131zM266 -248l-56 24q44 59 36 184h97q1 -65 -23 -125q-23 -57 -54 -83z" />
    <glyph glyph-name="Lcommaaccent.sc" horiz-adv-x="428" 
d="M82 0v572h111v-472h218v-100h-329zM214 -248l-56 24q44 59 36 184h97q1 -65 -23 -125q-23 -57 -54 -83z" />
    <glyph glyph-name="Ncommaaccent.sc" horiz-adv-x="589" 
d="M507 572v-572h-101l-214 360v-360h-110v572h102l211 -355v355h112zM266 -248l-56 24q44 59 36 184h97q1 -65 -23 -125q-23 -57 -54 -83z" />
    <glyph glyph-name="Rcommaaccent.sc" horiz-adv-x="549" 
d="M354 206l146 -206h-135l-134 202h-38v-202h-111v572h230q89 0 137 -55t48 -131q0 -67 -37.5 -116.5t-105.5 -63.5zM307 472h-114v-171h110q48 -2 68 41.5t1 87t-65 42.5zM266 -248l-56 24q44 59 36 184h97q1 -65 -23 -125q-23 -57 -54 -83z" />
    <glyph glyph-name="Tcommaaccent.sc" horiz-adv-x="477" 
d="M23 471v101h431v-101h-159v-471h-113v471h-159zM209 -248l-56 24q44 59 36 184h97q1 -65 -23 -125q-23 -57 -54 -83z" />
    <glyph glyph-name="Scommaaccent.sc" horiz-adv-x="503" 
d="M49 170h112q1 -34 27 -56.5t67 -22.5q39 0 64 18.5t27 46.5q2 27 -17 45t-59 29l-70 20q-145 39 -145 160q0 74 56 121q58 47 138 47q85 0 138 -48t53 -128h-110q0 33 -22.5 53.5t-59.5 20.5q-34 0 -58 -18.5t-24 -45.5q0 -44 66 -62l69 -20q162 -47 157 -177
q-5 -76 -63 -119q-59 -44 -140 -44q-91 0 -149 52q-57 52 -57 128zM231 -248l-56 24q44 59 36 184h97q1 -65 -23 -125q-23 -57 -54 -83z" />
    <glyph glyph-name="Idotaccent.sc" horiz-adv-x="274" 
d="M192 572v-572h-110v572h110zM75 714q0 25 18.5 42t44.5 17t44 -17t18 -42q0 -26 -18 -43t-44 -17q-27 0 -45 17t-18 43z" />
    <glyph glyph-name="zero.numr" horiz-adv-x="356" 
d="M36 461q0 200 142 200t142 -200q0 -197 -142 -197t-142 197zM109 461q0 -126 69 -126t69 126q0 128 -69 128t-69 -128z" />
    <glyph glyph-name="one.numr" horiz-adv-x="213" 
d="M161 270h-73v284l-66 -30v66l139 69v-389z" />
    <glyph glyph-name="two.numr" horiz-adv-x="318" 
d="M32 270v37l157 188q22 25 22 50q0 20 -15 33t-39 13q-23 0 -39.5 -16t-20.5 -42l-67 14q9 53 44 83.5t86 30.5q52 0 88 -33t36 -83q0 -52 -41 -99l-93 -106h128v-70h-246z" />
    <glyph glyph-name="three.numr" horiz-adv-x="317" 
d="M97 567l-55 38q18 27 49 42.5t67 13.5q48 -3 79.5 -34t31.5 -73q0 -49 -48 -76q30 -11 48.5 -41.5t15.5 -62.5q-5 -50 -48 -81q-45 -32 -99 -28q-39 3 -71.5 25t-48.5 56l62 32q22 -43 63 -43q25 -1 44 13.5t21 34.5q1 24 -14 42t-46 17h-42v63h42q23 0 35 16.5t9 33.5
q-1 16 -13.5 27.5t-30.5 11.5q-33 2 -51 -27z" />
    <glyph glyph-name="four.numr" horiz-adv-x="346" 
d="M322 353h-51v-83h-73v83h-190l193 301h70v-238h51v-63zM198 546l-82 -130h82v130z" />
    <glyph glyph-name="five.numr" horiz-adv-x="339" 
d="M25 343l61 40q11 -21 31.5 -34t42.5 -13q35 0 57 19t22 46q0 30 -20 47t-52 17q-53 0 -93 -38l-35 23l32 204h215v-68h-156l-13 -74q26 17 67 17q56 0 91.5 -34.5t35.5 -93.5q0 -61 -41 -99t-110 -38q-41 0 -77.5 21.5t-57.5 57.5z" />
    <glyph glyph-name="six.numr" horiz-adv-x="338" 
d="M309 584l-67 -28q-16 36 -51 36q-38 0 -57.5 -33t-17.5 -85q9 18 30 31t47 13q48 0 84 -36q37 -37 35 -95q-1 -55 -39.5 -90t-96.5 -34q-54 1 -91 37t-42 96q-6 42 0 89t18.5 86.5t46.5 64.5t85 24q85 -5 116 -76zM123 393q0 -25 16.5 -41.5t40.5 -17.5q23 0 40 16.5
t18 40.5q0 24 -16.5 41t-39.5 18q-25 0 -42 -16.5t-17 -40.5z" />
    <glyph glyph-name="seven.numr" horiz-adv-x="314" 
d="M26 654h283l-186 -384h-83l152 316h-166v68z" />
    <glyph glyph-name="eight.numr" horiz-adv-x="345" 
d="M59 556q0 44 33.5 74.5t80.5 30.5t80 -30.5t33 -74.5q0 -40 -28 -65q56 -35 56 -97q0 -54 -41 -92t-100 -38q-58 0 -101 38q-41 38 -41 92q0 62 56 97q-28 28 -28 65zM104 395q-2 -40 43 -57t74 13q20 20 20 44t-19 44t-46 19h-9q-26 0 -44.5 -19t-18.5 -44zM131 554
q0 -17 11.5 -28.5t30.5 -11.5q26 0 36.5 20t0 40t-36.5 19q-18 0 -30 -11.5t-12 -27.5z" />
    <glyph glyph-name="nine.numr" horiz-adv-x="338" 
d="M36 340l68 28q16 -36 51 -36q37 0 56.5 33.5t18.5 84.5q-10 -18 -31 -31t-47 -13q-48 0 -84 36t-35 95q2 55 40 89.5t96 33.5q55 -1 92 -37t42 -96q6 -97 -19 -173q-15 -43 -48.5 -67.5t-82.5 -22.5q-83 5 -117 76zM223 531q0 24 -16.5 41t-40.5 18t-41 -16t-17 -41
q-1 -25 15.5 -41.5t40.5 -17.5q24 0 41 16.5t18 40.5z" />
    <glyph glyph-name="zero.dnom" horiz-adv-x="356" 
d="M36 192q0 199 142 199t142 -199q0 -198 -142 -198t-142 198zM178 319q-69 0 -69 -127t69 -127t69 127t-69 127z" />
    <glyph glyph-name="one.dnom" horiz-adv-x="213" 
d="M162 0h-73v284l-66 -30v66l139 69v-389z" />
    <glyph glyph-name="two.dnom" horiz-adv-x="318" 
d="M32 0v38l157 187q22 26 22 50q0 20 -15 33t-39 13q-23 0 -39.5 -15.5t-20.5 -41.5l-67 13q9 53 44 83.5t86 30.5q52 0 88 -33t36 -83q0 -51 -41 -98l-93 -107h128v-70h-246z" />
    <glyph glyph-name="three.dnom" horiz-adv-x="319" 
d="M99 297l-55 38q18 27 49 42.5t67 13.5q48 -3 79.5 -34t31.5 -73q0 -49 -48 -76q30 -11 48.5 -41.5t15.5 -62.5q-5 -50 -48 -81q-45 -32 -99 -28q-39 3 -71.5 25t-48.5 56l62 32q22 -43 63 -43q25 -1 44 13.5t21 34.5q1 24 -14 42t-46 17h-42v63h42q23 0 35 16.5t9 33.5
q-1 16 -13.5 27.5t-30.5 11.5q-33 2 -51 -27z" />
    <glyph glyph-name="four.dnom" horiz-adv-x="347" 
d="M323 83h-51v-83h-73v83h-190l193 302h70v-238h51v-64zM199 277l-82 -130h82v130z" />
    <glyph glyph-name="five.dnom" horiz-adv-x="339" 
d="M24 73l61 40q11 -21 31.5 -34t42.5 -13q35 0 57 19t22 47q0 30 -20.5 47t-51.5 17q-54 0 -93 -39l-35 23l32 204h215v-68h-156l-13 -74q26 17 67 17q56 0 91.5 -34t35.5 -93q0 -61 -41.5 -99.5t-109.5 -38.5q-41 0 -77.5 21.5t-57.5 57.5z" />
    <glyph glyph-name="six.dnom" horiz-adv-x="338" 
d="M309 315l-67 -29q-16 36 -51 36q-38 0 -57.5 -33t-17.5 -85q7 18 29 31t48 13q48 0 84 -36q37 -37 35 -95q-1 -54 -39.5 -89t-96.5 -34q-55 1 -91.5 37t-41.5 96q-6 41 0 88t18.5 86.5t46.5 64.5t85 24q83 -5 116 -75zM180 65q23 -1 40 15.5t18 40.5q0 25 -16.5 42
t-39.5 17q-25 0 -42 -16.5t-17 -40.5t16.5 -41t40.5 -17z" />
    <glyph glyph-name="seven.dnom" horiz-adv-x="317" 
d="M27 385h283l-186 -385h-83l152 316h-166v69z" />
    <glyph glyph-name="eight.dnom" horiz-adv-x="345" 
d="M59 286q0 44 33.5 74.5t80.5 30.5t80 -30.5t33 -74.5q0 -40 -28 -65q56 -35 56 -97q0 -54 -41 -92t-100 -38q-58 0 -101 38q-41 38 -41 92q0 62 56 97q-28 28 -28 65zM104 126q0 -26 20 -44.5t49 -18.5q28 0 48 18.5t20 44.5q0 24 -19 43t-46 19h-9q-26 0 -44.5 -18.5
t-18.5 -43.5zM131 285q0 -17 11.5 -29t30.5 -12q19 1 30.5 12.5t11.5 28.5q0 15 -12 26.5t-30 11.5t-30 -11t-12 -27z" />
    <glyph glyph-name="nine.dnom" horiz-adv-x="339" 
d="M37 70l68 29q16 -37 51 -37q37 0 56.5 33t18.5 86q-9 -19 -30.5 -32t-47.5 -13q-48 0 -84 36q-36 38 -35 95q2 55 40 89.5t96 33.5q55 -1 92 -37t42 -96q6 -97 -19 -173q-15 -43 -48.5 -67.5t-82.5 -22.5q-83 5 -117 76zM224 261q0 25 -16.5 42t-40.5 17q-24 1 -41 -16
t-17 -41q-1 -24 15.5 -41t40.5 -17q24 -1 41 15.5t18 40.5z" />
    <glyph glyph-name="l.alt1" horiz-adv-x="305" 
d="M256 112h47v-112h-65q-174 0 -174 202v519h123v-521q-1 -88 69 -88z" />
    <glyph glyph-name="a.alt1" horiz-adv-x="540" 
d="M226 97q29 0 71 14q39 14 59 41v22q-20 14 -57 21q-38 8 -59 8q-83 0 -83 -52q0 -23 19 -38.5t50 -15.5zM131 312l-72 69q67 96 204 96q102 0 158 -52t56 -148v-277h-120v48q-23 -28 -62.5 -43t-77.5 -15q-84 0 -132.5 41t-48.5 112q0 69 50 108t152 39q25 0 61 -9
q35 -7 58 -22v18q0 41 -27.5 67t-73.5 26q-80 0 -125 -58z" />
    <glyph glyph-name="y.alt1" horiz-adv-x="509" 
d="M162 -36l28 67l-180 436h129l116 -287l116 287h130l-229 -549q-38 -83 -78 -116q-40 -34 -113 -34q-30 0 -69 10v107q37 -5 68 -5q29 0 45.5 18t36.5 66z" />
    <glyph glyph-name="lslash.alt1" horiz-adv-x="326" 
d="M275 112h47v-112h-65q-174 0 -174 202v91l-75 -47v84l75 47v344h123v-267l87 55v-84l-87 -55v-170q-1 -88 69 -88z" />
    <glyph glyph-name="lacute.alt1" horiz-adv-x="305" 
d="M70 766l105 163h128l-138 -163h-95zM303 0h-65q-174 0 -174 202v519h123v-521q-1 -88 69 -88h47v-112z" />
    <glyph glyph-name="lcommaaccent.alt1" horiz-adv-x="305" 
d="M256 112h47v-112h-65q-174 0 -174 202v519h123v-521q-1 -88 69 -88zM171 -274l-64 29q33 47 44 85q12 39 10 104h107q-8 -146 -97 -218z" />
    <glyph glyph-name="lcaron.alt1" horiz-adv-x="305" 
d="M296 484l-75 25q69 97 65 212h107q-4 -80 -31 -142.5t-66 -94.5zM303 0h-65q-174 0 -174 202v519h123v-521q-1 -88 69 -88h47v-112z" />
    <glyph glyph-name="aacute.alt1" horiz-adv-x="540" 
d="M226 97q29 0 71 14q39 14 59 41v22q-20 14 -57 21q-38 8 -59 8q-83 0 -83 -52q0 -23 19 -38.5t50 -15.5zM131 312l-72 69q67 96 204 96q102 0 158 -52t56 -148v-277h-120v48q-23 -28 -62.5 -43t-77.5 -15q-84 0 -132.5 41t-48.5 112q0 69 50 108t152 39q25 0 61 -9
q35 -7 58 -22v18q0 41 -27.5 67t-73.5 26q-80 0 -125 -58zM223 544l105 163h128l-138 -163h-95z" />
    <glyph glyph-name="agrave.alt1" horiz-adv-x="540" 
d="M226 97q29 0 71 14q39 14 59 41v22q-20 14 -57 21q-38 8 -59 8q-83 0 -83 -52q0 -23 19 -38.5t50 -15.5zM131 312l-72 69q67 96 204 96q102 0 158 -52t56 -148v-277h-120v48q-23 -28 -62.5 -43t-77.5 -15q-84 0 -132.5 41t-48.5 112q0 69 50 108t152 39q25 0 61 -9
q35 -7 58 -22v18q0 41 -27.5 67t-73.5 26q-80 0 -125 -58zM234 544l-138 163h128l105 -163h-95z" />
    <glyph glyph-name="acircumflex.alt1" horiz-adv-x="540" 
d="M226 97q29 0 71 14q39 14 59 41v22q-20 14 -57 21q-38 8 -59 8q-83 0 -83 -52q0 -23 19 -38.5t50 -15.5zM131 312l-72 69q67 96 204 96q102 0 158 -52t56 -148v-277h-120v48q-23 -28 -62.5 -43t-77.5 -15q-84 0 -132.5 41t-48.5 112q0 69 50 108t152 39q25 0 61 -9
q35 -7 58 -22v18q0 41 -27.5 67t-73.5 26q-80 0 -125 -58zM96 547l109 163h123l110 -163h-94l-78 88l-76 -88h-94z" />
    <glyph glyph-name="adieresis.alt1" horiz-adv-x="540" 
d="M226 97q29 0 71 14q39 14 59 41v22q-20 14 -57 21q-38 8 -59 8q-83 0 -83 -52q0 -23 19 -38.5t50 -15.5zM131 312l-72 69q67 96 204 96q102 0 158 -52t56 -148v-277h-120v48q-23 -28 -62.5 -43t-77.5 -15q-84 0 -132.5 41t-48.5 112q0 69 50 108t152 39q25 0 61 -9
q35 -7 58 -22v18q0 41 -27.5 67t-73.5 26q-80 0 -125 -58zM181 697q28 0 48 -19t20 -46t-20 -46t-48 -19q-29 0 -49 18.5t-20 46.5t20 46.5t49 18.5zM306 585q-20 19 -20 47t20 46q20 19 49 19t48 -19q20 -18 20 -46t-20 -47q-19 -18 -48 -18t-49 18z" />
    <glyph glyph-name="atilde.alt1" horiz-adv-x="540" 
d="M226 97q29 0 71 14q39 14 59 41v22q-20 14 -57 21q-38 8 -59 8q-83 0 -83 -52q0 -23 19 -38.5t50 -15.5zM131 312l-72 69q67 96 204 96q102 0 158 -52t56 -148v-277h-120v48q-23 -28 -62.5 -43t-77.5 -15q-84 0 -132.5 41t-48.5 112q0 69 50 108t152 39q25 0 61 -9
q35 -7 58 -22v18q0 41 -27.5 67t-73.5 26q-80 0 -125 -58zM231 607q-9 0 -17 -11.5t-9 -31.5h-70q3 62 30 93.5t66 31.5q24 0 51 -21q28 -20 37 -20t17.5 11t9.5 30h70q-3 -60 -31 -91.5t-66 -31.5q-22 0 -51 20q-28 21 -37 21z" />
    <glyph glyph-name="aring.alt1" horiz-adv-x="540" 
d="M226 97q29 0 71 14q39 14 59 41v22q-20 14 -57 21q-38 8 -59 8q-83 0 -83 -52q0 -23 19 -38.5t50 -15.5zM131 312l-72 69q67 96 204 96q102 0 158 -52t56 -148v-277h-120v48q-23 -28 -62.5 -43t-77.5 -15q-84 0 -132.5 41t-48.5 112q0 69 50 108t152 39q25 0 61 -9
q35 -7 58 -22v18q0 41 -27.5 67t-73.5 26q-80 0 -125 -58zM152 654q0 48 33 83q34 34 81 34q50 0 83.5 -33.5t33.5 -83.5q0 -48 -34 -81t-83 -33q-46 0 -81 33q-33 33 -33 81zM209 654q0 -24 17 -40.5t40 -16.5q25 0 42 16.5t17 40.5q0 25 -17 42t-42 17q-23 0 -40 -17
t-17 -42z" />
    <glyph glyph-name="amacron.alt1" horiz-adv-x="540" 
d="M226 97q29 0 71 14q39 14 59 41v22q-20 14 -57 21q-38 8 -59 8q-83 0 -83 -52q0 -23 19 -38.5t50 -15.5zM131 312l-72 69q67 96 204 96q102 0 158 -52t56 -148v-277h-120v48q-23 -28 -62.5 -43t-77.5 -15q-84 0 -132.5 41t-48.5 112q0 69 50 108t152 39q25 0 61 -9
q35 -7 58 -22v18q0 41 -27.5 67t-73.5 26q-80 0 -125 -58zM403 585h-269v83h269v-83z" />
    <glyph glyph-name="abreve.alt1" horiz-adv-x="540" 
d="M226 97q29 0 71 14q39 14 59 41v22q-20 14 -57 21q-38 8 -59 8q-83 0 -83 -52q0 -23 19 -38.5t50 -15.5zM131 312l-72 69q67 96 204 96q102 0 158 -52t56 -148v-277h-120v48q-23 -28 -62.5 -43t-77.5 -15q-84 0 -132.5 41t-48.5 112q0 69 50 108t152 39q25 0 61 -9
q35 -7 58 -22v18q0 41 -27.5 67t-73.5 26q-80 0 -125 -58zM139 687h82q0 -55 51 -55q24 0 37.5 15.5t13.5 39.5h83q0 -59 -37 -94.5t-97 -35.5q-63 0 -98 37t-35 93z" />
    <glyph glyph-name="aogonek.alt1" horiz-adv-x="540" 
d="M131 312l-72 69q67 96 204 96q102 0 158 -52t56 -148v-277h-56l-35 -96q-11 -36 17 -46q31 -8 43 20l5 25l69 4q1 -53 -29 -86.5t-73 -33.5q-44 0 -74.5 30t-30.5 72q0 29 9 46l35 65v48q-23 -28 -62.5 -43t-77.5 -15q-84 0 -132.5 41t-48.5 112q0 69 50 108t152 39
q25 0 61 -9q35 -7 58 -22v18q0 41 -27.5 67t-73.5 26q-80 0 -125 -58zM226 97q29 0 71 14q39 14 59 41v22q-20 14 -57 21q-38 8 -59 8q-83 0 -83 -52q0 -23 19 -38.5t50 -15.5z" />
    <glyph glyph-name="yacute.alt1" horiz-adv-x="509" 
d="M176 544l105 163h128l-138 -163h-95zM190 31l-180 436h129l116 -287l116 287h130l-229 -549q-38 -83 -78 -116q-40 -34 -113 -34q-30 0 -69 10v107q37 -5 68 -5q29 0 45.5 18t36.5 66z" />
    <glyph glyph-name="ydieresis.alt1" horiz-adv-x="509" 
d="M165 697q28 0 48 -19t20 -46t-20 -46t-48 -19q-29 0 -49 18.5t-20 46.5t20 46.5t49 18.5zM290 585q-20 19 -20 47t20 46q20 19 49 19t48 -19q20 -18 20 -46t-20 -47q-19 -18 -48 -18t-49 18zM190 31l-180 436h129l116 -287l116 287h130l-229 -549q-38 -83 -78 -116
q-40 -34 -113 -34q-30 0 -69 10v107q37 -5 68 -5q29 0 45.5 18t36.5 66z" />
    <glyph glyph-name="ae.alt1" horiz-adv-x="871" 
d="M477 21v-21h-120v48q-23 -28 -62.5 -43t-77.5 -15q-84 0 -132.5 41t-48.5 112q0 69 50 108t152 39q24 0 62 -8t57 -21v16q0 41 -27.5 67t-73.5 26q-79 0 -125 -59l-72 70q67 96 204 96q113 0 168 -63q69 63 168 63q102 0 169 -67q68 -68 68 -175q0 -12 -2 -42h-356
q6 -45 41.5 -72.5t87.5 -27.5q38 0 70 16t47 44l93 -50q-29 -55 -87.5 -84t-130.5 -29q-67 0 -122 31zM477 276h240q-7 46 -38.5 72.5t-78.5 26.5q-49 0 -82.5 -27t-40.5 -72zM220 97q30 0 74 14q42 14 62 41v18q-20 14 -57 21q-38 8 -59 8q-83 0 -83 -56q0 -20 16.5 -33
t46.5 -13z" />
    <glyph glyph-name="aeacute.alt1" horiz-adv-x="871" 
d="M392 544l105 163h128l-138 -163h-95zM477 0h-120v48q-23 -28 -62.5 -43t-77.5 -15q-84 0 -132.5 41t-48.5 112q0 69 50 108t152 39q24 0 62 -8t57 -21v16q0 41 -27.5 67t-73.5 26q-79 0 -125 -59l-72 70q67 96 204 96q113 0 168 -63q69 63 168 63q102 0 169 -67
q68 -68 68 -175q0 -12 -2 -42h-356q6 -45 41.5 -72.5t87.5 -27.5q38 0 70 16t47 44l93 -50q-29 -55 -87.5 -84t-130.5 -29q-67 0 -122 31v-21zM477 276h240q-7 46 -38.5 72.5t-78.5 26.5q-49 0 -82.5 -27t-40.5 -72zM220 97q30 0 74 14q42 14 62 41v18q-20 14 -57 21
q-38 8 -59 8q-83 0 -83 -56q0 -20 16.5 -33t46.5 -13z" />
    <glyph glyph-name="ycircumflex.alt1" horiz-adv-x="509" 
d="M162 -36l28 67l-180 436h129l116 -287l116 287h130l-229 -549q-38 -83 -78 -116q-40 -34 -113 -34q-30 0 -69 10v107q37 -5 68 -5q29 0 45.5 18t36.5 66zM85 547l109 163h123l110 -163h-94l-78 88l-76 -88h-94z" />
    <glyph glyph-name="ldot.alt1" horiz-adv-x="404" 
d="M256 112h47v-112h-65q-174 0 -174 202v519h123v-521q-1 -88 69 -88zM322 389q33 0 56.5 -21.5t23.5 -54.5t-23.5 -54.5t-56.5 -21.5q-32 0 -55 22t-23 54t23 54t55 22z" />
    <glyph glyph-name="t.alt1" horiz-adv-x="383" 
d="M301 112h45v-112h-63q-92 0 -133 45.5t-41 142.5v181h-85v98h85v97l123 39v-136h97v-98h-97v-183q-1 -37 14.5 -55.5t54.5 -18.5z" />
    <glyph glyph-name="tcaron.alt1" horiz-adv-x="383" 
d="M336 524l-65 29q33 47 44 85q12 39 10 104h107q-7 -144 -96 -218zM346 0h-63q-92 0 -133 45.5t-41 142.5v181h-85v98h85v97l123 39v-136h97v-98h-97v-183q-1 -37 14.5 -55.5t54.5 -18.5h45v-112z" />
    <glyph glyph-name="tbar.alt1" horiz-adv-x="385" 
d="M303 112h45v-112h-63q-92 0 -133 45.5t-41 142.5v10h-59v71h59v100h-85v98h85v97l123 39v-136h97v-98h-97v-100h70v-71h-70v-12q-1 -37 14.5 -55.5t54.5 -18.5z" />
    <glyph glyph-name="tcommaaccent.alt1" horiz-adv-x="383" 
d="M301 112h45v-112h-63q-92 0 -133 45.5t-41 142.5v181h-85v98h85v97l123 39v-136h97v-98h-97v-183q-1 -37 14.5 -55.5t54.5 -18.5zM205 -274l-64 29q33 47 44 85q12 39 10 104h107q-8 -146 -97 -218z" />
    <glyph glyph-name="T.sc.alt1" horiz-adv-x="477" 
d="M23 471v101h431v-101h-159v-471h-113v471h-159z" />
    <glyph glyph-name="Tcaron.sc.alt1" horiz-adv-x="477" 
d="M181 769l63 -70l63 70h84l-95 -139h-105l-93 139h83zM454 572v-101h-159v-471h-113v471h-159v101h431z" />
    <glyph glyph-name="Tbar.sc.alt1" horiz-adv-x="477" 
d="M182 0v246h-95v67h95v158h-159v101h431v-101h-159v-158h98v-67h-98v-246h-113z" />
    <glyph glyph-name="Tcommaaccent.sc.alt1" horiz-adv-x="477" 
d="M23 471v101h431v-101h-159v-471h-113v471h-159zM209 -248l-56 24q44 59 36 184h97q1 -65 -23 -125q-23 -57 -54 -83z" />
    <glyph glyph-name="aringacute.alt1" horiz-adv-x="540" 
d="M237 760l79 122h128l-113 -133q57 -35 57 -101q0 -48 -34 -81t-83 -33q-47 0 -81 33q-33 33 -33 81q0 39 22 69.5t58 42.5zM214 648q0 -24 17 -40.5t40 -16.5q25 0 42 16.5t17 40.5q0 25 -17 42t-42 17q-23 0 -40 -17t-17 -42zM226 97q29 0 71 14q39 14 59 41v22
q-20 14 -57 21q-38 8 -59 8q-83 0 -83 -52q0 -23 19 -38.5t50 -15.5zM131 312l-72 69q67 96 204 96q102 0 158 -52t56 -148v-277h-120v48q-23 -28 -62.5 -43t-77.5 -15q-84 0 -132.5 41t-48.5 112q0 69 50 108t152 39q25 0 61 -9q35 -7 58 -22v18q0 41 -27.5 67t-73.5 26
q-80 0 -125 -58z" />
    </font>
</defs>
</svg>
