<?xml version="1.0" encoding="utf-8"?>
<!-- Generator: Adobe Illustrator 26.3.1, SVG Export Plug-In . SVG Version: 6.00 Build 0)  -->
<svg version="1.1" id="Layer_1" xmlns="http://www.w3.org/2000/svg" xmlns:xlink="http://www.w3.org/1999/xlink" x="0px" y="0px"
	 viewBox="0 0 242.9 49" style="enable-background:new 0 0 242.9 49;" xml:space="preserve">
<style type="text/css">
	.st0{fill:#FFFFFF;}
</style>
<path class="st0" d="M74.8,15.5v18h-2.4v-7.9h-8.8v7.9h-2.4v-18h2.4v8h8.8v-8L74.8,15.5z"/>
<path class="st0" d="M89,28.4H79c0.2,2,2,3.4,4,3.2c1.5,0.1,2.8-0.6,3.6-1.9l2,0.8c-1.7,3.1-5.6,4.1-8.7,2.4c-2-1.1-3.2-3.3-3.2-5.6
	c-0.1-3.3,2.5-6.2,5.8-6.3c0.2,0,0.3,0,0.5,0c3.5,0,6.1,2.5,6.1,6.3C89,27.7,89,28.1,89,28.4z M86.8,26.4c-0.4-2.1-2.4-3.6-4.5-3.2
	c-1.6,0.3-2.9,1.6-3.2,3.2H86.8z"/>
<path class="st0" d="M103.6,21.3v12.2h-2.3v-1.9c-1,1.4-2.6,2.3-4.3,2.2c-3.4,0-6.1-2.7-6.1-6c0-0.1,0-0.2,0-0.3
	c-0.2-3.3,2.3-6.2,5.6-6.4c0.2,0,0.3,0,0.5,0c1.7-0.1,3.4,0.7,4.4,2.2v-1.9H103.6z M101.3,27.4c0-2.3-1.8-4.2-4.1-4.2c0,0,0,0-0.1,0
	c-2.2,0-4,1.8-4,4c0,0.1,0,0.1,0,0.2c0,2.3,1.8,4.1,4.1,4.1S101.3,29.6,101.3,27.4z"/>
<path class="st0" d="M106.3,14.6h2.3v18.9h-2.3V14.6z"/>
<path class="st0" d="M118.2,23.3h-2.6v10.3h-2.3V23.3H111v-2h2.2v-4.6h2.3v4.6h2.6L118.2,23.3z"/>
<path class="st0" d="M131.6,26.5v7.1h-2.3v-6.9c0-2-1.2-3.3-3-3.3c-1.9-0.1-3.6,1.3-3.7,3.2c0,0.1,0,0.3,0,0.4v6.6h-2.3V14.6h2.3
	v8.5c0.7-1.5,2.7-2.1,4.1-2.1C129.7,21.1,131.6,23,131.6,26.5z"/>
<path class="st0" d="M139.7,24.6c0-5.1,4-9.2,9.1-9.2c0,0,0,0,0.1,0c2.6,0,5.1,1.1,6.8,3.1l-1.7,1.5c-1.2-1.5-3.1-2.3-5-2.3
	c-3.8,0.1-6.8,3.2-6.8,7c0,0,0,0,0,0c-0.1,3.8,3,6.9,6.8,7c1.9,0,3.7-0.9,5-2.3l1.7,1.5c-1.7,2-4.2,3.1-6.8,3.1
	C143.8,33.7,139.7,29.6,139.7,24.6z"/>
<path class="st0" d="M156.7,27.4c0.1-3.5,3.1-6.3,6.6-6.1c3.3,0.1,6,2.8,6.1,6.1c0.1,3.5-2.6,6.5-6.1,6.6c-3.5,0.1-6.5-2.6-6.6-6.1
	C156.7,27.7,156.7,27.6,156.7,27.4z M167.2,27.4c0.1-2.3-1.6-4.2-3.9-4.3c-2.3-0.1-4.2,1.6-4.3,3.9c0,0.1,0,0.3,0,0.4
	c-0.1,2.3,1.6,4.2,3.9,4.3c2.3,0.1,4.2-1.6,4.3-3.9C167.2,27.7,167.2,27.5,167.2,27.4z"/>
<path class="st0" d="M190.7,26.5v7.1h-2.3v-6.9c0-2-1.1-3.4-2.9-3.4c-2.2,0-3.5,1.8-3.3,4.2v-0.1v6.2H180v-6.9
	c0-2.1-1.1-3.4-2.8-3.4c-1.8-0.1-3.4,1.4-3.5,3.2c0,0.2,0,0.3,0,0.5v6.6h-2.3V21.3h2.3v1.9c1.3-2.1,4.1-2.8,6.3-1.5
	c0.7,0.5,1.3,1.1,1.7,1.9c0.8-1.6,2.4-2.6,4.2-2.5C189.1,21.1,190.7,23,190.7,26.5z"/>
<path class="st0" d="M205.6,27.4c0.2,3.3-2.3,6.2-5.6,6.3c-0.2,0-0.3,0-0.5,0c-1.7,0.1-3.4-0.7-4.4-2.2v7.9h-2.3V21.3h2.3v1.9
	c1-1.4,2.6-2.3,4.3-2.2c3.4,0,6.1,2.7,6.1,6C205.6,27.2,205.6,27.3,205.6,27.4z M203.3,27.4c-0.1-2.3-1.9-4-4.2-4s-4,1.9-4,4.2
	c0.1,2.2,1.9,4,4.2,4c2.2,0,4-1.8,4-4C203.3,27.6,203.3,27.5,203.3,27.4L203.3,27.4z"/>
<path class="st0" d="M220,21.3v12.2h-2.3v-1.9c-1,1.4-2.6,2.3-4.3,2.2c-3.4,0-6.1-2.7-6.1-6c0-0.1,0-0.2,0-0.3
	c-0.2-3.3,2.3-6.2,5.6-6.4c0.2,0,0.3,0,0.5,0c1.7-0.1,3.4,0.7,4.4,2.2v-1.9H220z M217.7,27.4c0-2.3-1.8-4.2-4.1-4.2c0,0,0,0-0.1,0
	c-2.2,0-4,1.8-4,4c0,0.1,0,0.1,0,0.2c-0.1,2.3,1.6,4.2,3.9,4.3c2.3,0.1,4.2-1.6,4.3-3.9C217.7,27.7,217.7,27.5,217.7,27.4
	L217.7,27.4z"/>
<path class="st0" d="M230.2,21.5l-0.4,2.1c-0.6-0.3-1.2-0.4-1.8-0.4c-2.4,0-3.4,2.6-3.4,5.8v4.5h-2.3V21.3h2.3v2.8
	c0.6-2.1,1.8-3,3.4-3C228.8,21.1,229.5,21.2,230.2,21.5z"/>
<path class="st0" d="M242.8,28.4h-9.9c0.2,2,2,3.4,4,3.2c1.4,0.1,2.8-0.6,3.6-1.9l2,0.8c-1.7,3.1-5.6,4.1-8.7,2.4
	c-2-1.1-3.2-3.3-3.2-5.6c-0.1-3.3,2.5-6.2,5.8-6.3c0.2,0,0.3,0,0.5,0c3.5,0,6.1,2.5,6.1,6.3C242.9,27.7,242.8,28.1,242.8,28.4z
	 M240.6,26.4c-0.2-1.9-1.9-3.4-3.8-3.2c-2-0.2-3.7,1.3-3.9,3.2H240.6z"/>
<path class="st0" d="M25,23.8L25,23.8c0.1,0,0.4,0,0.5-0.5c0-0.8-0.2-1.5-0.5-2.2c-0.4,0.7-0.6,1.5-0.5,2.4
	C24.6,23.8,24.9,23.8,25,23.8z"/>
<path class="st0" d="M48.4,15.5H33.5V0.7c0-0.4-0.3-0.7-0.7-0.7H16.2c-0.4,0-0.7,0.3-0.7,0.7v14.8H0.7c-0.4,0-0.7,0.3-0.7,0.7v10.2
	c1.6-0.4,3.2-0.9,4.8-1.2c2.7-0.6,5.3-1,7.6,0.3c1,0.6,1.9,1.4,2.7,2.3c0.5,0.6,1.1,1.1,1.7,1.6c1.3,1.1,2.8,1.7,4.5,1.7
	c0.5,0,0.9,0,1.4-0.1l-0.3-0.2c-2.8-2.4-4.3-6-3.9-9.7c0.2-1.9,1.3-3.9,3.2-4.2c1.2-0.1,2.3,0.6,3.3,2.2l0.1,0.1
	c0.6-0.7,1.3-1.2,2.2-1.5c0.5-0.1,1.1-0.1,1.5,0.2c0.8,0.7,1.4,1.6,1.6,2.6c0.4,1.7,0.2,3.5-0.4,5.2c-0.9,2.3-2.5,4.2-4.7,5.4
	c1.7,0.3,3.5,0.1,5.1-0.5c1.5-0.7,2.9-1.7,4.1-2.9l0.5-0.4c2-1.8,4.7-3.8,8.1-3.8c1.4,0,2.8,0.2,4.2,0.5c0.6,0.1,1.2,0.3,1.8,0.5
	v-8.3C49,15.8,48.7,15.5,48.4,15.5z"/>
<path class="st0" d="M43.1,24.4c-3,0-5.6,1.9-7.5,3.5l-0.5,0.4c-1.3,1.3-2.7,2.3-4.4,3.1c-1.2,0.5-2.5,0.8-3.9,0.8c-1,0-2-0.2-3-0.6
	c-0.9,0.3-1.8,0.4-2.7,0.4c-1.9-0.1-3.6-0.8-5.1-2c-0.6-0.5-1.2-1.1-1.8-1.7c-0.7-0.8-1.5-1.5-2.4-2.1c-2-1.2-4.3-0.8-6.9-0.2
	c-1.7,0.4-3.4,0.8-5,1.3v5.5c0,0.4,0.3,0.7,0.7,0.7h14.8v14.8c0,0.4,0.3,0.7,0.7,0.7h16.7c0.4,0,0.7-0.3,0.7-0.6c0,0,0,0,0,0V33.5
	h14.8c0.4,0,0.7-0.3,0.7-0.7c0,0,0,0,0,0v-7.4c-0.7-0.2-1.3-0.4-2-0.5C45.8,24.6,44.4,24.4,43.1,24.4z"/>
<path class="st0" d="M22,17.8h-0.2c-1.6,0.2-2.2,2.2-2.4,3.3c-0.3,3.4,1,6.6,3.6,8.9c0.3,0.2,0.6,0.5,1,0.6c2.4-1,4.2-2.9,5.1-5.3
	c0.6-1.5,0.7-3.1,0.4-4.6c-0.2-0.8-0.6-1.5-1.2-2c-0.2-0.1-0.5-0.2-0.8-0.1c-0.8,0.2-1.4,0.7-1.9,1.4c0.6,1.1,0.9,2.3,0.9,3.5
	c-0.1,0.8-0.8,1.3-1.5,1.3c-0.7,0-1.2-0.4-1.4-1c-0.4-1,0.2-2.3,0.7-3.3v-0.1c0.1-0.1,0.1-0.3,0.2-0.4c-0.1-0.1-0.2-0.3-0.3-0.4
	C23.4,18.4,22.7,17.8,22,17.8z"/>
</svg>
