<?xml version="1.0" encoding="iso-8859-1"?><svg id="Layer_1" data-name="Layer 1" xmlns="http://www.w3.org/2000/svg" viewBox="0 0 242.85 49.05"><defs><style>.cls-1{fill:#336f93;}</style></defs><path class="cls-1" d="M74.83,15.51v18H72.45V25.66H63.6v7.88H61.22v-18H63.6v8h8.85v-8Z"/><path class="cls-1" d="M89,28.41H79a3.7,3.7,0,0,0,4,3.25A3.93,3.93,0,0,0,86.6,29.8l2,.78a6.37,6.37,0,0,1-11.9-3.19A6.07,6.07,0,0,1,83,21.06c3.48,0,6.07,2.46,6.07,6.33C89,27.73,89,28.07,89,28.41Zm-2.22-2a3.9,3.9,0,0,0-7.69,0Z"/><path class="cls-1" d="M103.61,21.32V33.54h-2.28V31.6A5,5,0,0,1,97,33.8a6.08,6.08,0,0,1-6.12-6.38A6,6,0,0,1,97,21.06a4.87,4.87,0,0,1,4.37,2.17V21.32Zm-2.28,6.07a4.14,4.14,0,0,0-4.16-4.19,4,4,0,0,0-4,4.19,4.08,4.08,0,1,0,8.16,0Z"/><path class="cls-1" d="M106.3,14.65h2.27V33.54H106.3Z"/><path class="cls-1" d="M118.16,23.28h-2.64V33.54h-2.28V23.28H111v-2h2.2V16.69h2.28v4.63h2.64Z"/><path class="cls-1" d="M131.56,26.48v7.06h-2.28V26.61c0-2-1.25-3.3-3-3.3a3.49,3.49,0,0,0-3.75,3.61v6.62h-2.27V14.65h2.27v8.53c.74-1.49,2.72-2.12,4.06-2.12C129.67,21.06,131.58,23.05,131.56,26.48Z"/><path class="cls-1" d="M139.67,24.57a9.17,9.17,0,0,1,9.16-9.24,8.81,8.81,0,0,1,6.78,3.06l-1.73,1.47a6.63,6.63,0,0,0-5-2.33,6.88,6.88,0,0,0-6.78,7,6.9,6.9,0,0,0,6.78,7,6.66,6.66,0,0,0,5-2.32l1.73,1.46a8.81,8.81,0,0,1-6.78,3.06A9.17,9.17,0,0,1,139.67,24.57Z"/><path class="cls-1" d="M156.71,27.39a6.4,6.4,0,0,1,12.79,0,6.4,6.4,0,1,1-12.79,0Zm10.51,0a4.11,4.11,0,1,0-8.21,0,4.11,4.11,0,1,0,8.21,0Z"/><path class="cls-1" d="M190.74,26.48v7.06h-2.27V26.61c0-2-1.13-3.35-2.91-3.35-2.17,0-3.48,1.8-3.27,4.16l0-.11v6.23H180V26.61c0-2.07-1.13-3.35-2.75-3.35a3.33,3.33,0,0,0-3.45,3.66v6.62h-2.28V21.32h2.28v1.86a4.57,4.57,0,0,1,8,.42A4.54,4.54,0,0,1,186,21.06C189.07,21.06,190.74,23.05,190.74,26.48Z"/><path class="cls-1" d="M205.64,27.44a6,6,0,0,1-6.09,6.36,4.86,4.86,0,0,1-4.37-2.17v7.85H192.9V21.32h2.28v1.94a5,5,0,0,1,4.34-2.2A6.08,6.08,0,0,1,205.64,27.44Zm-2.3,0a4.08,4.08,0,1,0-4,4.19A4,4,0,0,0,203.34,27.47Z"/><path class="cls-1" d="M220,21.32V33.54h-2.28V31.6a5,5,0,0,1-4.34,2.2,6.09,6.09,0,0,1-6.13-6.38,6,6,0,0,1,6.1-6.36,4.87,4.87,0,0,1,4.37,2.17V21.32Zm-2.28,6.07a4.14,4.14,0,0,0-4.16-4.19,4,4,0,0,0-4,4.19,4.09,4.09,0,1,0,8.17,0Z"/><path class="cls-1" d="M230.21,21.53l-.36,2.15a4.17,4.17,0,0,0-1.78-.42c-2.44,0-3.4,2.59-3.4,5.81v4.47h-2.31V21.32h2.31v2.77c.62-2.14,1.8-3,3.42-3A4.52,4.52,0,0,1,230.21,21.53Z"/><path class="cls-1" d="M242.8,28.41h-9.94a3.7,3.7,0,0,0,4,3.25,3.94,3.94,0,0,0,3.56-1.86l2,.78a6.37,6.37,0,0,1-11.91-3.19,6.07,6.07,0,0,1,6.28-6.33c3.48,0,6.07,2.46,6.07,6.33C242.85,27.73,242.83,28.07,242.8,28.41Zm-2.23-2a3.57,3.57,0,0,0-3.79-3.25,3.61,3.61,0,0,0-3.9,3.25Z"/><path class="cls-1" d="M25,23.82H25c.11,0,.41,0,.51-.54A4.66,4.66,0,0,0,25,21.07a4.37,4.37,0,0,0-.54,2.35C24.64,23.8,24.89,23.82,25,23.82Z"/><path class="cls-1" d="M48.39,15.51H33.55V.67A.67.67,0,0,0,32.88,0H16.17a.67.67,0,0,0-.66.67V15.51H.67a.67.67,0,0,0-.67.66V26.34c1.58-.43,3.21-.86,4.82-1.23,2.69-.61,5.29-1.05,7.64.29a12,12,0,0,1,2.68,2.32,16.83,16.83,0,0,0,1.67,1.61,7.42,7.42,0,0,0,4.48,1.74,5.89,5.89,0,0,0,1.4-.11l-.3-.23A11.47,11.47,0,0,1,18.47,21c.24-1.88,1.34-3.91,3.23-4.19C22.86,16.68,24,17.37,25,19l.06.08a4.53,4.53,0,0,1,2.21-1.47,2,2,0,0,1,1.52.22,4.6,4.6,0,0,1,1.64,2.65,8.84,8.84,0,0,1-.41,5.2,10.26,10.26,0,0,1-4.71,5.42,8.59,8.59,0,0,0,5.06-.54,15.12,15.12,0,0,0,4.09-2.91l.48-.43c2-1.77,4.72-3.8,8.12-3.77a19.46,19.46,0,0,1,4.18.55c.59.13,1.18.29,1.77.45V16.17A.66.66,0,0,0,48.39,15.51Z"/><path class="cls-1" d="M43.09,24.41c-3.05,0-5.59,1.87-7.45,3.52l-.48.42a15.59,15.59,0,0,1-4.37,3.09,10.14,10.14,0,0,1-3.86.79,7.69,7.69,0,0,1-3-.57,8,8,0,0,1-2.7.41,8.48,8.48,0,0,1-5.07-2,15.9,15.9,0,0,1-1.77-1.7A11,11,0,0,0,12,26.27c-2-1.17-4.34-.78-6.92-.19-1.68.39-3.38.84-5,1.29v5.51a.67.67,0,0,0,.67.67H15.51V48.39a.66.66,0,0,0,.66.66H32.88a.66.66,0,0,0,.67-.66V33.55H48.39a.66.66,0,0,0,.66-.67V25.44c-.66-.18-1.33-.36-2-.51A18.76,18.76,0,0,0,43.09,24.41Z"/><path class="cls-1" d="M22,17.82l-.19,0c-1.57.23-2.23,2.2-2.38,3.33A10.55,10.55,0,0,0,23,30a5.88,5.88,0,0,0,1,.63,9.45,9.45,0,0,0,5.13-5.3,7.82,7.82,0,0,0,.37-4.6,3.47,3.47,0,0,0-1.19-2,.92.92,0,0,0-.76-.11A3.81,3.81,0,0,0,25.63,20a6.51,6.51,0,0,1,.9,3.49A1.52,1.52,0,0,1,25,24.82a1.49,1.49,0,0,1-1.43-1.05c-.36-.95.2-2.27.66-3.33l0-.08a2.92,2.92,0,0,1,.22-.43c-.09-.15-.17-.28-.26-.41C23.44,18.38,22.72,17.82,22,17.82Z"/></svg>