<?xml version="1.0" encoding="windows-1252"?>
<svg id="Layer_1" data-name="Layer 1" xmlns="http://www.w3.org/2000/svg" viewBox="0 0 112.65 112.65"><defs><style>.cls-1{fill:#f9f8fa;}.cls-2{fill:#fff;stroke:#d5d5d5;stroke-width:0.5px;}.cls-2,.cls-6{stroke-miterlimit:10;}.cls-3{fill:#d5d5d5;}.cls-4{opacity:0.3;}.cls-5{fill:#e5f0f4;}.cls-6{fill:none;stroke:#037098;stroke-width:0.75px;}.cls-7{fill:#de026d;}.cls-8{fill:#037098;}</style></defs><path class="cls-1" d="M0,56.32A56.33,56.33,0,0,1,56.32,0C74.2,0,72.79,21.66,83.11,34.65c7.63,9.62,29.54,8.45,29.54,21.67A56.33,56.33,0,1,1,0,56.32Z"/><rect class="cls-2" x="25.67" y="14.28" width="49.18" height="71.84" rx="1"/><rect class="cls-2" x="25.67" y="14.28" width="49.18" height="71.84" rx="1"/><path class="cls-3" d="M47.2,33.88H42.48V29.16a.39.39,0,0,0-.39-.4H36.58a.39.39,0,0,0-.39.4v4.72H31.47a.4.4,0,0,0-.4.39v5.51a.39.39,0,0,0,.4.39h4.72v4.72a.39.39,0,0,0,.39.4h5.51a.39.39,0,0,0,.39-.4V40.17H47.2a.39.39,0,0,0,.4-.39V34.27A.4.4,0,0,0,47.2,33.88Z"/><g class="cls-4"><rect class="cls-3" x="31.07" y="60.15" width="37.8" height="3.83"/><rect class="cls-3" x="31.07" y="66.48" width="21.48" height="3.83"/></g><g class="cls-4"><rect class="cls-3" x="31.07" y="53.82" width="37.8" height="3.83"/></g><rect class="cls-3" x="31.07" y="74.18" width="9.89" height="3.83"/><rect class="cls-5" x="38.26" y="26.96" width="48.88" height="71.41" rx="1"/><rect class="cls-6" x="36.44" y="25.19" width="48.88" height="71.41" rx="1"/><path class="cls-7" d="M57.82,44.57H53.1V39.85a.38.38,0,0,0-.39-.39H47.2a.38.38,0,0,0-.39.39v4.72H42.09a.4.4,0,0,0-.4.39v5.51a.4.4,0,0,0,.4.4h4.72v4.72a.39.39,0,0,0,.39.39h5.51a.39.39,0,0,0,.39-.39V50.87h4.72a.4.4,0,0,0,.4-.4V45A.4.4,0,0,0,57.82,44.57Z"/><rect class="cls-6" x="36.44" y="25.19" width="48.88" height="71.41" rx="1"/><rect class="cls-8" x="41.69" y="70.84" width="37.8" height="3.83"/><rect class="cls-8" x="41.69" y="77.17" width="21.48" height="3.83"/><rect class="cls-8" x="41.69" y="64.52" width="37.8" height="3.83"/><rect class="cls-7" x="41.69" y="84.87" width="9.89" height="3.83"/><path class="cls-8" d="M12.69,59.4l-1,.19c.07.35.15.7.24,1l1-.26C12.82,60.05,12.75,59.73,12.69,59.4Z"/><path class="cls-8" d="M12.45,57.43l-1,.06q0,.52.09,1l1-.12C12.49,58.09,12.46,57.76,12.45,57.43Z"/><path class="cls-8" d="M14.9,64.9l-.88.58c.19.29.4.58.61.87l.84-.63C15.27,65.45,15.08,65.18,14.9,64.9Z"/><path class="cls-8" d="M12.75,53.47l-1-.21c-.07.35-.13.7-.18,1l1,.15C12.62,54.13,12.68,53.8,12.75,53.47Z"/><path class="cls-8" d="M12.47,55.44l-1.05-.08c0,.35,0,.71-.05,1.06l1.05,0C12.43,56.11,12.44,55.77,12.47,55.44Z"/><path class="cls-8" d="M13.92,63.17l-.94.45c.15.32.31.64.49.95l.91-.52C14.22,63.76,14.07,63.47,13.92,63.17Z"/><path class="cls-8" d="M13.18,61.33l-1,.32c.11.34.23.67.36,1l1-.39C13.4,62,13.29,61.64,13.18,61.33Z"/><path class="cls-8" d="M18.45,70c.29.19.59.39.9.57l.53-.91c-.28-.17-.56-.34-.83-.53Z"/><path class="cls-8" d="M16.78,68.7c.26.24.54.47.81.69l.65-.83c-.26-.2-.51-.42-.76-.64Z"/><path class="cls-8" d="M15.29,67.18q.35.41.72.78l.75-.73c-.23-.24-.45-.48-.67-.73Z"/><path class="cls-8" d="M20.76,70.16l-.48.94c.32.16.64.31,1,.45l.41-1Q21.2,70.39,20.76,70.16Z"/><path class="cls-8" d="M20.82,45.08l.79-2.5a.52.52,0,0,0-.34-.66l-2.5-.79a.52.52,0,0,0-.66.34.53.53,0,0,0,.34.66l1.11.35a16.24,16.24,0,0,0-7.43,9.21l-.15.52,1,.28c0-.16.09-.32.14-.48a15.24,15.24,0,0,1,7.16-8.74l-.47,1.49a.52.52,0,0,0,1,.32Z"/></svg>