<?xml version="1.0" encoding="windows-1252"?>
<svg id="Layer_1" data-name="Layer 1" xmlns="http://www.w3.org/2000/svg" viewBox="0 0 118.43 112.65"><defs><style>.cls-1{fill:#f9f8fa;}.cls-2{fill:#fff;stroke:#d5d5d5;}.cls-2,.cls-6{stroke-miterlimit:10;}.cls-2,.cls-5,.cls-6{stroke-width:0.5px;}.cls-3{fill:#d5d5d5;}.cls-4{fill:#de026d;}.cls-5,.cls-6{fill:none;stroke:#037098;}.cls-5{stroke-linecap:round;stroke-linejoin:round;stroke-dasharray:2 3;}</style></defs><path class="cls-1" d="M2.89,56.32A56.33,56.33,0,0,1,59.22,0C77.1,0,75.68,21.66,86,34.65c7.64,9.62,29.54,8.45,29.54,21.67a56.33,56.33,0,1,1-112.65,0Z"/><rect class="cls-2" x="0.25" y="44.09" width="117.93" height="24.15" rx="1"/><path class="cls-3" d="M21.51,53.34H17.28V49.11a.35.35,0,0,0-.35-.35H12a.35.35,0,0,0-.35.35v4.23H7.4A.36.36,0,0,0,7,53.7v4.94A.36.36,0,0,0,7.4,59h4.23v4.23a.36.36,0,0,0,.35.36h4.95a.36.36,0,0,0,.35-.36V59h4.23a.36.36,0,0,0,.36-.35V53.7A.36.36,0,0,0,21.51,53.34Z"/><path class="cls-3" d="M81.19,53.34H77V49.11a.35.35,0,0,0-.35-.35H71.67a.35.35,0,0,0-.36.35v4.23H67.08a.35.35,0,0,0-.35.36v4.94a.35.35,0,0,0,.35.35h4.23v4.23a.36.36,0,0,0,.36.36h4.94a.36.36,0,0,0,.35-.36V59h4.23a.36.36,0,0,0,.36-.35V53.7A.36.36,0,0,0,81.19,53.34Z"/><path class="cls-3" d="M111,53.34H106.8V49.11a.35.35,0,0,0-.35-.35h-4.94a.34.34,0,0,0-.35.35v4.23H96.92a.36.36,0,0,0-.35.36v4.94a.35.35,0,0,0,.35.35h4.24v4.23a.35.35,0,0,0,.35.36h4.94a.36.36,0,0,0,.35-.36V59H111a.35.35,0,0,0,.35-.35V53.7A.36.36,0,0,0,111,53.34Z"/><path class="cls-4" d="M51.35,53.34H47.12V49.11a.35.35,0,0,0-.35-.35H41.83a.35.35,0,0,0-.36.35v4.23H37.24a.35.35,0,0,0-.35.36v4.94a.35.35,0,0,0,.35.35h4.23v4.23a.36.36,0,0,0,.36.36h4.94a.36.36,0,0,0,.35-.36V59h4.23a.36.36,0,0,0,.36-.35V53.7A.36.36,0,0,0,51.35,53.34Z"/><circle class="cls-5" cx="44.54" cy="56.8" r="22.11"/><line class="cls-6" x1="31.04" y1="59.31" x2="31.04" y2="54.35"/><line class="cls-6" x1="57.95" y1="54.35" x2="57.95" y2="59.31"/><line class="cls-6" x1="42.02" y1="43.38" x2="46.98" y2="43.38"/><line class="cls-6" x1="46.98" y1="70.29" x2="42.02" y2="70.29"/><circle class="cls-6" cx="44.54" cy="56.8" r="26.69"/></svg>