<?xml version="1.0" encoding="windows-1252"?>
<svg id="Layer_1" data-name="Layer 1" xmlns="http://www.w3.org/2000/svg" viewBox="0 0 112.65 112.65"><defs><style>.cls-1{fill:#f9f8fa;}.cls-2{fill:#fff;stroke:#d5d5d5;}.cls-2,.cls-5,.cls-6{stroke-miterlimit:10;}.cls-2,.cls-6{stroke-width:0.5px;}.cls-3{fill:#d5d5d5;}.cls-4{fill:#e5f0f4;}.cls-5{fill:none;stroke-width:0.75px;}.cls-5,.cls-6{stroke:#037098;}.cls-6{fill:#037098;}.cls-7{fill:#de026d;}</style></defs><path class="cls-1" d="M0,56.32A56.33,56.33,0,0,1,56.32,0C74.2,0,72.79,21.66,83.11,34.65c7.63,9.62,29.54,8.45,29.54,21.67A56.33,56.33,0,1,1,0,56.32Z"/><rect class="cls-2" x="16.24" y="18.54" width="80.88" height="14.29" rx="1"/><rect class="cls-3" x="21.44" y="24.28" width="26.39" height="2.82"/><rect class="cls-4" x="13.56" y="37.04" width="88.37" height="15.25" rx="1"/><rect class="cls-5" x="12.5" y="35.99" width="88.37" height="15.25" rx="1"/><rect class="cls-6" x="17.31" y="42.2" width="14.04" height="2.82"/><rect class="cls-2" x="16.24" y="54.12" width="80.88" height="28.95" rx="1"/><rect class="cls-3" x="21.44" y="59.85" width="48.07" height="2.82"/><rect class="cls-6" x="64.36" y="85.59" width="32.76" height="9.27" rx="1"/><path class="cls-7" d="M93.59,39a.2.2,0,0,0-.2-.2,1.62,1.62,0,0,0-1.42.83,1.62,1.62,0,0,0-1.42-.83.2.2,0,0,0,0,.4,1.22,1.22,0,0,1,1.22,1.21v3h-.41a.2.2,0,0,0,0,.4h.41v3a1.22,1.22,0,0,1-1.22,1.22.2.2,0,0,0,0,.4A1.64,1.64,0,0,0,92,47.63a1.64,1.64,0,0,0,1.42.83.2.2,0,1,0,0-.4,1.22,1.22,0,0,1-1.22-1.22v-3h.41a.2.2,0,0,0,0-.4h-.41v-3a1.22,1.22,0,0,1,1.22-1.21A.2.2,0,0,0,93.59,39Z"/></svg>